%TF.GenerationSoftware,KiCad,Pcbnew,6.0.11-2627ca5db0~126~ubuntu22.04.1*%
%TF.CreationDate,2024-01-17T11:10:24+01:00*%
%TF.ProjectId,barco-modchip,62617263-6f2d-46d6-9f64-636869702e6b,rev?*%
%TF.SameCoordinates,Original*%
%TF.FileFunction,Copper,L2,Bot*%
%TF.FilePolarity,Positive*%
%FSLAX46Y46*%
G04 Gerber Fmt 4.6, Leading zero omitted, Abs format (unit mm)*
G04 Created by KiCad (PCBNEW 6.0.11-2627ca5db0~126~ubuntu22.04.1) date 2024-01-17 11:10:24*
%MOMM*%
%LPD*%
G01*
G04 APERTURE LIST*
G04 Aperture macros list*
%AMHorizOval*
0 Thick line with rounded ends*
0 $1 width*
0 $2 $3 position (X,Y) of the first rounded end (center of the circle)*
0 $4 $5 position (X,Y) of the second rounded end (center of the circle)*
0 Add line between two ends*
20,1,$1,$2,$3,$4,$5,0*
0 Add two circle primitives to create the rounded ends*
1,1,$1,$2,$3*
1,1,$1,$4,$5*%
G04 Aperture macros list end*
%TA.AperFunction,ComponentPad*%
%ADD10R,1.700000X1.700000*%
%TD*%
%TA.AperFunction,ComponentPad*%
%ADD11O,1.700000X1.700000*%
%TD*%
%TA.AperFunction,ComponentPad*%
%ADD12C,2.000000*%
%TD*%
%TA.AperFunction,ComponentPad*%
%ADD13HorizOval,1.700000X0.000000X0.000000X0.000000X0.000000X0*%
%TD*%
%TA.AperFunction,ComponentPad*%
%ADD14HorizOval,1.700000X0.000000X0.000000X0.000000X0.000000X0*%
%TD*%
%TA.AperFunction,ViaPad*%
%ADD15C,0.800000*%
%TD*%
%TA.AperFunction,Conductor*%
%ADD16C,0.250000*%
%TD*%
G04 APERTURE END LIST*
D10*
%TO.P,J2,1,Pin_1*%
%TO.N,GND*%
X173250000Y-93625000D03*
D11*
%TO.P,J2,2,Pin_2*%
X175790000Y-93625000D03*
%TO.P,J2,3,Pin_3*%
%TO.N,+5VD*%
X178330000Y-93625000D03*
%TO.P,J2,4,Pin_4*%
%TO.N,RXD*%
X180870000Y-93625000D03*
%TO.P,J2,5,Pin_5*%
%TO.N,TXD*%
X183410000Y-93625000D03*
%TO.P,J2,6,Pin_6*%
%TO.N,DTR*%
X185950000Y-93625000D03*
%TD*%
D12*
%TO.P,J30,1,Pin_1*%
%TO.N,Net-(J30-Pad1)*%
X190750000Y-121685000D03*
%TD*%
D11*
%TO.P,J12,1,Pin_1*%
%TO.N,A4*%
X184750000Y-107600000D03*
%TO.P,J12,2,Pin_2*%
%TO.N,A5*%
X184750000Y-105060000D03*
%TD*%
%TO.P,J14,1,Pin_1*%
%TO.N,SDA1*%
X182020000Y-102225000D03*
%TO.P,J14,2,Pin_2*%
%TO.N,SCL1*%
X179480000Y-102225000D03*
%TD*%
D10*
%TO.P,J40,1,Pin_1*%
%TO.N,/MON_SDA*%
X191210000Y-115085000D03*
D11*
%TO.P,J40,2,Pin_2*%
%TO.N,/MON_SCL*%
X191210000Y-112545000D03*
%TD*%
%TO.P,J13,1,Pin_1*%
%TO.N,A6*%
X184800000Y-118175000D03*
%TO.P,J13,2,Pin_2*%
%TO.N,A7*%
X184800000Y-115635000D03*
%TD*%
D10*
%TO.P,J10,1,Pin_1*%
%TO.N,D9*%
X172000000Y-124250000D03*
D11*
%TO.P,J10,2,Pin_2*%
%TO.N,D8*%
X172000000Y-121710000D03*
%TO.P,J10,3,Pin_3*%
%TO.N,D7*%
X172000000Y-119170000D03*
%TO.P,J10,4,Pin_4*%
%TO.N,D6*%
X172000000Y-116630000D03*
%TO.P,J10,5,Pin_5*%
%TO.N,D5*%
X172000000Y-114090000D03*
%TO.P,J10,6,Pin_6*%
%TO.N,D4*%
X172000000Y-111550000D03*
%TO.P,J10,7,Pin_7*%
%TO.N,D3*%
X172000000Y-109010000D03*
%TO.P,J10,8,Pin_8*%
%TO.N,D2*%
X172000000Y-106470000D03*
D13*
%TO.P,J10,9,Pin_9*%
%TO.N,GND*%
X172000000Y-103930000D03*
D11*
%TO.P,J10,10,Pin_10*%
%TO.N,~{RESET}*%
X172000000Y-101390000D03*
%TO.P,J10,11,Pin_11*%
%TO.N,RXD*%
X172000000Y-98850000D03*
%TO.P,J10,12,Pin_12*%
%TO.N,TXD*%
X172000000Y-96310000D03*
%TD*%
D10*
%TO.P,J11,1,Pin_1*%
%TO.N,D10*%
X187200000Y-124250000D03*
D11*
%TO.P,J11,2,Pin_2*%
%TO.N,MOSI*%
X187200000Y-121710000D03*
%TO.P,J11,3,Pin_3*%
%TO.N,MISO*%
X187200000Y-119170000D03*
%TO.P,J11,4,Pin_4*%
%TO.N,SCK*%
X187200000Y-116630000D03*
%TO.P,J11,5,Pin_5*%
%TO.N,A0*%
X187200000Y-114090000D03*
%TO.P,J11,6,Pin_6*%
%TO.N,A1*%
X187200000Y-111550000D03*
%TO.P,J11,7,Pin_7*%
%TO.N,A2*%
X187200000Y-109010000D03*
%TO.P,J11,8,Pin_8*%
%TO.N,A3*%
X187200000Y-106470000D03*
%TO.P,J11,9,Pin_9*%
%TO.N,+5VD*%
X187200000Y-103930000D03*
%TO.P,J11,10,Pin_10*%
%TO.N,~{RESET}*%
X187200000Y-101390000D03*
D14*
%TO.P,J11,11,Pin_11*%
%TO.N,GND*%
X187200000Y-98850000D03*
D11*
%TO.P,J11,12,Pin_12*%
%TO.N,RAW*%
X187200000Y-96310000D03*
%TD*%
D15*
%TO.N,GND*%
X182125000Y-98650000D03*
X175825000Y-98950000D03*
X177112500Y-109662500D03*
X190750000Y-105760000D03*
X182500000Y-118000000D03*
X190750000Y-100450000D03*
X182050000Y-113500000D03*
X183025000Y-124025000D03*
X176580000Y-102520000D03*
%TO.N,~{RESET}*%
X181500000Y-109150000D03*
X184310000Y-98470000D03*
X175275000Y-122375000D03*
%TO.N,+5VD*%
X175080000Y-101620000D03*
X190750000Y-103400000D03*
X177450000Y-119850000D03*
X169820000Y-109280000D03*
X174700000Y-97000000D03*
X169820000Y-115120000D03*
X178420000Y-99370000D03*
X180375000Y-115225000D03*
%TO.N,MISO*%
X178950000Y-116950000D03*
%TO.N,MOSI*%
X183550000Y-121000000D03*
%TO.N,TXD*%
X182570000Y-103680000D03*
%TO.N,RXD*%
X183570000Y-102950000D03*
X179725000Y-95525000D03*
%TO.N,D4*%
X176730000Y-106480000D03*
%TO.N,D3*%
X177430000Y-105750000D03*
%TO.N,D2*%
X178257500Y-105132500D03*
%TO.N,D10*%
X182900000Y-121800000D03*
%TO.N,A4*%
X189230000Y-107860000D03*
%TO.N,A5*%
X191020000Y-108310000D03*
%TO.N,SDA1*%
X178425000Y-108700000D03*
X180530000Y-105460000D03*
%TO.N,SCL1*%
X179530000Y-105250000D03*
X174900000Y-108600000D03*
%TD*%
D16*
%TO.N,~{RESET}*%
X175275000Y-115375000D02*
X181500000Y-109150000D01*
X187200000Y-101360000D02*
X187200000Y-101390000D01*
X184310000Y-98470000D02*
X187200000Y-101360000D01*
X175275000Y-122375000D02*
X175275000Y-115375000D01*
%TO.N,+5VD*%
X171020000Y-102650000D02*
X169820000Y-103850000D01*
X183370000Y-99390000D02*
X185560000Y-101580000D01*
X180375000Y-115225000D02*
X179575000Y-115225000D01*
X187200000Y-103930000D02*
X188440000Y-103930000D01*
X169820000Y-103850000D02*
X169820000Y-109280000D01*
X175070000Y-101620000D02*
X174040000Y-102650000D01*
X175950000Y-97000000D02*
X178330000Y-94620000D01*
X185560000Y-101580000D02*
X185560000Y-102290000D01*
X169820000Y-115120000D02*
X169820000Y-109280000D01*
X179575000Y-115225000D02*
X177450000Y-117350000D01*
X177450000Y-117350000D02*
X177450000Y-119850000D01*
X178440000Y-99390000D02*
X183370000Y-99390000D01*
X175080000Y-101620000D02*
X175070000Y-101620000D01*
X185560000Y-102290000D02*
X187200000Y-103930000D01*
X178420000Y-99370000D02*
X178440000Y-99390000D01*
X178330000Y-94620000D02*
X178330000Y-93625000D01*
X174040000Y-102650000D02*
X171020000Y-102650000D01*
X174700000Y-97000000D02*
X175950000Y-97000000D01*
X188970000Y-103400000D02*
X190750000Y-103400000D01*
X188440000Y-103930000D02*
X188970000Y-103400000D01*
%TO.N,MISO*%
X181950000Y-119950000D02*
X186420000Y-119950000D01*
X178950000Y-116950000D02*
X181950000Y-119950000D01*
X186420000Y-119950000D02*
X187200000Y-119170000D01*
%TO.N,MOSI*%
X186490000Y-121000000D02*
X187200000Y-121710000D01*
X183550000Y-121000000D02*
X186490000Y-121000000D01*
%TO.N,TXD*%
X182570000Y-103680000D02*
X183790000Y-103680000D01*
X184310000Y-101540000D02*
X182920000Y-100150000D01*
X177515000Y-99545000D02*
X177515000Y-98535000D01*
X176730000Y-97750000D02*
X173440000Y-97750000D01*
X183790000Y-103680000D02*
X183835000Y-103725000D01*
X183835000Y-103725000D02*
X184310000Y-103250000D01*
X184310000Y-103250000D02*
X184310000Y-101540000D01*
X182920000Y-100150000D02*
X178120000Y-100150000D01*
X178120000Y-100150000D02*
X177515000Y-99545000D01*
X173440000Y-97750000D02*
X172000000Y-96310000D01*
X177515000Y-98535000D02*
X176730000Y-97750000D01*
%TO.N,RXD*%
X179725000Y-94770000D02*
X180870000Y-93625000D01*
X177930000Y-100620000D02*
X177060000Y-99750000D01*
X176530000Y-98220000D02*
X173940000Y-98220000D01*
X177060000Y-99750000D02*
X177060000Y-98750000D01*
X177060000Y-98750000D02*
X176530000Y-98220000D01*
X183570000Y-101540000D02*
X182650000Y-100620000D01*
X173940000Y-98220000D02*
X173310000Y-98850000D01*
X179725000Y-95525000D02*
X179725000Y-94770000D01*
X182650000Y-100620000D02*
X177930000Y-100620000D01*
X183570000Y-102950000D02*
X183570000Y-101540000D01*
X173310000Y-98850000D02*
X172000000Y-98850000D01*
%TO.N,D4*%
X175690000Y-106480000D02*
X173560000Y-108610000D01*
X173560000Y-108610000D02*
X173560000Y-109990000D01*
X176730000Y-106480000D02*
X175690000Y-106480000D01*
X173560000Y-109990000D02*
X172000000Y-111550000D01*
%TO.N,D3*%
X177430000Y-105750000D02*
X175250000Y-105750000D01*
X172000000Y-109000000D02*
X172000000Y-109010000D01*
X175250000Y-105750000D02*
X172000000Y-109000000D01*
%TO.N,D2*%
X177995000Y-104870000D02*
X174240000Y-104870000D01*
X174240000Y-104870000D02*
X172640000Y-106470000D01*
X172640000Y-106470000D02*
X172000000Y-106470000D01*
X178257500Y-105132500D02*
X177995000Y-104870000D01*
%TO.N,D10*%
X184750000Y-121800000D02*
X187200000Y-124250000D01*
X182900000Y-121800000D02*
X184750000Y-121800000D01*
%TO.N,A4*%
X186560000Y-107750000D02*
X189120000Y-107750000D01*
X186390000Y-107600000D02*
X186410000Y-107600000D01*
X186140000Y-107600000D02*
X186390000Y-107600000D01*
X186410000Y-107600000D02*
X186560000Y-107750000D01*
X184750000Y-107600000D02*
X186140000Y-107600000D01*
X189120000Y-107750000D02*
X189230000Y-107860000D01*
%TO.N,A5*%
X186410000Y-105060000D02*
X186500000Y-105150000D01*
X184750000Y-105060000D02*
X186410000Y-105060000D01*
X187870000Y-105160000D02*
X191020000Y-108310000D01*
X187810000Y-105160000D02*
X187870000Y-105160000D01*
X186510000Y-105160000D02*
X187810000Y-105160000D01*
X186500000Y-105150000D02*
X186510000Y-105160000D01*
%TO.N,SDA1*%
X178425000Y-107565000D02*
X178425000Y-108700000D01*
X180530000Y-105460000D02*
X178425000Y-107565000D01*
%TO.N,SCL1*%
X179530000Y-105250000D02*
X179500000Y-105250000D01*
X179500000Y-105250000D02*
X176150000Y-108600000D01*
X176150000Y-108600000D02*
X174900000Y-108600000D01*
%TD*%
%TA.AperFunction,Conductor*%
%TO.N,GND*%
G36*
X192660621Y-92841502D02*
G01*
X192707114Y-92895158D01*
X192718500Y-92947500D01*
X192718500Y-125252500D01*
X192698498Y-125320621D01*
X192644842Y-125367114D01*
X192592500Y-125378500D01*
X188537975Y-125378500D01*
X188469854Y-125358498D01*
X188423361Y-125304842D01*
X188413257Y-125234568D01*
X188416982Y-125218012D01*
X188420655Y-125210497D01*
X188422067Y-125200820D01*
X188430840Y-125140684D01*
X188430840Y-125140680D01*
X188431500Y-125136158D01*
X188431500Y-123363842D01*
X188421983Y-123299183D01*
X188421888Y-123298541D01*
X188421887Y-123298539D01*
X188420462Y-123288856D01*
X188364487Y-123174849D01*
X188319285Y-123129726D01*
X188281972Y-123092478D01*
X188274601Y-123085120D01*
X188262953Y-123079426D01*
X188184222Y-123040942D01*
X188160497Y-123029345D01*
X188127716Y-123024563D01*
X188090684Y-123019160D01*
X188090680Y-123019160D01*
X188086158Y-123018500D01*
X187875299Y-123018500D01*
X187807178Y-122998498D01*
X187760685Y-122944842D01*
X187750581Y-122874568D01*
X187780075Y-122809988D01*
X187812299Y-122783381D01*
X187813118Y-122782908D01*
X187818102Y-122780584D01*
X187917621Y-122710900D01*
X187990106Y-122660146D01*
X187990109Y-122660144D01*
X187994617Y-122656987D01*
X188146987Y-122504617D01*
X188151544Y-122498110D01*
X188267427Y-122332611D01*
X188267428Y-122332609D01*
X188270584Y-122328102D01*
X188272907Y-122323120D01*
X188272910Y-122323115D01*
X188359329Y-122137789D01*
X188359330Y-122137787D01*
X188361652Y-122132807D01*
X188363179Y-122127110D01*
X188415999Y-121929980D01*
X188415999Y-121929978D01*
X188417423Y-121924665D01*
X188436204Y-121710000D01*
X188431054Y-121651131D01*
X189364179Y-121651131D01*
X189364476Y-121656283D01*
X189364476Y-121656287D01*
X189367573Y-121710000D01*
X189377256Y-121877927D01*
X189378393Y-121882973D01*
X189378394Y-121882979D01*
X189396543Y-121963511D01*
X189427199Y-122099541D01*
X189429141Y-122104323D01*
X189429142Y-122104327D01*
X189463960Y-122190074D01*
X189512666Y-122310022D01*
X189631363Y-122503718D01*
X189780102Y-122675427D01*
X189954888Y-122820537D01*
X190151028Y-122935152D01*
X190155853Y-122936994D01*
X190155854Y-122936995D01*
X190179970Y-122946204D01*
X190363253Y-123016193D01*
X190368321Y-123017224D01*
X190368324Y-123017225D01*
X190428845Y-123029538D01*
X190585864Y-123061484D01*
X190591037Y-123061674D01*
X190591040Y-123061674D01*
X190807720Y-123069619D01*
X190807724Y-123069619D01*
X190812884Y-123069808D01*
X190818004Y-123069152D01*
X190818006Y-123069152D01*
X190890183Y-123059906D01*
X191038214Y-123040942D01*
X191043163Y-123039457D01*
X191043169Y-123039456D01*
X191250855Y-122977147D01*
X191250854Y-122977147D01*
X191255805Y-122975662D01*
X191459812Y-122875720D01*
X191464017Y-122872720D01*
X191464023Y-122872717D01*
X191640552Y-122746800D01*
X191640554Y-122746798D01*
X191644756Y-122743801D01*
X191805671Y-122583446D01*
X191938235Y-122398964D01*
X192038889Y-122195307D01*
X192090535Y-122025319D01*
X192103426Y-121982890D01*
X192103426Y-121982889D01*
X192104928Y-121977946D01*
X192105948Y-121970196D01*
X192134143Y-121756039D01*
X192134144Y-121756033D01*
X192134580Y-121752717D01*
X192136235Y-121685000D01*
X192117621Y-121458592D01*
X192062278Y-121238264D01*
X191971694Y-121029934D01*
X191848300Y-120839195D01*
X191828002Y-120816887D01*
X191698888Y-120674994D01*
X191698886Y-120674993D01*
X191695410Y-120671172D01*
X191691359Y-120667973D01*
X191691355Y-120667969D01*
X191521186Y-120533577D01*
X191521182Y-120533575D01*
X191517131Y-120530375D01*
X191318250Y-120420587D01*
X191224597Y-120387423D01*
X191108980Y-120346481D01*
X191108977Y-120346480D01*
X191104108Y-120344756D01*
X191099019Y-120343849D01*
X191099017Y-120343849D01*
X190885544Y-120305823D01*
X190885540Y-120305823D01*
X190880456Y-120304917D01*
X190806960Y-120304019D01*
X190658471Y-120302205D01*
X190658469Y-120302205D01*
X190653301Y-120302142D01*
X190428743Y-120336504D01*
X190212812Y-120407081D01*
X190208224Y-120409469D01*
X190208220Y-120409471D01*
X190015897Y-120509588D01*
X190011308Y-120511977D01*
X190007175Y-120515080D01*
X190007172Y-120515082D01*
X189833777Y-120645271D01*
X189829642Y-120648376D01*
X189672693Y-120812614D01*
X189669779Y-120816886D01*
X189669778Y-120816887D01*
X189654561Y-120839195D01*
X189544676Y-121000280D01*
X189449028Y-121206336D01*
X189447646Y-121211318D01*
X189447646Y-121211319D01*
X189438784Y-121243276D01*
X189388319Y-121425245D01*
X189364179Y-121651131D01*
X188431054Y-121651131D01*
X188417423Y-121495335D01*
X188398643Y-121425245D01*
X188363075Y-121292503D01*
X188363074Y-121292501D01*
X188361652Y-121287193D01*
X188321763Y-121201651D01*
X188272910Y-121096885D01*
X188272907Y-121096880D01*
X188270584Y-121091898D01*
X188267427Y-121087389D01*
X188150146Y-120919894D01*
X188150144Y-120919891D01*
X188146987Y-120915383D01*
X187994617Y-120763013D01*
X187990109Y-120759856D01*
X187990106Y-120759854D01*
X187822611Y-120642573D01*
X187822609Y-120642572D01*
X187818102Y-120639416D01*
X187813120Y-120637093D01*
X187813115Y-120637090D01*
X187635346Y-120554195D01*
X187582061Y-120507277D01*
X187562600Y-120439000D01*
X187583142Y-120371040D01*
X187635346Y-120325805D01*
X187813115Y-120242910D01*
X187813120Y-120242907D01*
X187818102Y-120240584D01*
X187822611Y-120237427D01*
X187990106Y-120120146D01*
X187990109Y-120120144D01*
X187994617Y-120116987D01*
X188146987Y-119964617D01*
X188224469Y-119853962D01*
X188267427Y-119792611D01*
X188267428Y-119792609D01*
X188270584Y-119788102D01*
X188272907Y-119783120D01*
X188272910Y-119783115D01*
X188359329Y-119597789D01*
X188359330Y-119597787D01*
X188361652Y-119592807D01*
X188382009Y-119516835D01*
X188415999Y-119389980D01*
X188415999Y-119389978D01*
X188417423Y-119384665D01*
X188436204Y-119170000D01*
X188417423Y-118955335D01*
X188408672Y-118922675D01*
X188363075Y-118752503D01*
X188363074Y-118752501D01*
X188361652Y-118747193D01*
X188289516Y-118592497D01*
X188272910Y-118556885D01*
X188272907Y-118556880D01*
X188270584Y-118551898D01*
X188160709Y-118394980D01*
X188150146Y-118379894D01*
X188150144Y-118379891D01*
X188146987Y-118375383D01*
X187994617Y-118223013D01*
X187990109Y-118219856D01*
X187990106Y-118219854D01*
X187822611Y-118102573D01*
X187822609Y-118102572D01*
X187818102Y-118099416D01*
X187813120Y-118097093D01*
X187813115Y-118097090D01*
X187635346Y-118014195D01*
X187582061Y-117967277D01*
X187562600Y-117899000D01*
X187583142Y-117831040D01*
X187635346Y-117785805D01*
X187813115Y-117702910D01*
X187813120Y-117702907D01*
X187818102Y-117700584D01*
X187944629Y-117611989D01*
X187990106Y-117580146D01*
X187990109Y-117580144D01*
X187994617Y-117576987D01*
X188146987Y-117424617D01*
X188151946Y-117417536D01*
X188267427Y-117252611D01*
X188267428Y-117252609D01*
X188270584Y-117248102D01*
X188272907Y-117243120D01*
X188272910Y-117243115D01*
X188359329Y-117057789D01*
X188359330Y-117057787D01*
X188361652Y-117052807D01*
X188367780Y-117029939D01*
X188415999Y-116849980D01*
X188415999Y-116849978D01*
X188417423Y-116844665D01*
X188436204Y-116630000D01*
X188417423Y-116415335D01*
X188391619Y-116319033D01*
X188363075Y-116212503D01*
X188363074Y-116212501D01*
X188361652Y-116207193D01*
X188356167Y-116195430D01*
X188272910Y-116016885D01*
X188272907Y-116016880D01*
X188270584Y-116011898D01*
X188259467Y-115996021D01*
X188150146Y-115839894D01*
X188150144Y-115839891D01*
X188146987Y-115835383D01*
X187994617Y-115683013D01*
X187990109Y-115679856D01*
X187990106Y-115679854D01*
X187822611Y-115562573D01*
X187822609Y-115562572D01*
X187818102Y-115559416D01*
X187813120Y-115557093D01*
X187813115Y-115557090D01*
X187635346Y-115474195D01*
X187582061Y-115427277D01*
X187562600Y-115359000D01*
X187583142Y-115291040D01*
X187635346Y-115245805D01*
X187813115Y-115162910D01*
X187813120Y-115162907D01*
X187818102Y-115160584D01*
X187822611Y-115157427D01*
X187990106Y-115040146D01*
X187990109Y-115040144D01*
X187994617Y-115036987D01*
X188146987Y-114884617D01*
X188174802Y-114844894D01*
X188267427Y-114712611D01*
X188267428Y-114712609D01*
X188270584Y-114708102D01*
X188272907Y-114703120D01*
X188272910Y-114703115D01*
X188359329Y-114517789D01*
X188359330Y-114517787D01*
X188361652Y-114512807D01*
X188366338Y-114495321D01*
X188415999Y-114309980D01*
X188415999Y-114309978D01*
X188417423Y-114304665D01*
X188436204Y-114090000D01*
X188417423Y-113875335D01*
X188415686Y-113868853D01*
X188363075Y-113672503D01*
X188363074Y-113672501D01*
X188361652Y-113667193D01*
X188351298Y-113644988D01*
X188272910Y-113476885D01*
X188272907Y-113476880D01*
X188270584Y-113471898D01*
X188177960Y-113339617D01*
X188150146Y-113299894D01*
X188150144Y-113299891D01*
X188146987Y-113295383D01*
X187994617Y-113143013D01*
X187990109Y-113139856D01*
X187990106Y-113139854D01*
X187822611Y-113022573D01*
X187822609Y-113022572D01*
X187818102Y-113019416D01*
X187813120Y-113017093D01*
X187813115Y-113017090D01*
X187635346Y-112934195D01*
X187582061Y-112887277D01*
X187562600Y-112819000D01*
X187583142Y-112751040D01*
X187635346Y-112705805D01*
X187813115Y-112622910D01*
X187813120Y-112622907D01*
X187818102Y-112620584D01*
X187822611Y-112617427D01*
X187926048Y-112545000D01*
X189973796Y-112545000D01*
X189992577Y-112759665D01*
X189994001Y-112764978D01*
X189994001Y-112764980D01*
X190009012Y-112821000D01*
X190048348Y-112967807D01*
X190050670Y-112972787D01*
X190050671Y-112972789D01*
X190137090Y-113158115D01*
X190137093Y-113158120D01*
X190139416Y-113163102D01*
X190142572Y-113167609D01*
X190142573Y-113167611D01*
X190235199Y-113299894D01*
X190263013Y-113339617D01*
X190415383Y-113491987D01*
X190419891Y-113495144D01*
X190419894Y-113495146D01*
X190516624Y-113562877D01*
X190591898Y-113615584D01*
X190596882Y-113617908D01*
X190597701Y-113618381D01*
X190646694Y-113669764D01*
X190660130Y-113739477D01*
X190633744Y-113805388D01*
X190575911Y-113846570D01*
X190534701Y-113853500D01*
X190323842Y-113853500D01*
X190319294Y-113854170D01*
X190319287Y-113854170D01*
X190258541Y-113863112D01*
X190258539Y-113863113D01*
X190248856Y-113864538D01*
X190240068Y-113868853D01*
X190240067Y-113868853D01*
X190144197Y-113915923D01*
X190144196Y-113915924D01*
X190134849Y-113920513D01*
X190045120Y-114010399D01*
X189989345Y-114124503D01*
X189987933Y-114134183D01*
X189979165Y-114194287D01*
X189978500Y-114198842D01*
X189978500Y-115971158D01*
X189979170Y-115975706D01*
X189979170Y-115975713D01*
X189988112Y-116036459D01*
X189989538Y-116046144D01*
X189993853Y-116054932D01*
X189993853Y-116054933D01*
X190027544Y-116123552D01*
X190045513Y-116160151D01*
X190135399Y-116249880D01*
X190249503Y-116305655D01*
X190282284Y-116310437D01*
X190319316Y-116315840D01*
X190319320Y-116315840D01*
X190323842Y-116316500D01*
X192096158Y-116316500D01*
X192100706Y-116315830D01*
X192100713Y-116315830D01*
X192161459Y-116306888D01*
X192161461Y-116306887D01*
X192171144Y-116305462D01*
X192179933Y-116301147D01*
X192275803Y-116254077D01*
X192275804Y-116254076D01*
X192285151Y-116249487D01*
X192374880Y-116159601D01*
X192430655Y-116045497D01*
X192439389Y-115985629D01*
X192440840Y-115975684D01*
X192440840Y-115975680D01*
X192441500Y-115971158D01*
X192441500Y-114198842D01*
X192431983Y-114134183D01*
X192431888Y-114133541D01*
X192431887Y-114133539D01*
X192430462Y-114123856D01*
X192416528Y-114095475D01*
X192379077Y-114019197D01*
X192379076Y-114019196D01*
X192374487Y-114009849D01*
X192284601Y-113920120D01*
X192170497Y-113864345D01*
X192137716Y-113859563D01*
X192100684Y-113854160D01*
X192100680Y-113854160D01*
X192096158Y-113853500D01*
X191885299Y-113853500D01*
X191817178Y-113833498D01*
X191770685Y-113779842D01*
X191760581Y-113709568D01*
X191790075Y-113644988D01*
X191822299Y-113618381D01*
X191823118Y-113617908D01*
X191828102Y-113615584D01*
X191903376Y-113562877D01*
X192000106Y-113495146D01*
X192000109Y-113495144D01*
X192004617Y-113491987D01*
X192156987Y-113339617D01*
X192184802Y-113299894D01*
X192277427Y-113167611D01*
X192277428Y-113167609D01*
X192280584Y-113163102D01*
X192282907Y-113158120D01*
X192282910Y-113158115D01*
X192369329Y-112972789D01*
X192369330Y-112972787D01*
X192371652Y-112967807D01*
X192410989Y-112821000D01*
X192425999Y-112764980D01*
X192425999Y-112764978D01*
X192427423Y-112759665D01*
X192446204Y-112545000D01*
X192427423Y-112330335D01*
X192425999Y-112325020D01*
X192373075Y-112127503D01*
X192373074Y-112127501D01*
X192371652Y-112122193D01*
X192299516Y-111967497D01*
X192282910Y-111931885D01*
X192282907Y-111931880D01*
X192280584Y-111926898D01*
X192170709Y-111769980D01*
X192160146Y-111754894D01*
X192160144Y-111754891D01*
X192156987Y-111750383D01*
X192004617Y-111598013D01*
X192000109Y-111594856D01*
X192000106Y-111594854D01*
X191832611Y-111477573D01*
X191832609Y-111477572D01*
X191828102Y-111474416D01*
X191823120Y-111472093D01*
X191823115Y-111472090D01*
X191637789Y-111385671D01*
X191637787Y-111385670D01*
X191632807Y-111383348D01*
X191627499Y-111381926D01*
X191627497Y-111381925D01*
X191429980Y-111329001D01*
X191429978Y-111329001D01*
X191424665Y-111327577D01*
X191210000Y-111308796D01*
X190995335Y-111327577D01*
X190990022Y-111329001D01*
X190990020Y-111329001D01*
X190792503Y-111381925D01*
X190792501Y-111381926D01*
X190787193Y-111383348D01*
X190782213Y-111385670D01*
X190782211Y-111385671D01*
X190596885Y-111472090D01*
X190596880Y-111472093D01*
X190591898Y-111474416D01*
X190587391Y-111477572D01*
X190587389Y-111477573D01*
X190419894Y-111594854D01*
X190419891Y-111594856D01*
X190415383Y-111598013D01*
X190263013Y-111750383D01*
X190259856Y-111754891D01*
X190259854Y-111754894D01*
X190249291Y-111769980D01*
X190139416Y-111926898D01*
X190137093Y-111931880D01*
X190137090Y-111931885D01*
X190120484Y-111967497D01*
X190048348Y-112122193D01*
X190046926Y-112127501D01*
X190046925Y-112127503D01*
X189994001Y-112325020D01*
X189992577Y-112330335D01*
X189973796Y-112545000D01*
X187926048Y-112545000D01*
X187990106Y-112500146D01*
X187990109Y-112500144D01*
X187994617Y-112496987D01*
X188146987Y-112344617D01*
X188153151Y-112335815D01*
X188267427Y-112172611D01*
X188267428Y-112172609D01*
X188270584Y-112168102D01*
X188272907Y-112163120D01*
X188272910Y-112163115D01*
X188359329Y-111977789D01*
X188359330Y-111977787D01*
X188361652Y-111972807D01*
X188375162Y-111922389D01*
X188415999Y-111769980D01*
X188415999Y-111769978D01*
X188417423Y-111764665D01*
X188436204Y-111550000D01*
X188417423Y-111335335D01*
X188361652Y-111127193D01*
X188354482Y-111111817D01*
X188272910Y-110936885D01*
X188272907Y-110936880D01*
X188270584Y-110931898D01*
X188146987Y-110755383D01*
X187994617Y-110603013D01*
X187990109Y-110599856D01*
X187990106Y-110599854D01*
X187822611Y-110482573D01*
X187822609Y-110482572D01*
X187818102Y-110479416D01*
X187813120Y-110477093D01*
X187813115Y-110477090D01*
X187635346Y-110394195D01*
X187582061Y-110347277D01*
X187562600Y-110279000D01*
X187583142Y-110211040D01*
X187635346Y-110165805D01*
X187813115Y-110082910D01*
X187813120Y-110082907D01*
X187818102Y-110080584D01*
X187822611Y-110077427D01*
X187990106Y-109960146D01*
X187990109Y-109960144D01*
X187994617Y-109956987D01*
X188146987Y-109804617D01*
X188164084Y-109780201D01*
X188267427Y-109632611D01*
X188267428Y-109632609D01*
X188270584Y-109628102D01*
X188272907Y-109623120D01*
X188272910Y-109623115D01*
X188359329Y-109437789D01*
X188359330Y-109437787D01*
X188361652Y-109432807D01*
X188378208Y-109371021D01*
X188415999Y-109229980D01*
X188415999Y-109229978D01*
X188417423Y-109224665D01*
X188436204Y-109010000D01*
X188417423Y-108795335D01*
X188415952Y-108789846D01*
X188363075Y-108592503D01*
X188363074Y-108592501D01*
X188361652Y-108587193D01*
X188359329Y-108582211D01*
X188291033Y-108435750D01*
X188280372Y-108365558D01*
X188309352Y-108300746D01*
X188368772Y-108261889D01*
X188405228Y-108256500D01*
X188485435Y-108256500D01*
X188553556Y-108276502D01*
X188593210Y-108317228D01*
X188606908Y-108339846D01*
X188611797Y-108344909D01*
X188611798Y-108344910D01*
X188646809Y-108381165D01*
X188728701Y-108465966D01*
X188734593Y-108469821D01*
X188734597Y-108469825D01*
X188809921Y-108519115D01*
X188875410Y-108561970D01*
X188882014Y-108564426D01*
X189033140Y-108620629D01*
X189033142Y-108620629D01*
X189039742Y-108623084D01*
X189046725Y-108624016D01*
X189046726Y-108624016D01*
X189206549Y-108645342D01*
X189206553Y-108645342D01*
X189213530Y-108646273D01*
X189220541Y-108645635D01*
X189220545Y-108645635D01*
X189358105Y-108633115D01*
X189388137Y-108630382D01*
X189394839Y-108628204D01*
X189394841Y-108628204D01*
X189548185Y-108578380D01*
X189548188Y-108578379D01*
X189554884Y-108576203D01*
X189705484Y-108486427D01*
X189710578Y-108481576D01*
X189710582Y-108481573D01*
X189816020Y-108381165D01*
X189832452Y-108365517D01*
X189901302Y-108261889D01*
X189925576Y-108225354D01*
X189925577Y-108225352D01*
X189929477Y-108219482D01*
X189938417Y-108195948D01*
X189981305Y-108139371D01*
X190047973Y-108114962D01*
X190117255Y-108130472D01*
X190145299Y-108151598D01*
X190197584Y-108203883D01*
X190231610Y-108266195D01*
X190234342Y-108293397D01*
X190233632Y-108299020D01*
X190234319Y-108306027D01*
X190234319Y-108306030D01*
X190241915Y-108383500D01*
X190250741Y-108473511D01*
X190306083Y-108639876D01*
X190309730Y-108645898D01*
X190309731Y-108645900D01*
X190358171Y-108725883D01*
X190396908Y-108789846D01*
X190401797Y-108794909D01*
X190401798Y-108794910D01*
X190461277Y-108856502D01*
X190518701Y-108915966D01*
X190524593Y-108919821D01*
X190524597Y-108919825D01*
X190599398Y-108968773D01*
X190665410Y-109011970D01*
X190672014Y-109014426D01*
X190823140Y-109070629D01*
X190823142Y-109070629D01*
X190829742Y-109073084D01*
X190836725Y-109074016D01*
X190836726Y-109074016D01*
X190996549Y-109095342D01*
X190996553Y-109095342D01*
X191003530Y-109096273D01*
X191010541Y-109095635D01*
X191010545Y-109095635D01*
X191148105Y-109083115D01*
X191178137Y-109080382D01*
X191184839Y-109078204D01*
X191184841Y-109078204D01*
X191338185Y-109028380D01*
X191338188Y-109028379D01*
X191344884Y-109026203D01*
X191495484Y-108936427D01*
X191500578Y-108931576D01*
X191500582Y-108931573D01*
X191572053Y-108863511D01*
X191622452Y-108815517D01*
X191699201Y-108700000D01*
X191715576Y-108675354D01*
X191715577Y-108675352D01*
X191719477Y-108669482D01*
X191781737Y-108505581D01*
X191798800Y-108384170D01*
X191805587Y-108335883D01*
X191805588Y-108335875D01*
X191806138Y-108331959D01*
X191806445Y-108310000D01*
X191786901Y-108135764D01*
X191776711Y-108106500D01*
X191731557Y-107976835D01*
X191731556Y-107976833D01*
X191729242Y-107970188D01*
X191678313Y-107888685D01*
X191640064Y-107827473D01*
X191640063Y-107827471D01*
X191636332Y-107821501D01*
X191629544Y-107814665D01*
X191544342Y-107728868D01*
X191512789Y-107697094D01*
X191506846Y-107693322D01*
X191506843Y-107693320D01*
X191389182Y-107618650D01*
X191364755Y-107603148D01*
X191337570Y-107593468D01*
X191206220Y-107546696D01*
X191206215Y-107546695D01*
X191199585Y-107544334D01*
X191192597Y-107543501D01*
X191192594Y-107543500D01*
X191072307Y-107529157D01*
X191025490Y-107523574D01*
X191018487Y-107524310D01*
X191018481Y-107524310D01*
X191016837Y-107524483D01*
X191015789Y-107524291D01*
X191011440Y-107524261D01*
X191011445Y-107523497D01*
X190946998Y-107511713D01*
X190914568Y-107488269D01*
X188278247Y-104851948D01*
X188270666Y-104842461D01*
X188270292Y-104842779D01*
X188264476Y-104835945D01*
X188259685Y-104828352D01*
X188229534Y-104801724D01*
X188191716Y-104741639D01*
X188192386Y-104670646D01*
X188209729Y-104635012D01*
X188267427Y-104552611D01*
X188267428Y-104552609D01*
X188270584Y-104548102D01*
X188272907Y-104543120D01*
X188272910Y-104543115D01*
X188287350Y-104512147D01*
X188334267Y-104458862D01*
X188398984Y-104440416D01*
X188398962Y-104440059D01*
X188452432Y-104436742D01*
X188460233Y-104436500D01*
X188476366Y-104436500D01*
X188480807Y-104435864D01*
X188480809Y-104435864D01*
X188486677Y-104435024D01*
X188496726Y-104433995D01*
X188534806Y-104431632D01*
X188543768Y-104431076D01*
X188552215Y-104428026D01*
X188555317Y-104427384D01*
X188571702Y-104423299D01*
X188574735Y-104422412D01*
X188583619Y-104421140D01*
X188591786Y-104417426D01*
X188591788Y-104417426D01*
X188626533Y-104401628D01*
X188635902Y-104397815D01*
X188640368Y-104396203D01*
X188649719Y-104392827D01*
X188671792Y-104384859D01*
X188671793Y-104384858D01*
X188680232Y-104381812D01*
X188687475Y-104376521D01*
X188690232Y-104375055D01*
X188704882Y-104366494D01*
X188707524Y-104364804D01*
X188715693Y-104361090D01*
X188722493Y-104355231D01*
X188722496Y-104355229D01*
X188751407Y-104330318D01*
X188759312Y-104324040D01*
X188770250Y-104316049D01*
X188781168Y-104305131D01*
X188788015Y-104298773D01*
X188818802Y-104272245D01*
X188825604Y-104266384D01*
X188830488Y-104258849D01*
X188836085Y-104252433D01*
X188845491Y-104240808D01*
X189142894Y-103943405D01*
X189205206Y-103909379D01*
X189231989Y-103906500D01*
X190099164Y-103906500D01*
X190167285Y-103926502D01*
X190189800Y-103944972D01*
X190248701Y-104005966D01*
X190254593Y-104009821D01*
X190254597Y-104009825D01*
X190296393Y-104037175D01*
X190395410Y-104101970D01*
X190402014Y-104104426D01*
X190553140Y-104160629D01*
X190553142Y-104160629D01*
X190559742Y-104163084D01*
X190566725Y-104164016D01*
X190566726Y-104164016D01*
X190726549Y-104185342D01*
X190726553Y-104185342D01*
X190733530Y-104186273D01*
X190740541Y-104185635D01*
X190740545Y-104185635D01*
X190878105Y-104173115D01*
X190908137Y-104170382D01*
X190914839Y-104168204D01*
X190914841Y-104168204D01*
X191068185Y-104118380D01*
X191068188Y-104118379D01*
X191074884Y-104116203D01*
X191225484Y-104026427D01*
X191230578Y-104021576D01*
X191230582Y-104021573D01*
X191330264Y-103926646D01*
X191352452Y-103905517D01*
X191449477Y-103759482D01*
X191511737Y-103595581D01*
X191520981Y-103529806D01*
X191535587Y-103425883D01*
X191535588Y-103425875D01*
X191536138Y-103421959D01*
X191536445Y-103400000D01*
X191516901Y-103225764D01*
X191513222Y-103215197D01*
X191461557Y-103066835D01*
X191461556Y-103066833D01*
X191459242Y-103060188D01*
X191449145Y-103044030D01*
X191370064Y-102917473D01*
X191370063Y-102917471D01*
X191366332Y-102911501D01*
X191353843Y-102898924D01*
X191247754Y-102792094D01*
X191242789Y-102787094D01*
X191236846Y-102783322D01*
X191236843Y-102783320D01*
X191125370Y-102712577D01*
X191094755Y-102693148D01*
X191067570Y-102683468D01*
X190936220Y-102636696D01*
X190936215Y-102636695D01*
X190929585Y-102634334D01*
X190922597Y-102633501D01*
X190922594Y-102633500D01*
X190778543Y-102616323D01*
X190755490Y-102613574D01*
X190748487Y-102614310D01*
X190748486Y-102614310D01*
X190588122Y-102631165D01*
X190588120Y-102631166D01*
X190581122Y-102631901D01*
X190415148Y-102688403D01*
X190406382Y-102693796D01*
X190271823Y-102776577D01*
X190271820Y-102776579D01*
X190265816Y-102780273D01*
X190186929Y-102857525D01*
X190124266Y-102890894D01*
X190098773Y-102893500D01*
X189040843Y-102893500D01*
X189028779Y-102892152D01*
X189028740Y-102892642D01*
X189019794Y-102891922D01*
X189011038Y-102889941D01*
X188958129Y-102893223D01*
X188957568Y-102893258D01*
X188949767Y-102893500D01*
X188933634Y-102893500D01*
X188929193Y-102894136D01*
X188929191Y-102894136D01*
X188923323Y-102894976D01*
X188913274Y-102896005D01*
X188877845Y-102898203D01*
X188866232Y-102898924D01*
X188857785Y-102901974D01*
X188854683Y-102902616D01*
X188838306Y-102906699D01*
X188835268Y-102907587D01*
X188826381Y-102908860D01*
X188807438Y-102917473D01*
X188783469Y-102928371D01*
X188774107Y-102932182D01*
X188729767Y-102948189D01*
X188722518Y-102953485D01*
X188719738Y-102954963D01*
X188705138Y-102963495D01*
X188702484Y-102965192D01*
X188694307Y-102968910D01*
X188687505Y-102974771D01*
X188658604Y-102999674D01*
X188650683Y-103005963D01*
X188643682Y-103011077D01*
X188643670Y-103011087D01*
X188639750Y-103013951D01*
X188628832Y-103024869D01*
X188621985Y-103031227D01*
X188584396Y-103063616D01*
X188579512Y-103071151D01*
X188573915Y-103077567D01*
X188564509Y-103089192D01*
X188406094Y-103247607D01*
X188343782Y-103281633D01*
X188272967Y-103276568D01*
X188213787Y-103230784D01*
X188146987Y-103135383D01*
X187994617Y-102983013D01*
X187990109Y-102979856D01*
X187990106Y-102979854D01*
X187822611Y-102862573D01*
X187822609Y-102862572D01*
X187818102Y-102859416D01*
X187813120Y-102857093D01*
X187813115Y-102857090D01*
X187635346Y-102774195D01*
X187582061Y-102727277D01*
X187562600Y-102659000D01*
X187583142Y-102591040D01*
X187635346Y-102545805D01*
X187813115Y-102462910D01*
X187813120Y-102462907D01*
X187818102Y-102460584D01*
X187840387Y-102444980D01*
X187990106Y-102340146D01*
X187990109Y-102340144D01*
X187994617Y-102336987D01*
X188146987Y-102184617D01*
X188165023Y-102158860D01*
X188267427Y-102012611D01*
X188267428Y-102012609D01*
X188270584Y-102008102D01*
X188272907Y-102003120D01*
X188272910Y-102003115D01*
X188359329Y-101817789D01*
X188359330Y-101817787D01*
X188361652Y-101812807D01*
X188396110Y-101684209D01*
X188415999Y-101609980D01*
X188415999Y-101609978D01*
X188417423Y-101604665D01*
X188436204Y-101390000D01*
X188417423Y-101175335D01*
X188402065Y-101118016D01*
X188363075Y-100972503D01*
X188363074Y-100972501D01*
X188361652Y-100967193D01*
X188347676Y-100937221D01*
X188272910Y-100776885D01*
X188272907Y-100776880D01*
X188270584Y-100771898D01*
X188146987Y-100595383D01*
X187994617Y-100443013D01*
X187990109Y-100439856D01*
X187990106Y-100439854D01*
X187822611Y-100322573D01*
X187822609Y-100322572D01*
X187818102Y-100319416D01*
X187802558Y-100312168D01*
X187785134Y-100304042D01*
X187731850Y-100257124D01*
X187712390Y-100188846D01*
X187732933Y-100120887D01*
X187782954Y-100076696D01*
X187893103Y-100022735D01*
X187901944Y-100017465D01*
X187949247Y-99983723D01*
X187957648Y-99973023D01*
X187950660Y-99959870D01*
X186841922Y-98851132D01*
X187564408Y-98851132D01*
X187564539Y-98852965D01*
X187568790Y-98859580D01*
X188310474Y-99601264D01*
X188322484Y-99607823D01*
X188334223Y-99598855D01*
X188365004Y-99556019D01*
X188370315Y-99547180D01*
X188464670Y-99356267D01*
X188468469Y-99346672D01*
X188530376Y-99142915D01*
X188532555Y-99132834D01*
X188560590Y-98919887D01*
X188561109Y-98913212D01*
X188562572Y-98853364D01*
X188562378Y-98846646D01*
X188544781Y-98632604D01*
X188543096Y-98622424D01*
X188491214Y-98415875D01*
X188487894Y-98406124D01*
X188402972Y-98210814D01*
X188398105Y-98201739D01*
X188333063Y-98101197D01*
X188322377Y-98091995D01*
X188312812Y-98096398D01*
X187572022Y-98837188D01*
X187564408Y-98851132D01*
X186841922Y-98851132D01*
X186089849Y-98099059D01*
X186078313Y-98092759D01*
X186066031Y-98102382D01*
X186018089Y-98172662D01*
X186013004Y-98181613D01*
X185923338Y-98374783D01*
X185919775Y-98384470D01*
X185862864Y-98589681D01*
X185860933Y-98599800D01*
X185838302Y-98811574D01*
X185838050Y-98821863D01*
X185847146Y-98979613D01*
X185831098Y-99048772D01*
X185780208Y-99098277D01*
X185710632Y-99112409D01*
X185644461Y-99086682D01*
X185632260Y-99075961D01*
X185133115Y-98576816D01*
X185099089Y-98514504D01*
X185096222Y-98485961D01*
X185096390Y-98473962D01*
X185096390Y-98473956D01*
X185096445Y-98470000D01*
X185076901Y-98295764D01*
X185073179Y-98285074D01*
X185021557Y-98136835D01*
X185021556Y-98136833D01*
X185019242Y-98130188D01*
X185001867Y-98102382D01*
X184930064Y-97987473D01*
X184930063Y-97987471D01*
X184926332Y-97981501D01*
X184917835Y-97972944D01*
X184807754Y-97862094D01*
X184802789Y-97857094D01*
X184796846Y-97853322D01*
X184796843Y-97853320D01*
X184715270Y-97801552D01*
X184654755Y-97763148D01*
X184627570Y-97753468D01*
X184496220Y-97706696D01*
X184496215Y-97706695D01*
X184489585Y-97704334D01*
X184482597Y-97703501D01*
X184482594Y-97703500D01*
X184355525Y-97688348D01*
X184315490Y-97683574D01*
X184308487Y-97684310D01*
X184308486Y-97684310D01*
X184148122Y-97701165D01*
X184148120Y-97701166D01*
X184141122Y-97701901D01*
X183975148Y-97758403D01*
X183914503Y-97795712D01*
X183831823Y-97846577D01*
X183831820Y-97846579D01*
X183825816Y-97850273D01*
X183820781Y-97855204D01*
X183820778Y-97855206D01*
X183767980Y-97906910D01*
X183700549Y-97972944D01*
X183605572Y-98120319D01*
X183603163Y-98126939D01*
X183603161Y-98126942D01*
X183548145Y-98278098D01*
X183545606Y-98285074D01*
X183544723Y-98292062D01*
X183544723Y-98292063D01*
X183543372Y-98302761D01*
X183523632Y-98459020D01*
X183540741Y-98633511D01*
X183549813Y-98660783D01*
X183570155Y-98721933D01*
X183572678Y-98792885D01*
X183536441Y-98853937D01*
X183472949Y-98885707D01*
X183441260Y-98887359D01*
X183432876Y-98886736D01*
X183422827Y-98885582D01*
X183409456Y-98883500D01*
X183394014Y-98883500D01*
X183384676Y-98883154D01*
X183362432Y-98881501D01*
X183335196Y-98879477D01*
X183326422Y-98881350D01*
X183317941Y-98881928D01*
X183303050Y-98883500D01*
X179090765Y-98883500D01*
X179022644Y-98863498D01*
X179001363Y-98846287D01*
X178912789Y-98757094D01*
X178906846Y-98753322D01*
X178906843Y-98753320D01*
X178818979Y-98697560D01*
X178764755Y-98663148D01*
X178737570Y-98653468D01*
X178606220Y-98606696D01*
X178606215Y-98606695D01*
X178599585Y-98604334D01*
X178592597Y-98603501D01*
X178592594Y-98603500D01*
X178472307Y-98589157D01*
X178425490Y-98583574D01*
X178418487Y-98584310D01*
X178418486Y-98584310D01*
X178258122Y-98601165D01*
X178258120Y-98601166D01*
X178251122Y-98601901D01*
X178188104Y-98623354D01*
X178117174Y-98626372D01*
X178055870Y-98590562D01*
X178023658Y-98527294D01*
X178021827Y-98507589D01*
X178021819Y-98507590D01*
X178021794Y-98507239D01*
X178021500Y-98504076D01*
X178021500Y-98498634D01*
X178020025Y-98488333D01*
X178018995Y-98478279D01*
X178016632Y-98440194D01*
X178016076Y-98431232D01*
X178013026Y-98422785D01*
X178012384Y-98419683D01*
X178008299Y-98403298D01*
X178007412Y-98400265D01*
X178006140Y-98391381D01*
X177986628Y-98348466D01*
X177982815Y-98339098D01*
X177969859Y-98303208D01*
X177969858Y-98303207D01*
X177966812Y-98294768D01*
X177961521Y-98287525D01*
X177960055Y-98284768D01*
X177951494Y-98270118D01*
X177949804Y-98267476D01*
X177946090Y-98259307D01*
X177940231Y-98252507D01*
X177940229Y-98252504D01*
X177915318Y-98223593D01*
X177909040Y-98215688D01*
X177901049Y-98204750D01*
X177890131Y-98193832D01*
X177883773Y-98186985D01*
X177851384Y-98149396D01*
X177843849Y-98144512D01*
X177837433Y-98138915D01*
X177825808Y-98129509D01*
X177138247Y-97441948D01*
X177130666Y-97432461D01*
X177130292Y-97432779D01*
X177124477Y-97425946D01*
X177119685Y-97418352D01*
X177079515Y-97382876D01*
X177073829Y-97377530D01*
X177062435Y-97366136D01*
X177054100Y-97359889D01*
X177046272Y-97353516D01*
X177017666Y-97328252D01*
X177010939Y-97322311D01*
X177002812Y-97318495D01*
X177000178Y-97316765D01*
X176985681Y-97308054D01*
X176982915Y-97306540D01*
X176975734Y-97301158D01*
X176951774Y-97292176D01*
X176931601Y-97284613D01*
X176922282Y-97280686D01*
X176909411Y-97274643D01*
X176879609Y-97260651D01*
X176870739Y-97259270D01*
X176867714Y-97258345D01*
X176851385Y-97254062D01*
X176848292Y-97253382D01*
X176839882Y-97250229D01*
X176792875Y-97246736D01*
X176782827Y-97245582D01*
X176769456Y-97243500D01*
X176754014Y-97243500D01*
X176744678Y-97243154D01*
X176735680Y-97242485D01*
X176719521Y-97241285D01*
X176653071Y-97216290D01*
X176610681Y-97159337D01*
X176605812Y-97088508D01*
X176639763Y-97026536D01*
X178638052Y-95028247D01*
X178647539Y-95020666D01*
X178647221Y-95020292D01*
X178654054Y-95014477D01*
X178661648Y-95009685D01*
X178697124Y-94969515D01*
X178702470Y-94963829D01*
X178713864Y-94952435D01*
X178720103Y-94944110D01*
X178726487Y-94936268D01*
X178751747Y-94907667D01*
X178757689Y-94900939D01*
X178761503Y-94892815D01*
X178763237Y-94890176D01*
X178771936Y-94875700D01*
X178773460Y-94872916D01*
X178778842Y-94865735D01*
X178795395Y-94821580D01*
X178799310Y-94812290D01*
X178808346Y-94793044D01*
X178855403Y-94739884D01*
X178869148Y-94732402D01*
X178943110Y-94697913D01*
X178943121Y-94697907D01*
X178948102Y-94695584D01*
X178995867Y-94662139D01*
X179020048Y-94645207D01*
X179087322Y-94622519D01*
X179156183Y-94639804D01*
X179204767Y-94691574D01*
X179217973Y-94757757D01*
X179215826Y-94786652D01*
X179214477Y-94804804D01*
X179216350Y-94813578D01*
X179216928Y-94822059D01*
X179218500Y-94836950D01*
X179218500Y-94874161D01*
X179198498Y-94942282D01*
X179180657Y-94964185D01*
X179134194Y-95009685D01*
X179115549Y-95027944D01*
X179020572Y-95175319D01*
X179018163Y-95181939D01*
X179018161Y-95181942D01*
X178963015Y-95333455D01*
X178960606Y-95340074D01*
X178959723Y-95347062D01*
X178959723Y-95347063D01*
X178958372Y-95357761D01*
X178938632Y-95514020D01*
X178955741Y-95688511D01*
X179011083Y-95854876D01*
X179014730Y-95860898D01*
X179014731Y-95860900D01*
X179033871Y-95892503D01*
X179101908Y-96004846D01*
X179106797Y-96009909D01*
X179106798Y-96009910D01*
X179182749Y-96088559D01*
X179223701Y-96130966D01*
X179229593Y-96134821D01*
X179229597Y-96134825D01*
X179314457Y-96190355D01*
X179370410Y-96226970D01*
X179377014Y-96229426D01*
X179528140Y-96285629D01*
X179528142Y-96285629D01*
X179534742Y-96288084D01*
X179541725Y-96289016D01*
X179541726Y-96289016D01*
X179701549Y-96310342D01*
X179701553Y-96310342D01*
X179708530Y-96311273D01*
X179715541Y-96310635D01*
X179715545Y-96310635D01*
X179722522Y-96310000D01*
X185963796Y-96310000D01*
X185982577Y-96524665D01*
X185984001Y-96529978D01*
X185984001Y-96529980D01*
X186024285Y-96680321D01*
X186038348Y-96732807D01*
X186040670Y-96737787D01*
X186040671Y-96737789D01*
X186127090Y-96923115D01*
X186127093Y-96923120D01*
X186129416Y-96928102D01*
X186132572Y-96932609D01*
X186132573Y-96932611D01*
X186176982Y-96996033D01*
X186253013Y-97104617D01*
X186405383Y-97256987D01*
X186409891Y-97260144D01*
X186409894Y-97260146D01*
X186561264Y-97366136D01*
X186581898Y-97380584D01*
X186586880Y-97382907D01*
X186586885Y-97382910D01*
X186613907Y-97395510D01*
X186667192Y-97442427D01*
X186686653Y-97510704D01*
X186666111Y-97578664D01*
X186618837Y-97621468D01*
X186478466Y-97694540D01*
X186469734Y-97700039D01*
X186449677Y-97715099D01*
X186441223Y-97726427D01*
X186447968Y-97738758D01*
X187187188Y-98477978D01*
X187201132Y-98485592D01*
X187202965Y-98485461D01*
X187209580Y-98481210D01*
X187953389Y-97737401D01*
X187960410Y-97724544D01*
X187953611Y-97715213D01*
X187949563Y-97712524D01*
X187780364Y-97619121D01*
X187730394Y-97568688D01*
X187715622Y-97499245D01*
X187740738Y-97432840D01*
X187788008Y-97394617D01*
X187813115Y-97382910D01*
X187813120Y-97382907D01*
X187818102Y-97380584D01*
X187838736Y-97366136D01*
X187990106Y-97260146D01*
X187990109Y-97260144D01*
X187994617Y-97256987D01*
X188146987Y-97104617D01*
X188223019Y-96996033D01*
X188267427Y-96932611D01*
X188267428Y-96932609D01*
X188270584Y-96928102D01*
X188272907Y-96923120D01*
X188272910Y-96923115D01*
X188359329Y-96737789D01*
X188359330Y-96737787D01*
X188361652Y-96732807D01*
X188375716Y-96680321D01*
X188415999Y-96529980D01*
X188415999Y-96529978D01*
X188417423Y-96524665D01*
X188436204Y-96310000D01*
X188417423Y-96095335D01*
X188361652Y-95887193D01*
X188357315Y-95877892D01*
X188272910Y-95696885D01*
X188272907Y-95696880D01*
X188270584Y-95691898D01*
X188263305Y-95681502D01*
X188150146Y-95519894D01*
X188150144Y-95519891D01*
X188146987Y-95515383D01*
X187994617Y-95363013D01*
X187990109Y-95359856D01*
X187990106Y-95359854D01*
X187822611Y-95242573D01*
X187822609Y-95242572D01*
X187818102Y-95239416D01*
X187813120Y-95237093D01*
X187813115Y-95237090D01*
X187627789Y-95150671D01*
X187627787Y-95150670D01*
X187622807Y-95148348D01*
X187617499Y-95146926D01*
X187617497Y-95146925D01*
X187419980Y-95094001D01*
X187419978Y-95094001D01*
X187414665Y-95092577D01*
X187200000Y-95073796D01*
X186985335Y-95092577D01*
X186980022Y-95094001D01*
X186980020Y-95094001D01*
X186782503Y-95146925D01*
X186782501Y-95146926D01*
X186777193Y-95148348D01*
X186772213Y-95150670D01*
X186772211Y-95150671D01*
X186586885Y-95237090D01*
X186586880Y-95237093D01*
X186581898Y-95239416D01*
X186577391Y-95242572D01*
X186577389Y-95242573D01*
X186409894Y-95359854D01*
X186409891Y-95359856D01*
X186405383Y-95363013D01*
X186253013Y-95515383D01*
X186249856Y-95519891D01*
X186249854Y-95519894D01*
X186136695Y-95681502D01*
X186129416Y-95691898D01*
X186127093Y-95696880D01*
X186127090Y-95696885D01*
X186042685Y-95877892D01*
X186038348Y-95887193D01*
X185982577Y-96095335D01*
X185963796Y-96310000D01*
X179722522Y-96310000D01*
X179853105Y-96298115D01*
X179883137Y-96295382D01*
X179889839Y-96293204D01*
X179889841Y-96293204D01*
X180043185Y-96243380D01*
X180043188Y-96243379D01*
X180049884Y-96241203D01*
X180200484Y-96151427D01*
X180205578Y-96146576D01*
X180205582Y-96146573D01*
X180274833Y-96080625D01*
X180327452Y-96030517D01*
X180424477Y-95884482D01*
X180486737Y-95720581D01*
X180511138Y-95546959D01*
X180511445Y-95525000D01*
X180491901Y-95350764D01*
X180488179Y-95340074D01*
X180436557Y-95191835D01*
X180436556Y-95191833D01*
X180434242Y-95185188D01*
X180430511Y-95179217D01*
X180345062Y-95042470D01*
X180345061Y-95042469D01*
X180341332Y-95036501D01*
X180336784Y-95031921D01*
X180310234Y-94966323D01*
X180323406Y-94896559D01*
X180346522Y-94864777D01*
X180377972Y-94833327D01*
X180440284Y-94799301D01*
X180499677Y-94800715D01*
X180559932Y-94816860D01*
X180650020Y-94840999D01*
X180650022Y-94840999D01*
X180655335Y-94842423D01*
X180870000Y-94861204D01*
X181084665Y-94842423D01*
X181089978Y-94840999D01*
X181089980Y-94840999D01*
X181287497Y-94788075D01*
X181287499Y-94788074D01*
X181292807Y-94786652D01*
X181329356Y-94769609D01*
X181483115Y-94697910D01*
X181483120Y-94697907D01*
X181488102Y-94695584D01*
X181493829Y-94691574D01*
X181660106Y-94575146D01*
X181660109Y-94575144D01*
X181664617Y-94571987D01*
X181816987Y-94419617D01*
X181850534Y-94371708D01*
X181937427Y-94247611D01*
X181937428Y-94247609D01*
X181940584Y-94243102D01*
X181942907Y-94238120D01*
X181942910Y-94238115D01*
X182025805Y-94060346D01*
X182072723Y-94007061D01*
X182141000Y-93987600D01*
X182208960Y-94008142D01*
X182254195Y-94060346D01*
X182337090Y-94238115D01*
X182337093Y-94238120D01*
X182339416Y-94243102D01*
X182342572Y-94247609D01*
X182342573Y-94247611D01*
X182429467Y-94371708D01*
X182463013Y-94419617D01*
X182615383Y-94571987D01*
X182619891Y-94575144D01*
X182619894Y-94575146D01*
X182786171Y-94691574D01*
X182791898Y-94695584D01*
X182796880Y-94697907D01*
X182796885Y-94697910D01*
X182950644Y-94769609D01*
X182987193Y-94786652D01*
X182992501Y-94788074D01*
X182992503Y-94788075D01*
X183190020Y-94840999D01*
X183190022Y-94840999D01*
X183195335Y-94842423D01*
X183410000Y-94861204D01*
X183624665Y-94842423D01*
X183629978Y-94840999D01*
X183629980Y-94840999D01*
X183827497Y-94788075D01*
X183827499Y-94788074D01*
X183832807Y-94786652D01*
X183869356Y-94769609D01*
X184023115Y-94697910D01*
X184023120Y-94697907D01*
X184028102Y-94695584D01*
X184033829Y-94691574D01*
X184200106Y-94575146D01*
X184200109Y-94575144D01*
X184204617Y-94571987D01*
X184356987Y-94419617D01*
X184390534Y-94371708D01*
X184477427Y-94247611D01*
X184477428Y-94247609D01*
X184480584Y-94243102D01*
X184482907Y-94238120D01*
X184482910Y-94238115D01*
X184565805Y-94060346D01*
X184612723Y-94007061D01*
X184681000Y-93987600D01*
X184748960Y-94008142D01*
X184794195Y-94060346D01*
X184877090Y-94238115D01*
X184877093Y-94238120D01*
X184879416Y-94243102D01*
X184882572Y-94247609D01*
X184882573Y-94247611D01*
X184969467Y-94371708D01*
X185003013Y-94419617D01*
X185155383Y-94571987D01*
X185159891Y-94575144D01*
X185159894Y-94575146D01*
X185326171Y-94691574D01*
X185331898Y-94695584D01*
X185336880Y-94697907D01*
X185336885Y-94697910D01*
X185490644Y-94769609D01*
X185527193Y-94786652D01*
X185532501Y-94788074D01*
X185532503Y-94788075D01*
X185730020Y-94840999D01*
X185730022Y-94840999D01*
X185735335Y-94842423D01*
X185950000Y-94861204D01*
X186164665Y-94842423D01*
X186169978Y-94840999D01*
X186169980Y-94840999D01*
X186367497Y-94788075D01*
X186367499Y-94788074D01*
X186372807Y-94786652D01*
X186409356Y-94769609D01*
X186563115Y-94697910D01*
X186563120Y-94697907D01*
X186568102Y-94695584D01*
X186573829Y-94691574D01*
X186740106Y-94575146D01*
X186740109Y-94575144D01*
X186744617Y-94571987D01*
X186896987Y-94419617D01*
X186930534Y-94371708D01*
X187017427Y-94247611D01*
X187017428Y-94247609D01*
X187020584Y-94243102D01*
X187022907Y-94238120D01*
X187022910Y-94238115D01*
X187109329Y-94052789D01*
X187109330Y-94052787D01*
X187111652Y-94047807D01*
X187152030Y-93897115D01*
X187165999Y-93844980D01*
X187165999Y-93844978D01*
X187167423Y-93839665D01*
X187186204Y-93625000D01*
X187167423Y-93410335D01*
X187156113Y-93368124D01*
X187113075Y-93207503D01*
X187113074Y-93207501D01*
X187111652Y-93202193D01*
X187020584Y-93006898D01*
X187021171Y-93006624D01*
X187005371Y-92941512D01*
X187028588Y-92874418D01*
X187084393Y-92830528D01*
X187131229Y-92821500D01*
X192592500Y-92821500D01*
X192660621Y-92841502D01*
G37*
%TD.AperFunction*%
%TA.AperFunction,Conductor*%
G36*
X176336132Y-98746502D02*
G01*
X176357106Y-98763405D01*
X176516595Y-98922894D01*
X176550621Y-98985206D01*
X176553500Y-99011989D01*
X176553500Y-99679157D01*
X176552152Y-99691221D01*
X176552642Y-99691260D01*
X176551922Y-99700206D01*
X176549941Y-99708962D01*
X176550497Y-99717922D01*
X176553258Y-99762432D01*
X176553500Y-99770233D01*
X176553500Y-99786366D01*
X176554136Y-99790807D01*
X176554136Y-99790809D01*
X176554976Y-99796677D01*
X176556005Y-99806726D01*
X176558924Y-99853768D01*
X176561974Y-99862215D01*
X176562616Y-99865317D01*
X176566701Y-99881702D01*
X176567588Y-99884735D01*
X176568860Y-99893619D01*
X176572574Y-99901786D01*
X176572574Y-99901788D01*
X176588372Y-99936533D01*
X176592185Y-99945902D01*
X176601976Y-99973023D01*
X176608188Y-99990232D01*
X176613479Y-99997475D01*
X176614945Y-100000232D01*
X176623506Y-100014882D01*
X176625196Y-100017524D01*
X176628910Y-100025693D01*
X176634769Y-100032493D01*
X176634771Y-100032496D01*
X176659682Y-100061407D01*
X176665960Y-100069312D01*
X176673951Y-100080250D01*
X176684869Y-100091168D01*
X176691227Y-100098015D01*
X176723616Y-100135604D01*
X176731151Y-100140488D01*
X176737567Y-100146085D01*
X176749192Y-100155491D01*
X177521753Y-100928052D01*
X177529334Y-100937539D01*
X177529708Y-100937221D01*
X177535523Y-100944054D01*
X177540315Y-100951648D01*
X177563929Y-100972503D01*
X177580484Y-100987124D01*
X177586171Y-100992470D01*
X177597565Y-101003864D01*
X177605887Y-101010101D01*
X177613725Y-101016482D01*
X177642332Y-101041747D01*
X177642335Y-101041749D01*
X177649061Y-101047689D01*
X177657189Y-101051505D01*
X177659835Y-101053243D01*
X177674325Y-101061950D01*
X177677084Y-101063460D01*
X177684266Y-101068843D01*
X177728422Y-101085396D01*
X177737708Y-101089309D01*
X177780391Y-101109349D01*
X177789264Y-101110731D01*
X177792291Y-101111656D01*
X177808635Y-101115944D01*
X177811717Y-101116622D01*
X177820118Y-101119771D01*
X177829064Y-101120436D01*
X177829065Y-101120436D01*
X177867124Y-101123264D01*
X177877173Y-101124418D01*
X177890544Y-101126500D01*
X177905986Y-101126500D01*
X177915324Y-101126846D01*
X177964804Y-101130523D01*
X177973578Y-101128650D01*
X177982059Y-101128072D01*
X177996950Y-101126500D01*
X178532706Y-101126500D01*
X178600827Y-101146502D01*
X178647320Y-101200158D01*
X178657424Y-101270432D01*
X178627930Y-101335012D01*
X178621801Y-101341595D01*
X178533013Y-101430383D01*
X178529856Y-101434891D01*
X178529854Y-101434894D01*
X178412827Y-101602026D01*
X178409416Y-101606898D01*
X178407093Y-101611880D01*
X178407090Y-101611885D01*
X178324195Y-101789654D01*
X178318348Y-101802193D01*
X178316927Y-101807497D01*
X178316925Y-101807503D01*
X178264001Y-102005020D01*
X178262577Y-102010335D01*
X178243796Y-102225000D01*
X178262577Y-102439665D01*
X178264001Y-102444978D01*
X178264001Y-102444980D01*
X178313890Y-102631168D01*
X178318348Y-102647807D01*
X178320670Y-102652787D01*
X178320671Y-102652789D01*
X178407090Y-102838115D01*
X178407093Y-102838120D01*
X178409416Y-102843102D01*
X178412572Y-102847609D01*
X178412573Y-102847611D01*
X178529046Y-103013951D01*
X178533013Y-103019617D01*
X178685383Y-103171987D01*
X178689891Y-103175144D01*
X178689894Y-103175146D01*
X178853146Y-103289456D01*
X178861898Y-103295584D01*
X178866880Y-103297907D01*
X178866885Y-103297910D01*
X179041238Y-103379212D01*
X179057193Y-103386652D01*
X179062501Y-103388074D01*
X179062503Y-103388075D01*
X179260020Y-103440999D01*
X179260022Y-103440999D01*
X179265335Y-103442423D01*
X179480000Y-103461204D01*
X179694665Y-103442423D01*
X179699978Y-103440999D01*
X179699980Y-103440999D01*
X179897497Y-103388075D01*
X179897499Y-103388074D01*
X179902807Y-103386652D01*
X179918762Y-103379212D01*
X180093115Y-103297910D01*
X180093120Y-103297907D01*
X180098102Y-103295584D01*
X180106854Y-103289456D01*
X180270106Y-103175146D01*
X180270109Y-103175144D01*
X180274617Y-103171987D01*
X180426987Y-103019617D01*
X180430955Y-103013951D01*
X180547427Y-102847611D01*
X180547428Y-102847609D01*
X180550584Y-102843102D01*
X180552907Y-102838120D01*
X180552910Y-102838115D01*
X180635805Y-102660346D01*
X180682723Y-102607061D01*
X180751000Y-102587600D01*
X180818960Y-102608142D01*
X180864195Y-102660346D01*
X180947090Y-102838115D01*
X180947093Y-102838120D01*
X180949416Y-102843102D01*
X180952572Y-102847609D01*
X180952573Y-102847611D01*
X181069046Y-103013951D01*
X181073013Y-103019617D01*
X181225383Y-103171987D01*
X181229891Y-103175144D01*
X181229894Y-103175146D01*
X181393146Y-103289456D01*
X181401898Y-103295584D01*
X181406880Y-103297907D01*
X181406885Y-103297910D01*
X181581238Y-103379212D01*
X181597193Y-103386652D01*
X181602501Y-103388074D01*
X181602503Y-103388075D01*
X181705860Y-103415769D01*
X181766483Y-103452721D01*
X181797504Y-103516581D01*
X181798255Y-103553265D01*
X181783632Y-103669020D01*
X181800741Y-103843511D01*
X181856083Y-104009876D01*
X181859730Y-104015898D01*
X181859731Y-104015900D01*
X181919432Y-104114477D01*
X181946908Y-104159846D01*
X181951797Y-104164909D01*
X181951798Y-104164910D01*
X182012104Y-104227358D01*
X182068701Y-104285966D01*
X182074593Y-104289821D01*
X182074597Y-104289825D01*
X182154750Y-104342275D01*
X182215410Y-104381970D01*
X182222014Y-104384426D01*
X182373140Y-104440629D01*
X182373142Y-104440629D01*
X182379742Y-104443084D01*
X182386725Y-104444016D01*
X182386726Y-104444016D01*
X182546549Y-104465342D01*
X182546553Y-104465342D01*
X182553530Y-104466273D01*
X182560541Y-104465635D01*
X182560545Y-104465635D01*
X182698105Y-104453115D01*
X182728137Y-104450382D01*
X182734839Y-104448204D01*
X182734841Y-104448204D01*
X182888185Y-104398380D01*
X182888188Y-104398379D01*
X182894884Y-104396203D01*
X183045484Y-104306427D01*
X183092677Y-104261486D01*
X183134925Y-104221254D01*
X183198050Y-104188762D01*
X183221817Y-104186500D01*
X183590032Y-104186500D01*
X183635185Y-104198202D01*
X183636224Y-104195480D01*
X183644607Y-104198681D01*
X183652454Y-104203040D01*
X183657172Y-104204107D01*
X183712017Y-104245836D01*
X183736308Y-104312547D01*
X183720676Y-104381802D01*
X183713777Y-104392825D01*
X183679416Y-104441898D01*
X183677093Y-104446880D01*
X183677090Y-104446885D01*
X183593297Y-104626579D01*
X183588348Y-104637193D01*
X183586926Y-104642501D01*
X183586925Y-104642503D01*
X183534001Y-104840020D01*
X183532577Y-104845335D01*
X183513796Y-105060000D01*
X183532577Y-105274665D01*
X183534001Y-105279978D01*
X183534001Y-105279980D01*
X183583299Y-105463962D01*
X183588348Y-105482807D01*
X183590670Y-105487787D01*
X183590671Y-105487789D01*
X183677090Y-105673115D01*
X183677093Y-105673120D01*
X183679416Y-105678102D01*
X183682572Y-105682609D01*
X183682573Y-105682611D01*
X183702054Y-105710432D01*
X183803013Y-105854617D01*
X183955383Y-106006987D01*
X183959891Y-106010144D01*
X183959894Y-106010146D01*
X184061903Y-106081573D01*
X184131898Y-106130584D01*
X184136880Y-106132907D01*
X184136885Y-106132910D01*
X184314654Y-106215805D01*
X184367939Y-106262723D01*
X184387400Y-106331000D01*
X184366858Y-106398960D01*
X184314654Y-106444195D01*
X184136885Y-106527090D01*
X184136880Y-106527093D01*
X184131898Y-106529416D01*
X184127391Y-106532572D01*
X184127389Y-106532573D01*
X183959894Y-106649854D01*
X183959891Y-106649856D01*
X183955383Y-106653013D01*
X183803013Y-106805383D01*
X183799856Y-106809891D01*
X183799854Y-106809894D01*
X183697862Y-106955554D01*
X183679416Y-106981898D01*
X183677093Y-106986880D01*
X183677090Y-106986885D01*
X183602753Y-107146301D01*
X183588348Y-107177193D01*
X183532577Y-107385335D01*
X183513796Y-107600000D01*
X183532577Y-107814665D01*
X183534001Y-107819978D01*
X183534001Y-107819980D01*
X183577768Y-107983320D01*
X183588348Y-108022807D01*
X183590670Y-108027787D01*
X183590671Y-108027789D01*
X183677090Y-108213115D01*
X183677093Y-108213120D01*
X183679416Y-108218102D01*
X183682572Y-108222609D01*
X183682573Y-108222611D01*
X183797467Y-108386696D01*
X183803013Y-108394617D01*
X183955383Y-108546987D01*
X183959891Y-108550144D01*
X183959894Y-108550146D01*
X184127389Y-108667427D01*
X184131898Y-108670584D01*
X184136880Y-108672907D01*
X184136885Y-108672910D01*
X184315647Y-108756268D01*
X184327193Y-108761652D01*
X184332501Y-108763074D01*
X184332503Y-108763075D01*
X184530020Y-108815999D01*
X184530022Y-108815999D01*
X184535335Y-108817423D01*
X184750000Y-108836204D01*
X184964665Y-108817423D01*
X184969978Y-108815999D01*
X184969980Y-108815999D01*
X185167497Y-108763075D01*
X185167499Y-108763074D01*
X185172807Y-108761652D01*
X185184353Y-108756268D01*
X185363115Y-108672910D01*
X185363120Y-108672907D01*
X185368102Y-108670584D01*
X185372611Y-108667427D01*
X185540106Y-108550146D01*
X185540109Y-108550144D01*
X185544617Y-108546987D01*
X185696987Y-108394617D01*
X185702534Y-108386696D01*
X185817427Y-108222611D01*
X185817428Y-108222609D01*
X185820584Y-108218102D01*
X185822907Y-108213120D01*
X185822910Y-108213115D01*
X185838701Y-108179250D01*
X185885618Y-108125965D01*
X185952896Y-108106500D01*
X186087210Y-108106500D01*
X186155331Y-108126502D01*
X186201824Y-108180158D01*
X186211928Y-108250432D01*
X186190423Y-108304771D01*
X186151620Y-108360188D01*
X186129416Y-108391898D01*
X186127093Y-108396880D01*
X186127090Y-108396885D01*
X186040671Y-108582211D01*
X186038348Y-108587193D01*
X186036926Y-108592501D01*
X186036925Y-108592503D01*
X185984048Y-108789846D01*
X185982577Y-108795335D01*
X185963796Y-109010000D01*
X185982577Y-109224665D01*
X185984001Y-109229978D01*
X185984001Y-109229980D01*
X186021793Y-109371021D01*
X186038348Y-109432807D01*
X186040670Y-109437787D01*
X186040671Y-109437789D01*
X186127090Y-109623115D01*
X186127093Y-109623120D01*
X186129416Y-109628102D01*
X186132572Y-109632609D01*
X186132573Y-109632611D01*
X186235917Y-109780201D01*
X186253013Y-109804617D01*
X186405383Y-109956987D01*
X186409891Y-109960144D01*
X186409894Y-109960146D01*
X186577389Y-110077427D01*
X186581898Y-110080584D01*
X186586880Y-110082907D01*
X186586885Y-110082910D01*
X186764654Y-110165805D01*
X186817939Y-110212723D01*
X186837400Y-110281000D01*
X186816858Y-110348960D01*
X186764654Y-110394195D01*
X186586885Y-110477090D01*
X186586880Y-110477093D01*
X186581898Y-110479416D01*
X186577391Y-110482572D01*
X186577389Y-110482573D01*
X186409894Y-110599854D01*
X186409891Y-110599856D01*
X186405383Y-110603013D01*
X186253013Y-110755383D01*
X186129416Y-110931898D01*
X186127093Y-110936880D01*
X186127090Y-110936885D01*
X186045518Y-111111817D01*
X186038348Y-111127193D01*
X185982577Y-111335335D01*
X185963796Y-111550000D01*
X185982577Y-111764665D01*
X185984001Y-111769978D01*
X185984001Y-111769980D01*
X186024839Y-111922389D01*
X186038348Y-111972807D01*
X186040670Y-111977787D01*
X186040671Y-111977789D01*
X186127090Y-112163115D01*
X186127093Y-112163120D01*
X186129416Y-112168102D01*
X186132572Y-112172609D01*
X186132573Y-112172611D01*
X186246850Y-112335815D01*
X186253013Y-112344617D01*
X186405383Y-112496987D01*
X186409891Y-112500144D01*
X186409894Y-112500146D01*
X186577389Y-112617427D01*
X186581898Y-112620584D01*
X186586880Y-112622907D01*
X186586885Y-112622910D01*
X186764654Y-112705805D01*
X186817939Y-112752723D01*
X186837400Y-112821000D01*
X186816858Y-112888960D01*
X186764654Y-112934195D01*
X186586885Y-113017090D01*
X186586880Y-113017093D01*
X186581898Y-113019416D01*
X186577391Y-113022572D01*
X186577389Y-113022573D01*
X186409894Y-113139854D01*
X186409891Y-113139856D01*
X186405383Y-113143013D01*
X186253013Y-113295383D01*
X186249856Y-113299891D01*
X186249854Y-113299894D01*
X186222040Y-113339617D01*
X186129416Y-113471898D01*
X186127093Y-113476880D01*
X186127090Y-113476885D01*
X186048702Y-113644988D01*
X186038348Y-113667193D01*
X186036926Y-113672501D01*
X186036925Y-113672503D01*
X185984314Y-113868853D01*
X185982577Y-113875335D01*
X185963796Y-114090000D01*
X185982577Y-114304665D01*
X185984001Y-114309978D01*
X185984001Y-114309980D01*
X186033663Y-114495321D01*
X186038348Y-114512807D01*
X186040670Y-114517787D01*
X186040671Y-114517789D01*
X186127090Y-114703115D01*
X186127093Y-114703120D01*
X186129416Y-114708102D01*
X186132572Y-114712609D01*
X186132573Y-114712611D01*
X186225199Y-114844894D01*
X186253013Y-114884617D01*
X186405383Y-115036987D01*
X186409891Y-115040144D01*
X186409894Y-115040146D01*
X186577389Y-115157427D01*
X186581898Y-115160584D01*
X186586880Y-115162907D01*
X186586885Y-115162910D01*
X186764654Y-115245805D01*
X186817939Y-115292723D01*
X186837400Y-115361000D01*
X186816858Y-115428960D01*
X186764654Y-115474195D01*
X186586885Y-115557090D01*
X186586880Y-115557093D01*
X186581898Y-115559416D01*
X186577391Y-115562572D01*
X186577389Y-115562573D01*
X186409894Y-115679854D01*
X186409891Y-115679856D01*
X186405383Y-115683013D01*
X186253013Y-115835383D01*
X186249853Y-115839897D01*
X186248195Y-115841872D01*
X186189085Y-115881199D01*
X186118097Y-115882325D01*
X186057770Y-115844894D01*
X186027256Y-115780789D01*
X186026152Y-115749900D01*
X186035725Y-115640476D01*
X186035725Y-115640475D01*
X186036204Y-115635000D01*
X186017423Y-115420335D01*
X186010312Y-115393796D01*
X185963075Y-115217503D01*
X185963074Y-115217501D01*
X185961652Y-115212193D01*
X185947908Y-115182718D01*
X185872910Y-115021885D01*
X185872907Y-115021880D01*
X185870584Y-115016898D01*
X185853181Y-114992044D01*
X185750146Y-114844894D01*
X185750144Y-114844891D01*
X185746987Y-114840383D01*
X185594617Y-114688013D01*
X185590109Y-114684856D01*
X185590106Y-114684854D01*
X185422611Y-114567573D01*
X185422609Y-114567572D01*
X185418102Y-114564416D01*
X185413120Y-114562093D01*
X185413115Y-114562090D01*
X185227789Y-114475671D01*
X185227787Y-114475670D01*
X185222807Y-114473348D01*
X185217499Y-114471926D01*
X185217497Y-114471925D01*
X185019980Y-114419001D01*
X185019978Y-114419001D01*
X185014665Y-114417577D01*
X184800000Y-114398796D01*
X184585335Y-114417577D01*
X184580022Y-114419001D01*
X184580020Y-114419001D01*
X184382503Y-114471925D01*
X184382501Y-114471926D01*
X184377193Y-114473348D01*
X184372213Y-114475670D01*
X184372211Y-114475671D01*
X184186885Y-114562090D01*
X184186880Y-114562093D01*
X184181898Y-114564416D01*
X184177391Y-114567572D01*
X184177389Y-114567573D01*
X184009894Y-114684854D01*
X184009891Y-114684856D01*
X184005383Y-114688013D01*
X183853013Y-114840383D01*
X183849856Y-114844891D01*
X183849854Y-114844894D01*
X183746819Y-114992044D01*
X183729416Y-115016898D01*
X183727093Y-115021880D01*
X183727090Y-115021885D01*
X183652092Y-115182718D01*
X183638348Y-115212193D01*
X183636926Y-115217501D01*
X183636925Y-115217503D01*
X183589688Y-115393796D01*
X183582577Y-115420335D01*
X183563796Y-115635000D01*
X183582577Y-115849665D01*
X183584001Y-115854978D01*
X183584001Y-115854980D01*
X183635050Y-116045497D01*
X183638348Y-116057807D01*
X183640670Y-116062787D01*
X183640671Y-116062789D01*
X183727090Y-116248115D01*
X183727093Y-116248120D01*
X183729416Y-116253102D01*
X183732572Y-116257609D01*
X183732573Y-116257611D01*
X183846850Y-116420815D01*
X183853013Y-116429617D01*
X184005383Y-116581987D01*
X184009891Y-116585144D01*
X184009894Y-116585146D01*
X184177389Y-116702427D01*
X184181898Y-116705584D01*
X184186880Y-116707907D01*
X184186885Y-116707910D01*
X184364654Y-116790805D01*
X184417939Y-116837723D01*
X184437400Y-116906000D01*
X184416858Y-116973960D01*
X184364654Y-117019195D01*
X184186885Y-117102090D01*
X184186880Y-117102093D01*
X184181898Y-117104416D01*
X184177391Y-117107572D01*
X184177389Y-117107573D01*
X184009894Y-117224854D01*
X184009891Y-117224856D01*
X184005383Y-117228013D01*
X183853013Y-117380383D01*
X183849856Y-117384891D01*
X183849854Y-117384894D01*
X183733617Y-117550898D01*
X183729416Y-117556898D01*
X183727093Y-117561880D01*
X183727090Y-117561885D01*
X183640671Y-117747211D01*
X183638348Y-117752193D01*
X183636926Y-117757501D01*
X183636925Y-117757503D01*
X183589688Y-117933796D01*
X183582577Y-117960335D01*
X183563796Y-118175000D01*
X183582577Y-118389665D01*
X183584001Y-118394978D01*
X183584001Y-118394980D01*
X183624839Y-118547389D01*
X183638348Y-118597807D01*
X183640670Y-118602787D01*
X183640671Y-118602789D01*
X183727090Y-118788115D01*
X183727093Y-118788120D01*
X183729416Y-118793102D01*
X183732572Y-118797609D01*
X183732573Y-118797611D01*
X183846850Y-118960815D01*
X183853013Y-118969617D01*
X184005383Y-119121987D01*
X184009891Y-119125144D01*
X184009894Y-119125146D01*
X184137201Y-119214287D01*
X184181529Y-119269744D01*
X184188838Y-119340363D01*
X184156807Y-119403724D01*
X184095606Y-119439709D01*
X184064930Y-119443500D01*
X182211989Y-119443500D01*
X182143868Y-119423498D01*
X182122894Y-119406595D01*
X179773115Y-117056816D01*
X179739089Y-116994504D01*
X179736222Y-116965961D01*
X179736390Y-116953962D01*
X179736390Y-116953956D01*
X179736445Y-116950000D01*
X179716901Y-116775764D01*
X179664235Y-116624524D01*
X179661557Y-116616835D01*
X179661556Y-116616833D01*
X179659242Y-116610188D01*
X179639185Y-116578090D01*
X179570064Y-116467473D01*
X179570063Y-116467471D01*
X179566332Y-116461501D01*
X179538540Y-116433514D01*
X179447754Y-116342094D01*
X179442789Y-116337094D01*
X179414328Y-116319032D01*
X179367530Y-116265645D01*
X179357024Y-116195430D01*
X179386147Y-116130681D01*
X179392747Y-116123552D01*
X179690497Y-115825802D01*
X179752809Y-115791776D01*
X179823624Y-115796841D01*
X179862585Y-115822365D01*
X179863378Y-115821407D01*
X179868808Y-115825900D01*
X179873701Y-115830966D01*
X179879593Y-115834821D01*
X179879597Y-115834825D01*
X179964457Y-115890355D01*
X180020410Y-115926970D01*
X180027014Y-115929426D01*
X180178140Y-115985629D01*
X180178142Y-115985629D01*
X180184742Y-115988084D01*
X180191725Y-115989016D01*
X180191726Y-115989016D01*
X180351549Y-116010342D01*
X180351553Y-116010342D01*
X180358530Y-116011273D01*
X180365541Y-116010635D01*
X180365545Y-116010635D01*
X180503105Y-115998115D01*
X180533137Y-115995382D01*
X180539839Y-115993204D01*
X180539841Y-115993204D01*
X180693185Y-115943380D01*
X180693188Y-115943379D01*
X180699884Y-115941203D01*
X180850484Y-115851427D01*
X180855578Y-115846576D01*
X180855582Y-115846573D01*
X180956960Y-115750031D01*
X180977452Y-115730517D01*
X181074477Y-115584482D01*
X181136737Y-115420581D01*
X181150001Y-115326204D01*
X181160587Y-115250883D01*
X181160588Y-115250875D01*
X181161138Y-115246959D01*
X181161445Y-115225000D01*
X181141901Y-115050764D01*
X181138204Y-115040146D01*
X181086557Y-114891835D01*
X181086556Y-114891833D01*
X181084242Y-114885188D01*
X181027205Y-114793910D01*
X180995064Y-114742473D01*
X180995063Y-114742471D01*
X180991332Y-114736501D01*
X180978843Y-114723924D01*
X180872754Y-114617094D01*
X180867789Y-114612094D01*
X180861846Y-114608322D01*
X180861843Y-114608320D01*
X180780270Y-114556552D01*
X180719755Y-114518148D01*
X180655649Y-114495321D01*
X180561220Y-114461696D01*
X180561215Y-114461695D01*
X180554585Y-114459334D01*
X180547597Y-114458501D01*
X180547594Y-114458500D01*
X180427307Y-114444157D01*
X180380490Y-114438574D01*
X180373487Y-114439310D01*
X180373486Y-114439310D01*
X180213122Y-114456165D01*
X180213120Y-114456166D01*
X180206122Y-114456901D01*
X180040148Y-114513403D01*
X180026296Y-114521925D01*
X179896823Y-114601577D01*
X179896820Y-114601579D01*
X179890816Y-114605273D01*
X179811929Y-114682525D01*
X179749266Y-114715894D01*
X179723773Y-114718500D01*
X179645848Y-114718500D01*
X179633780Y-114717152D01*
X179633741Y-114717641D01*
X179624794Y-114716921D01*
X179616038Y-114714940D01*
X179572503Y-114717641D01*
X179562558Y-114718258D01*
X179554756Y-114718500D01*
X179538634Y-114718500D01*
X179534203Y-114719135D01*
X179534198Y-114719135D01*
X179530093Y-114719723D01*
X179528340Y-114719974D01*
X179518282Y-114721005D01*
X179471232Y-114723924D01*
X179462785Y-114726974D01*
X179459683Y-114727616D01*
X179443298Y-114731701D01*
X179440265Y-114732588D01*
X179431381Y-114733860D01*
X179423214Y-114737574D01*
X179423212Y-114737574D01*
X179388467Y-114753372D01*
X179379099Y-114757185D01*
X179334768Y-114773188D01*
X179327525Y-114778479D01*
X179324768Y-114779945D01*
X179310118Y-114788506D01*
X179307476Y-114790196D01*
X179299307Y-114793910D01*
X179292507Y-114799769D01*
X179292504Y-114799771D01*
X179263593Y-114824682D01*
X179255688Y-114830960D01*
X179244750Y-114838951D01*
X179233832Y-114849869D01*
X179226985Y-114856227D01*
X179189396Y-114888616D01*
X179184512Y-114896151D01*
X179178915Y-114902567D01*
X179169509Y-114914192D01*
X177141948Y-116941753D01*
X177132461Y-116949334D01*
X177132779Y-116949708D01*
X177125946Y-116955523D01*
X177118352Y-116960315D01*
X177088157Y-116994504D01*
X177082876Y-117000484D01*
X177077530Y-117006171D01*
X177066136Y-117017565D01*
X177059889Y-117025900D01*
X177053519Y-117033724D01*
X177022311Y-117069061D01*
X177018495Y-117077188D01*
X177016765Y-117079822D01*
X177008054Y-117094319D01*
X177006540Y-117097085D01*
X177001158Y-117104266D01*
X176998008Y-117112669D01*
X176984613Y-117148399D01*
X176980686Y-117157718D01*
X176960651Y-117200391D01*
X176959270Y-117209261D01*
X176958345Y-117212286D01*
X176954062Y-117228615D01*
X176953382Y-117231708D01*
X176950229Y-117240118D01*
X176949564Y-117249069D01*
X176946736Y-117287124D01*
X176945582Y-117297173D01*
X176943500Y-117310544D01*
X176943500Y-117325986D01*
X176943154Y-117335324D01*
X176939477Y-117384804D01*
X176941350Y-117393578D01*
X176941928Y-117402059D01*
X176943500Y-117416950D01*
X176943500Y-119199161D01*
X176923498Y-119267282D01*
X176905657Y-119289185D01*
X176853396Y-119340363D01*
X176840549Y-119352944D01*
X176745572Y-119500319D01*
X176743163Y-119506939D01*
X176743161Y-119506942D01*
X176711909Y-119592807D01*
X176685606Y-119665074D01*
X176684723Y-119672062D01*
X176684723Y-119672063D01*
X176683372Y-119682761D01*
X176663632Y-119839020D01*
X176680741Y-120013511D01*
X176736083Y-120179876D01*
X176739730Y-120185898D01*
X176739731Y-120185900D01*
X176820765Y-120319702D01*
X176826908Y-120329846D01*
X176831797Y-120334909D01*
X176831798Y-120334910D01*
X176876394Y-120381090D01*
X176948701Y-120455966D01*
X176954593Y-120459821D01*
X176954597Y-120459825D01*
X177027112Y-120507277D01*
X177095410Y-120551970D01*
X177102014Y-120554426D01*
X177253140Y-120610629D01*
X177253142Y-120610629D01*
X177259742Y-120613084D01*
X177266725Y-120614016D01*
X177266726Y-120614016D01*
X177426549Y-120635342D01*
X177426553Y-120635342D01*
X177433530Y-120636273D01*
X177440541Y-120635635D01*
X177440545Y-120635635D01*
X177578105Y-120623115D01*
X177608137Y-120620382D01*
X177614839Y-120618204D01*
X177614841Y-120618204D01*
X177768185Y-120568380D01*
X177768188Y-120568379D01*
X177774884Y-120566203D01*
X177925484Y-120476427D01*
X177930578Y-120471576D01*
X177930582Y-120471573D01*
X178006955Y-120398843D01*
X178052452Y-120355517D01*
X178128813Y-120240584D01*
X178145576Y-120215354D01*
X178145577Y-120215352D01*
X178149477Y-120209482D01*
X178211737Y-120045581D01*
X178236138Y-119871959D01*
X178236445Y-119850000D01*
X178216901Y-119675764D01*
X178213179Y-119665074D01*
X178161557Y-119516835D01*
X178161556Y-119516833D01*
X178159242Y-119510188D01*
X178115202Y-119439709D01*
X178070065Y-119367474D01*
X178070062Y-119367470D01*
X178066332Y-119361501D01*
X178057835Y-119352944D01*
X177993095Y-119287752D01*
X177959287Y-119225321D01*
X177956500Y-119198967D01*
X177956500Y-117611989D01*
X177976502Y-117543868D01*
X177993405Y-117522894D01*
X178122583Y-117393716D01*
X178184895Y-117359690D01*
X178255710Y-117364755D01*
X178312546Y-117407302D01*
X178319452Y-117417536D01*
X178323258Y-117423820D01*
X178323260Y-117423823D01*
X178326908Y-117429846D01*
X178448701Y-117555966D01*
X178454593Y-117559821D01*
X178454597Y-117559825D01*
X178534313Y-117611989D01*
X178595410Y-117651970D01*
X178602014Y-117654426D01*
X178753140Y-117710629D01*
X178753142Y-117710629D01*
X178759742Y-117713084D01*
X178766725Y-117714016D01*
X178766726Y-117714016D01*
X178926549Y-117735342D01*
X178926553Y-117735342D01*
X178933530Y-117736273D01*
X178953988Y-117734411D01*
X179023640Y-117748159D01*
X179054499Y-117770798D01*
X181541753Y-120258052D01*
X181549334Y-120267539D01*
X181549708Y-120267221D01*
X181555523Y-120274054D01*
X181560315Y-120281648D01*
X181587688Y-120305823D01*
X181600484Y-120317124D01*
X181606171Y-120322470D01*
X181617565Y-120333864D01*
X181625887Y-120340101D01*
X181633725Y-120346482D01*
X181662332Y-120371747D01*
X181662335Y-120371749D01*
X181669061Y-120377689D01*
X181677189Y-120381505D01*
X181679835Y-120383243D01*
X181694325Y-120391950D01*
X181697084Y-120393460D01*
X181704266Y-120398843D01*
X181748422Y-120415396D01*
X181757708Y-120419309D01*
X181800391Y-120439349D01*
X181809264Y-120440731D01*
X181812291Y-120441656D01*
X181828635Y-120445944D01*
X181831717Y-120446622D01*
X181840118Y-120449771D01*
X181849064Y-120450436D01*
X181849065Y-120450436D01*
X181887124Y-120453264D01*
X181897173Y-120454418D01*
X181910544Y-120456500D01*
X181925986Y-120456500D01*
X181935324Y-120456846D01*
X181984804Y-120460523D01*
X181993578Y-120458650D01*
X182002059Y-120458072D01*
X182016950Y-120456500D01*
X182739445Y-120456500D01*
X182807566Y-120476502D01*
X182854059Y-120530158D01*
X182864163Y-120600432D01*
X182852303Y-120638527D01*
X182849390Y-120644395D01*
X182845572Y-120650319D01*
X182843164Y-120656935D01*
X182843162Y-120656939D01*
X182803136Y-120766910D01*
X182785606Y-120815074D01*
X182784723Y-120822064D01*
X182769300Y-120944150D01*
X182740918Y-121009227D01*
X182684900Y-121047636D01*
X182639152Y-121063210D01*
X182565148Y-121088403D01*
X182559144Y-121092097D01*
X182421823Y-121176577D01*
X182421820Y-121176579D01*
X182415816Y-121180273D01*
X182410781Y-121185204D01*
X182410778Y-121185206D01*
X182306633Y-121287193D01*
X182290549Y-121302944D01*
X182195572Y-121450319D01*
X182193163Y-121456939D01*
X182193161Y-121456942D01*
X182165976Y-121531632D01*
X182135606Y-121615074D01*
X182113632Y-121789020D01*
X182130741Y-121963511D01*
X182186083Y-122129876D01*
X182189730Y-122135898D01*
X182189731Y-122135900D01*
X182233252Y-122207761D01*
X182276908Y-122279846D01*
X182281797Y-122284909D01*
X182281798Y-122284910D01*
X182321963Y-122326502D01*
X182398701Y-122405966D01*
X182404593Y-122409821D01*
X182404597Y-122409825D01*
X182489457Y-122465355D01*
X182545410Y-122501970D01*
X182552014Y-122504426D01*
X182703140Y-122560629D01*
X182703142Y-122560629D01*
X182709742Y-122563084D01*
X182716725Y-122564016D01*
X182716726Y-122564016D01*
X182876549Y-122585342D01*
X182876553Y-122585342D01*
X182883530Y-122586273D01*
X182890541Y-122585635D01*
X182890545Y-122585635D01*
X183028105Y-122573115D01*
X183058137Y-122570382D01*
X183064839Y-122568204D01*
X183064841Y-122568204D01*
X183218185Y-122518380D01*
X183218188Y-122518379D01*
X183224884Y-122516203D01*
X183375484Y-122426427D01*
X183441018Y-122364020D01*
X183464925Y-122341254D01*
X183528050Y-122308762D01*
X183551817Y-122306500D01*
X184488011Y-122306500D01*
X184556132Y-122326502D01*
X184577106Y-122343405D01*
X185931595Y-123697894D01*
X185965621Y-123760206D01*
X185968500Y-123786989D01*
X185968500Y-125136158D01*
X185979538Y-125211144D01*
X185982383Y-125216938D01*
X185983468Y-125286098D01*
X185946026Y-125346419D01*
X185881916Y-125376921D01*
X185862030Y-125378500D01*
X173337975Y-125378500D01*
X173269854Y-125358498D01*
X173223361Y-125304842D01*
X173213257Y-125234568D01*
X173216982Y-125218012D01*
X173220655Y-125210497D01*
X173222067Y-125200820D01*
X173230840Y-125140684D01*
X173230840Y-125140680D01*
X173231500Y-125136158D01*
X173231500Y-123363842D01*
X173221983Y-123299183D01*
X173221888Y-123298541D01*
X173221887Y-123298539D01*
X173220462Y-123288856D01*
X173164487Y-123174849D01*
X173119285Y-123129726D01*
X173081972Y-123092478D01*
X173074601Y-123085120D01*
X173062953Y-123079426D01*
X172984222Y-123040942D01*
X172960497Y-123029345D01*
X172927716Y-123024563D01*
X172890684Y-123019160D01*
X172890680Y-123019160D01*
X172886158Y-123018500D01*
X172675299Y-123018500D01*
X172607178Y-122998498D01*
X172560685Y-122944842D01*
X172550581Y-122874568D01*
X172580075Y-122809988D01*
X172612299Y-122783381D01*
X172613118Y-122782908D01*
X172618102Y-122780584D01*
X172717621Y-122710900D01*
X172790106Y-122660146D01*
X172790109Y-122660144D01*
X172794617Y-122656987D01*
X172946987Y-122504617D01*
X172951544Y-122498110D01*
X173045434Y-122364020D01*
X174488632Y-122364020D01*
X174505741Y-122538511D01*
X174561083Y-122704876D01*
X174564730Y-122710898D01*
X174564731Y-122710900D01*
X174631130Y-122820537D01*
X174651908Y-122854846D01*
X174656797Y-122859909D01*
X174656798Y-122859910D01*
X174699836Y-122904477D01*
X174773701Y-122980966D01*
X174779593Y-122984821D01*
X174779597Y-122984825D01*
X174863083Y-123039456D01*
X174920410Y-123076970D01*
X174927014Y-123079426D01*
X175078140Y-123135629D01*
X175078142Y-123135629D01*
X175084742Y-123138084D01*
X175091725Y-123139016D01*
X175091726Y-123139016D01*
X175251549Y-123160342D01*
X175251553Y-123160342D01*
X175258530Y-123161273D01*
X175265541Y-123160635D01*
X175265545Y-123160635D01*
X175403105Y-123148115D01*
X175433137Y-123145382D01*
X175439839Y-123143204D01*
X175439841Y-123143204D01*
X175593185Y-123093380D01*
X175593188Y-123093379D01*
X175599884Y-123091203D01*
X175750484Y-123001427D01*
X175755578Y-122996576D01*
X175755582Y-122996573D01*
X175828196Y-122927423D01*
X175877452Y-122880517D01*
X175966293Y-122746800D01*
X175970576Y-122740354D01*
X175970577Y-122740352D01*
X175974477Y-122734482D01*
X176036737Y-122570581D01*
X176059330Y-122409825D01*
X176060587Y-122400883D01*
X176060588Y-122400875D01*
X176061138Y-122396959D01*
X176061445Y-122375000D01*
X176041901Y-122200764D01*
X176038179Y-122190074D01*
X175986557Y-122041835D01*
X175986556Y-122041833D01*
X175984242Y-122035188D01*
X175951563Y-121982890D01*
X175895065Y-121892474D01*
X175895062Y-121892470D01*
X175891332Y-121886501D01*
X175882835Y-121877944D01*
X175818095Y-121812752D01*
X175784287Y-121750321D01*
X175781500Y-121723967D01*
X175781500Y-115636989D01*
X175801502Y-115568868D01*
X175818405Y-115547894D01*
X181393890Y-109972409D01*
X181456202Y-109938383D01*
X181481188Y-109935960D01*
X181483530Y-109936273D01*
X181658137Y-109920382D01*
X181664839Y-109918204D01*
X181664841Y-109918204D01*
X181818185Y-109868380D01*
X181818188Y-109868379D01*
X181824884Y-109866203D01*
X181975484Y-109776427D01*
X181980578Y-109771576D01*
X181980582Y-109771573D01*
X182049833Y-109705625D01*
X182102452Y-109655517D01*
X182199477Y-109509482D01*
X182261737Y-109345581D01*
X182278921Y-109223309D01*
X182285587Y-109175883D01*
X182285588Y-109175875D01*
X182286138Y-109171959D01*
X182286445Y-109150000D01*
X182272559Y-109026203D01*
X182267686Y-108982761D01*
X182267686Y-108982760D01*
X182266901Y-108975764D01*
X182263179Y-108965074D01*
X182211557Y-108816835D01*
X182211556Y-108816833D01*
X182209242Y-108810188D01*
X182203075Y-108800319D01*
X182120064Y-108667473D01*
X182120063Y-108667471D01*
X182116332Y-108661501D01*
X182107835Y-108652944D01*
X181997754Y-108542094D01*
X181992789Y-108537094D01*
X181986846Y-108533322D01*
X181986843Y-108533320D01*
X181886791Y-108469825D01*
X181844755Y-108443148D01*
X181817570Y-108433468D01*
X181686220Y-108386696D01*
X181686215Y-108386695D01*
X181679585Y-108384334D01*
X181672597Y-108383501D01*
X181672594Y-108383500D01*
X181532837Y-108366835D01*
X181505490Y-108363574D01*
X181498487Y-108364310D01*
X181498486Y-108364310D01*
X181338122Y-108381165D01*
X181338120Y-108381166D01*
X181331122Y-108381901D01*
X181165148Y-108438403D01*
X181108081Y-108473511D01*
X181021823Y-108526577D01*
X181021820Y-108526579D01*
X181015816Y-108530273D01*
X181010781Y-108535204D01*
X181010778Y-108535206D01*
X180897742Y-108645900D01*
X180890549Y-108652944D01*
X180795572Y-108800319D01*
X180793163Y-108806939D01*
X180793161Y-108806942D01*
X180782685Y-108835725D01*
X180735606Y-108965074D01*
X180734723Y-108972062D01*
X180734723Y-108972063D01*
X180733391Y-108982604D01*
X180713632Y-109139020D01*
X180714320Y-109146037D01*
X180714320Y-109146038D01*
X180715057Y-109153562D01*
X180701796Y-109223309D01*
X180678753Y-109254948D01*
X174966948Y-114966753D01*
X174957461Y-114974334D01*
X174957779Y-114974708D01*
X174950946Y-114980523D01*
X174943352Y-114985315D01*
X174907876Y-115025484D01*
X174902530Y-115031171D01*
X174891136Y-115042565D01*
X174884889Y-115050900D01*
X174878519Y-115058724D01*
X174847311Y-115094061D01*
X174843495Y-115102188D01*
X174841765Y-115104822D01*
X174833054Y-115119319D01*
X174831540Y-115122085D01*
X174826158Y-115129266D01*
X174823008Y-115137669D01*
X174809613Y-115173399D01*
X174805686Y-115182718D01*
X174785651Y-115225391D01*
X174784270Y-115234261D01*
X174783345Y-115237286D01*
X174779062Y-115253615D01*
X174778382Y-115256708D01*
X174775229Y-115265118D01*
X174774564Y-115274069D01*
X174771736Y-115312124D01*
X174770583Y-115322167D01*
X174768500Y-115335544D01*
X174768500Y-115350986D01*
X174768154Y-115360324D01*
X174764477Y-115409804D01*
X174766350Y-115418578D01*
X174766928Y-115427059D01*
X174768500Y-115441950D01*
X174768500Y-121724161D01*
X174748498Y-121792282D01*
X174730657Y-121814185D01*
X174670584Y-121873013D01*
X174665549Y-121877944D01*
X174570572Y-122025319D01*
X174568163Y-122031939D01*
X174568161Y-122031942D01*
X174530587Y-122135176D01*
X174510606Y-122190074D01*
X174509723Y-122197062D01*
X174509723Y-122197063D01*
X174508372Y-122207761D01*
X174488632Y-122364020D01*
X173045434Y-122364020D01*
X173067427Y-122332611D01*
X173067428Y-122332609D01*
X173070584Y-122328102D01*
X173072907Y-122323120D01*
X173072910Y-122323115D01*
X173159329Y-122137789D01*
X173159330Y-122137787D01*
X173161652Y-122132807D01*
X173163179Y-122127110D01*
X173215999Y-121929980D01*
X173215999Y-121929978D01*
X173217423Y-121924665D01*
X173236204Y-121710000D01*
X173217423Y-121495335D01*
X173198643Y-121425245D01*
X173163075Y-121292503D01*
X173163074Y-121292501D01*
X173161652Y-121287193D01*
X173121763Y-121201651D01*
X173072910Y-121096885D01*
X173072907Y-121096880D01*
X173070584Y-121091898D01*
X173067427Y-121087389D01*
X172950146Y-120919894D01*
X172950144Y-120919891D01*
X172946987Y-120915383D01*
X172794617Y-120763013D01*
X172790109Y-120759856D01*
X172790106Y-120759854D01*
X172622611Y-120642573D01*
X172622609Y-120642572D01*
X172618102Y-120639416D01*
X172613120Y-120637093D01*
X172613115Y-120637090D01*
X172435346Y-120554195D01*
X172382061Y-120507277D01*
X172362600Y-120439000D01*
X172383142Y-120371040D01*
X172435346Y-120325805D01*
X172613115Y-120242910D01*
X172613120Y-120242907D01*
X172618102Y-120240584D01*
X172622611Y-120237427D01*
X172790106Y-120120146D01*
X172790109Y-120120144D01*
X172794617Y-120116987D01*
X172946987Y-119964617D01*
X173024469Y-119853962D01*
X173067427Y-119792611D01*
X173067428Y-119792609D01*
X173070584Y-119788102D01*
X173072907Y-119783120D01*
X173072910Y-119783115D01*
X173159329Y-119597789D01*
X173159330Y-119597787D01*
X173161652Y-119592807D01*
X173182009Y-119516835D01*
X173215999Y-119389980D01*
X173215999Y-119389978D01*
X173217423Y-119384665D01*
X173236204Y-119170000D01*
X173217423Y-118955335D01*
X173208672Y-118922675D01*
X173163075Y-118752503D01*
X173163074Y-118752501D01*
X173161652Y-118747193D01*
X173089516Y-118592497D01*
X173072910Y-118556885D01*
X173072907Y-118556880D01*
X173070584Y-118551898D01*
X172960709Y-118394980D01*
X172950146Y-118379894D01*
X172950144Y-118379891D01*
X172946987Y-118375383D01*
X172794617Y-118223013D01*
X172790109Y-118219856D01*
X172790106Y-118219854D01*
X172622611Y-118102573D01*
X172622609Y-118102572D01*
X172618102Y-118099416D01*
X172613120Y-118097093D01*
X172613115Y-118097090D01*
X172435346Y-118014195D01*
X172382061Y-117967277D01*
X172362600Y-117899000D01*
X172383142Y-117831040D01*
X172435346Y-117785805D01*
X172613115Y-117702910D01*
X172613120Y-117702907D01*
X172618102Y-117700584D01*
X172744629Y-117611989D01*
X172790106Y-117580146D01*
X172790109Y-117580144D01*
X172794617Y-117576987D01*
X172946987Y-117424617D01*
X172951946Y-117417536D01*
X173067427Y-117252611D01*
X173067428Y-117252609D01*
X173070584Y-117248102D01*
X173072907Y-117243120D01*
X173072910Y-117243115D01*
X173159329Y-117057789D01*
X173159330Y-117057787D01*
X173161652Y-117052807D01*
X173167780Y-117029939D01*
X173215999Y-116849980D01*
X173215999Y-116849978D01*
X173217423Y-116844665D01*
X173236204Y-116630000D01*
X173217423Y-116415335D01*
X173191619Y-116319033D01*
X173163075Y-116212503D01*
X173163074Y-116212501D01*
X173161652Y-116207193D01*
X173156167Y-116195430D01*
X173072910Y-116016885D01*
X173072907Y-116016880D01*
X173070584Y-116011898D01*
X173059467Y-115996021D01*
X172950146Y-115839894D01*
X172950144Y-115839891D01*
X172946987Y-115835383D01*
X172794617Y-115683013D01*
X172790109Y-115679856D01*
X172790106Y-115679854D01*
X172622611Y-115562573D01*
X172622609Y-115562572D01*
X172618102Y-115559416D01*
X172613120Y-115557093D01*
X172613115Y-115557090D01*
X172435346Y-115474195D01*
X172382061Y-115427277D01*
X172362600Y-115359000D01*
X172383142Y-115291040D01*
X172435346Y-115245805D01*
X172613115Y-115162910D01*
X172613120Y-115162907D01*
X172618102Y-115160584D01*
X172622611Y-115157427D01*
X172790106Y-115040146D01*
X172790109Y-115040144D01*
X172794617Y-115036987D01*
X172946987Y-114884617D01*
X172974802Y-114844894D01*
X173067427Y-114712611D01*
X173067428Y-114712609D01*
X173070584Y-114708102D01*
X173072907Y-114703120D01*
X173072910Y-114703115D01*
X173159329Y-114517789D01*
X173159330Y-114517787D01*
X173161652Y-114512807D01*
X173166338Y-114495321D01*
X173215999Y-114309980D01*
X173215999Y-114309978D01*
X173217423Y-114304665D01*
X173236204Y-114090000D01*
X173217423Y-113875335D01*
X173215686Y-113868853D01*
X173163075Y-113672503D01*
X173163074Y-113672501D01*
X173161652Y-113667193D01*
X173151298Y-113644988D01*
X173072910Y-113476885D01*
X173072907Y-113476880D01*
X173070584Y-113471898D01*
X172977960Y-113339617D01*
X172950146Y-113299894D01*
X172950144Y-113299891D01*
X172946987Y-113295383D01*
X172794617Y-113143013D01*
X172790109Y-113139856D01*
X172790106Y-113139854D01*
X172622611Y-113022573D01*
X172622609Y-113022572D01*
X172618102Y-113019416D01*
X172613120Y-113017093D01*
X172613115Y-113017090D01*
X172435346Y-112934195D01*
X172382061Y-112887277D01*
X172362600Y-112819000D01*
X172383142Y-112751040D01*
X172435346Y-112705805D01*
X172613115Y-112622910D01*
X172613120Y-112622907D01*
X172618102Y-112620584D01*
X172622611Y-112617427D01*
X172790106Y-112500146D01*
X172790109Y-112500144D01*
X172794617Y-112496987D01*
X172946987Y-112344617D01*
X172953151Y-112335815D01*
X173067427Y-112172611D01*
X173067428Y-112172609D01*
X173070584Y-112168102D01*
X173072907Y-112163120D01*
X173072910Y-112163115D01*
X173159329Y-111977789D01*
X173159330Y-111977787D01*
X173161652Y-111972807D01*
X173175162Y-111922389D01*
X173215999Y-111769980D01*
X173215999Y-111769978D01*
X173217423Y-111764665D01*
X173236204Y-111550000D01*
X173217423Y-111335335D01*
X173175715Y-111179677D01*
X173177405Y-111108702D01*
X173208327Y-111057972D01*
X173868052Y-110398247D01*
X173877539Y-110390666D01*
X173877221Y-110390292D01*
X173884054Y-110384477D01*
X173891648Y-110379685D01*
X173927124Y-110339515D01*
X173932470Y-110333829D01*
X173943864Y-110322435D01*
X173950103Y-110314110D01*
X173956487Y-110306268D01*
X173981747Y-110277667D01*
X173987689Y-110270939D01*
X173991503Y-110262815D01*
X173993237Y-110260176D01*
X174001936Y-110245700D01*
X174003460Y-110242916D01*
X174008842Y-110235735D01*
X174025395Y-110191580D01*
X174029310Y-110182290D01*
X174049349Y-110139609D01*
X174050730Y-110130739D01*
X174051653Y-110127720D01*
X174055940Y-110111380D01*
X174056620Y-110108287D01*
X174059771Y-110099882D01*
X174063263Y-110052885D01*
X174064417Y-110042836D01*
X174065750Y-110034273D01*
X174065750Y-110034272D01*
X174066500Y-110029456D01*
X174066500Y-110014005D01*
X174066846Y-110004668D01*
X174069857Y-109964144D01*
X174070522Y-109955196D01*
X174068649Y-109946420D01*
X174068070Y-109937931D01*
X174066500Y-109923056D01*
X174066500Y-109173823D01*
X174086502Y-109105702D01*
X174140158Y-109059209D01*
X174210432Y-109049105D01*
X174275012Y-109078599D01*
X174283134Y-109086293D01*
X174398701Y-109205966D01*
X174404593Y-109209821D01*
X174404597Y-109209825D01*
X174473553Y-109254948D01*
X174545410Y-109301970D01*
X174552014Y-109304426D01*
X174703140Y-109360629D01*
X174703142Y-109360629D01*
X174709742Y-109363084D01*
X174716725Y-109364016D01*
X174716726Y-109364016D01*
X174876549Y-109385342D01*
X174876553Y-109385342D01*
X174883530Y-109386273D01*
X174890541Y-109385635D01*
X174890545Y-109385635D01*
X175028105Y-109373115D01*
X175058137Y-109370382D01*
X175064839Y-109368204D01*
X175064841Y-109368204D01*
X175218185Y-109318380D01*
X175218188Y-109318379D01*
X175224884Y-109316203D01*
X175375484Y-109226427D01*
X175452000Y-109153562D01*
X175464925Y-109141254D01*
X175528050Y-109108762D01*
X175551817Y-109106500D01*
X176079157Y-109106500D01*
X176091221Y-109107848D01*
X176091260Y-109107358D01*
X176100206Y-109108078D01*
X176108962Y-109110059D01*
X176162432Y-109106742D01*
X176170233Y-109106500D01*
X176186366Y-109106500D01*
X176190807Y-109105864D01*
X176190809Y-109105864D01*
X176196677Y-109105024D01*
X176206726Y-109103995D01*
X176244806Y-109101632D01*
X176253768Y-109101076D01*
X176262215Y-109098026D01*
X176265317Y-109097384D01*
X176281702Y-109093299D01*
X176284735Y-109092412D01*
X176293619Y-109091140D01*
X176301786Y-109087426D01*
X176301788Y-109087426D01*
X176336533Y-109071628D01*
X176345902Y-109067815D01*
X176381792Y-109054859D01*
X176381793Y-109054858D01*
X176390232Y-109051812D01*
X176397475Y-109046521D01*
X176400232Y-109045055D01*
X176414882Y-109036494D01*
X176417524Y-109034804D01*
X176425693Y-109031090D01*
X176432493Y-109025231D01*
X176432496Y-109025229D01*
X176461407Y-109000318D01*
X176469312Y-108994040D01*
X176480250Y-108986049D01*
X176491168Y-108975131D01*
X176498015Y-108968773D01*
X176528802Y-108942245D01*
X176535604Y-108936384D01*
X176540488Y-108928849D01*
X176546085Y-108922433D01*
X176555491Y-108910808D01*
X177703405Y-107762894D01*
X177765717Y-107728868D01*
X177836532Y-107733933D01*
X177893368Y-107776480D01*
X177918179Y-107843000D01*
X177918500Y-107851989D01*
X177918500Y-108049161D01*
X177898498Y-108117282D01*
X177880657Y-108139185D01*
X177822692Y-108195949D01*
X177815549Y-108202944D01*
X177720572Y-108350319D01*
X177718163Y-108356939D01*
X177718161Y-108356942D01*
X177672799Y-108481573D01*
X177660606Y-108515074D01*
X177659723Y-108522062D01*
X177659723Y-108522063D01*
X177659153Y-108526577D01*
X177638632Y-108689020D01*
X177655741Y-108863511D01*
X177711083Y-109029876D01*
X177714730Y-109035898D01*
X177714731Y-109035900D01*
X177783833Y-109150000D01*
X177801908Y-109179846D01*
X177806797Y-109184909D01*
X177806798Y-109184910D01*
X177833762Y-109212832D01*
X177923701Y-109305966D01*
X177929593Y-109309821D01*
X177929597Y-109309825D01*
X178010986Y-109363084D01*
X178070410Y-109401970D01*
X178077014Y-109404426D01*
X178228140Y-109460629D01*
X178228142Y-109460629D01*
X178234742Y-109463084D01*
X178241725Y-109464016D01*
X178241726Y-109464016D01*
X178401549Y-109485342D01*
X178401553Y-109485342D01*
X178408530Y-109486273D01*
X178415541Y-109485635D01*
X178415545Y-109485635D01*
X178553105Y-109473115D01*
X178583137Y-109470382D01*
X178589839Y-109468204D01*
X178589841Y-109468204D01*
X178743185Y-109418380D01*
X178743188Y-109418379D01*
X178749884Y-109416203D01*
X178900484Y-109326427D01*
X178905578Y-109321576D01*
X178905582Y-109321573D01*
X178975544Y-109254948D01*
X179027452Y-109205517D01*
X179115440Y-109073084D01*
X179120576Y-109065354D01*
X179120577Y-109065352D01*
X179124477Y-109059482D01*
X179186737Y-108895581D01*
X179197306Y-108820376D01*
X179210587Y-108725883D01*
X179210588Y-108725875D01*
X179211138Y-108721959D01*
X179211445Y-108700000D01*
X179194282Y-108546987D01*
X179192686Y-108532761D01*
X179192686Y-108532760D01*
X179191901Y-108525764D01*
X179188179Y-108515074D01*
X179136557Y-108366835D01*
X179136556Y-108366833D01*
X179134242Y-108360188D01*
X179102881Y-108310000D01*
X179045065Y-108217474D01*
X179045062Y-108217470D01*
X179041332Y-108211501D01*
X179032835Y-108202944D01*
X178968095Y-108137752D01*
X178934287Y-108075321D01*
X178931500Y-108048967D01*
X178931500Y-107826989D01*
X178951502Y-107758868D01*
X178968405Y-107737894D01*
X180423890Y-106282409D01*
X180486202Y-106248383D01*
X180511188Y-106245960D01*
X180513530Y-106246273D01*
X180688137Y-106230382D01*
X180694839Y-106228204D01*
X180694841Y-106228204D01*
X180848185Y-106178380D01*
X180848188Y-106178379D01*
X180854884Y-106176203D01*
X181005484Y-106086427D01*
X181010578Y-106081576D01*
X181010582Y-106081573D01*
X181092996Y-106003090D01*
X181132452Y-105965517D01*
X181204627Y-105856885D01*
X181225576Y-105825354D01*
X181225577Y-105825352D01*
X181229477Y-105819482D01*
X181291737Y-105655581D01*
X181309821Y-105526910D01*
X181315587Y-105485883D01*
X181315588Y-105485875D01*
X181316138Y-105481959D01*
X181316445Y-105460000D01*
X181296901Y-105285764D01*
X181285345Y-105252577D01*
X181241557Y-105126835D01*
X181241556Y-105126833D01*
X181239242Y-105120188D01*
X181202824Y-105061907D01*
X181150064Y-104977473D01*
X181150063Y-104977471D01*
X181146332Y-104971501D01*
X181022789Y-104847094D01*
X181016846Y-104843322D01*
X181016843Y-104843320D01*
X180910978Y-104776136D01*
X180874755Y-104753148D01*
X180805788Y-104728590D01*
X180716220Y-104696696D01*
X180716215Y-104696695D01*
X180709585Y-104694334D01*
X180702597Y-104693501D01*
X180702594Y-104693500D01*
X180579777Y-104678855D01*
X180535490Y-104673574D01*
X180528487Y-104674310D01*
X180528486Y-104674310D01*
X180368122Y-104691165D01*
X180368120Y-104691166D01*
X180361122Y-104691901D01*
X180313050Y-104708266D01*
X180223476Y-104738759D01*
X180152544Y-104741777D01*
X180093468Y-104708267D01*
X180022789Y-104637094D01*
X180016846Y-104633322D01*
X180016843Y-104633320D01*
X179889666Y-104552611D01*
X179874755Y-104543148D01*
X179822649Y-104524594D01*
X179716220Y-104486696D01*
X179716215Y-104486695D01*
X179709585Y-104484334D01*
X179702597Y-104483501D01*
X179702594Y-104483500D01*
X179582307Y-104469157D01*
X179535490Y-104463574D01*
X179528487Y-104464310D01*
X179528486Y-104464310D01*
X179368122Y-104481165D01*
X179368120Y-104481166D01*
X179361122Y-104481901D01*
X179195148Y-104538403D01*
X179045816Y-104630273D01*
X179040784Y-104635201D01*
X179035227Y-104639542D01*
X179034383Y-104638462D01*
X178978451Y-104668252D01*
X178907692Y-104662450D01*
X178863546Y-104633643D01*
X178789612Y-104559192D01*
X178750289Y-104519594D01*
X178744346Y-104515822D01*
X178744343Y-104515820D01*
X178635719Y-104446885D01*
X178602255Y-104425648D01*
X178531527Y-104400463D01*
X178443720Y-104369196D01*
X178443715Y-104369195D01*
X178437085Y-104366834D01*
X178430097Y-104366001D01*
X178430094Y-104366000D01*
X178309807Y-104351657D01*
X178262990Y-104346074D01*
X178255987Y-104346810D01*
X178255986Y-104346810D01*
X178135648Y-104359458D01*
X178090944Y-104364157D01*
X178090942Y-104364157D01*
X178088622Y-104364401D01*
X178088604Y-104364230D01*
X178047355Y-104365508D01*
X178040242Y-104364401D01*
X178034456Y-104363500D01*
X178019014Y-104363500D01*
X178009676Y-104363154D01*
X177993178Y-104361928D01*
X177960196Y-104359477D01*
X177951422Y-104361350D01*
X177942941Y-104361928D01*
X177928050Y-104363500D01*
X174310849Y-104363500D01*
X174298781Y-104362152D01*
X174298742Y-104362641D01*
X174289795Y-104361921D01*
X174281039Y-104359940D01*
X174237504Y-104362641D01*
X174227559Y-104363258D01*
X174219757Y-104363500D01*
X174203634Y-104363500D01*
X174193333Y-104364975D01*
X174183279Y-104366005D01*
X174148015Y-104368193D01*
X174136232Y-104368924D01*
X174127785Y-104371974D01*
X174124683Y-104372616D01*
X174108298Y-104376701D01*
X174105265Y-104377588D01*
X174096381Y-104378860D01*
X174088214Y-104382574D01*
X174088212Y-104382574D01*
X174053467Y-104398372D01*
X174044099Y-104402185D01*
X173999768Y-104418188D01*
X173992525Y-104423479D01*
X173989768Y-104424945D01*
X173975118Y-104433506D01*
X173972476Y-104435196D01*
X173964307Y-104438910D01*
X173957507Y-104444769D01*
X173957504Y-104444771D01*
X173928593Y-104469682D01*
X173920688Y-104475960D01*
X173909750Y-104483951D01*
X173898832Y-104494869D01*
X173891985Y-104501227D01*
X173854396Y-104533616D01*
X173849512Y-104541151D01*
X173843921Y-104547560D01*
X173834514Y-104559187D01*
X172914119Y-105479583D01*
X172851808Y-105513607D01*
X172780993Y-105508543D01*
X172752755Y-105493700D01*
X172622616Y-105402576D01*
X172622610Y-105402573D01*
X172618102Y-105399416D01*
X172602558Y-105392168D01*
X172585134Y-105384042D01*
X172531850Y-105337124D01*
X172512390Y-105268846D01*
X172532933Y-105200887D01*
X172582954Y-105156696D01*
X172693103Y-105102735D01*
X172701944Y-105097465D01*
X172749247Y-105063723D01*
X172757648Y-105053023D01*
X172750660Y-105039870D01*
X172012812Y-104302022D01*
X171998868Y-104294408D01*
X171997035Y-104294539D01*
X171990420Y-104298790D01*
X171246737Y-105042473D01*
X171239977Y-105054853D01*
X171245258Y-105061907D01*
X171406753Y-105156277D01*
X171411283Y-105158448D01*
X171464072Y-105205922D01*
X171482815Y-105274400D01*
X171461560Y-105342140D01*
X171410085Y-105386272D01*
X171386889Y-105397088D01*
X171386886Y-105397090D01*
X171381898Y-105399416D01*
X171377391Y-105402572D01*
X171377389Y-105402573D01*
X171209894Y-105519854D01*
X171209891Y-105519856D01*
X171205383Y-105523013D01*
X171053013Y-105675383D01*
X170929416Y-105851898D01*
X170927093Y-105856880D01*
X170927090Y-105856885D01*
X170857096Y-106006987D01*
X170838348Y-106047193D01*
X170836926Y-106052501D01*
X170836925Y-106052503D01*
X170815380Y-106132910D01*
X170782577Y-106255335D01*
X170763796Y-106470000D01*
X170782577Y-106684665D01*
X170784001Y-106689978D01*
X170784001Y-106689980D01*
X170800551Y-106751744D01*
X170838348Y-106892807D01*
X170840670Y-106897787D01*
X170840671Y-106897789D01*
X170927090Y-107083115D01*
X170927093Y-107083120D01*
X170929416Y-107088102D01*
X170932572Y-107092609D01*
X170932573Y-107092611D01*
X171038227Y-107243500D01*
X171053013Y-107264617D01*
X171205383Y-107416987D01*
X171209891Y-107420144D01*
X171209894Y-107420146D01*
X171307184Y-107488269D01*
X171381898Y-107540584D01*
X171386880Y-107542907D01*
X171386885Y-107542910D01*
X171564654Y-107625805D01*
X171617939Y-107672723D01*
X171637400Y-107741000D01*
X171616858Y-107808960D01*
X171564654Y-107854195D01*
X171386885Y-107937090D01*
X171386880Y-107937093D01*
X171381898Y-107939416D01*
X171377391Y-107942572D01*
X171377389Y-107942573D01*
X171209894Y-108059854D01*
X171209891Y-108059856D01*
X171205383Y-108063013D01*
X171053013Y-108215383D01*
X171049856Y-108219891D01*
X171049854Y-108219894D01*
X170947888Y-108365517D01*
X170929416Y-108391898D01*
X170927093Y-108396880D01*
X170927090Y-108396885D01*
X170840671Y-108582211D01*
X170838348Y-108587193D01*
X170836926Y-108592501D01*
X170836925Y-108592503D01*
X170784048Y-108789846D01*
X170782577Y-108795335D01*
X170782098Y-108800811D01*
X170782097Y-108800816D01*
X170776864Y-108860629D01*
X170773231Y-108902167D01*
X170772752Y-108907638D01*
X170746889Y-108973757D01*
X170689385Y-109015396D01*
X170618498Y-109019337D01*
X170556733Y-108984328D01*
X170533602Y-108951103D01*
X170531556Y-108946832D01*
X170529242Y-108940188D01*
X170523859Y-108931573D01*
X170440065Y-108797474D01*
X170440062Y-108797470D01*
X170436332Y-108791501D01*
X170428708Y-108783823D01*
X170363095Y-108717752D01*
X170329287Y-108655321D01*
X170326500Y-108628967D01*
X170326500Y-104111989D01*
X170346502Y-104043868D01*
X170363405Y-104022894D01*
X170430966Y-103955333D01*
X170493278Y-103921307D01*
X170564093Y-103926372D01*
X170620929Y-103968919D01*
X170645852Y-104037175D01*
X170650309Y-104114477D01*
X170651745Y-104124697D01*
X170698565Y-104332446D01*
X170701645Y-104342275D01*
X170781770Y-104539603D01*
X170786413Y-104548794D01*
X170866460Y-104679420D01*
X170876916Y-104688880D01*
X170885694Y-104685096D01*
X171910905Y-103659885D01*
X171973217Y-103625859D01*
X172044032Y-103630924D01*
X172089095Y-103659885D01*
X173110474Y-104681264D01*
X173122484Y-104687823D01*
X173134223Y-104678855D01*
X173165004Y-104636019D01*
X173170315Y-104627180D01*
X173264670Y-104436267D01*
X173268469Y-104426672D01*
X173330376Y-104222915D01*
X173332555Y-104212834D01*
X173360590Y-103999887D01*
X173361109Y-103993212D01*
X173362572Y-103933364D01*
X173362378Y-103926646D01*
X173344781Y-103712604D01*
X173343096Y-103702424D01*
X173291214Y-103495875D01*
X173287894Y-103486124D01*
X173221202Y-103332742D01*
X173212382Y-103262296D01*
X173243049Y-103198264D01*
X173303465Y-103160976D01*
X173336752Y-103156500D01*
X173969157Y-103156500D01*
X173981221Y-103157848D01*
X173981260Y-103157358D01*
X173990206Y-103158078D01*
X173998962Y-103160059D01*
X174052432Y-103156742D01*
X174060233Y-103156500D01*
X174076366Y-103156500D01*
X174080807Y-103155864D01*
X174080809Y-103155864D01*
X174086677Y-103155024D01*
X174096726Y-103153995D01*
X174134806Y-103151632D01*
X174143768Y-103151076D01*
X174152215Y-103148026D01*
X174155317Y-103147384D01*
X174171702Y-103143299D01*
X174174735Y-103142412D01*
X174183619Y-103141140D01*
X174191786Y-103137426D01*
X174191788Y-103137426D01*
X174226533Y-103121628D01*
X174235902Y-103117815D01*
X174271792Y-103104859D01*
X174271793Y-103104858D01*
X174280232Y-103101812D01*
X174287475Y-103096521D01*
X174290232Y-103095055D01*
X174304882Y-103086494D01*
X174307524Y-103084804D01*
X174315693Y-103081090D01*
X174322493Y-103075231D01*
X174322496Y-103075229D01*
X174351407Y-103050318D01*
X174359312Y-103044040D01*
X174370250Y-103036049D01*
X174381168Y-103025131D01*
X174388015Y-103018773D01*
X174418802Y-102992245D01*
X174425604Y-102986384D01*
X174430488Y-102978849D01*
X174436085Y-102972433D01*
X174445491Y-102960808D01*
X174964096Y-102442203D01*
X175026408Y-102408177D01*
X175055831Y-102405326D01*
X175056545Y-102405341D01*
X175063530Y-102406273D01*
X175238137Y-102390382D01*
X175244839Y-102388204D01*
X175244841Y-102388204D01*
X175398185Y-102338380D01*
X175398188Y-102338379D01*
X175404884Y-102336203D01*
X175555484Y-102246427D01*
X175560578Y-102241576D01*
X175560582Y-102241573D01*
X175675328Y-102132301D01*
X175682452Y-102125517D01*
X175757466Y-102012611D01*
X175775576Y-101985354D01*
X175775577Y-101985352D01*
X175779477Y-101979482D01*
X175841737Y-101815581D01*
X175866138Y-101641959D01*
X175866445Y-101620000D01*
X175846901Y-101445764D01*
X175843179Y-101435074D01*
X175791557Y-101286835D01*
X175791556Y-101286833D01*
X175789242Y-101280188D01*
X175761330Y-101235520D01*
X175700064Y-101137473D01*
X175700063Y-101137471D01*
X175696332Y-101131501D01*
X175687835Y-101122944D01*
X175577754Y-101012094D01*
X175572789Y-101007094D01*
X175566846Y-101003322D01*
X175566843Y-101003320D01*
X175463189Y-100937539D01*
X175424755Y-100913148D01*
X175397570Y-100903468D01*
X175266220Y-100856696D01*
X175266215Y-100856695D01*
X175259585Y-100854334D01*
X175252597Y-100853501D01*
X175252594Y-100853500D01*
X175132307Y-100839157D01*
X175085490Y-100833574D01*
X175078487Y-100834310D01*
X175078486Y-100834310D01*
X174918122Y-100851165D01*
X174918120Y-100851166D01*
X174911122Y-100851901D01*
X174745148Y-100908403D01*
X174731296Y-100916925D01*
X174601823Y-100996577D01*
X174601820Y-100996579D01*
X174595816Y-101000273D01*
X174590781Y-101005204D01*
X174590778Y-101005206D01*
X174477697Y-101115944D01*
X174470549Y-101122944D01*
X174375572Y-101270319D01*
X174373163Y-101276939D01*
X174373161Y-101276942D01*
X174330019Y-101395475D01*
X174315606Y-101435074D01*
X174314723Y-101442062D01*
X174314723Y-101442063D01*
X174313372Y-101452761D01*
X174293632Y-101609020D01*
X174294320Y-101616034D01*
X174294221Y-101623078D01*
X174292531Y-101623054D01*
X174280899Y-101684209D01*
X174257860Y-101715841D01*
X173867106Y-102106595D01*
X173804794Y-102140621D01*
X173778011Y-102143500D01*
X173205228Y-102143500D01*
X173137107Y-102123498D01*
X173090614Y-102069842D01*
X173080510Y-101999568D01*
X173091033Y-101964250D01*
X173159329Y-101817789D01*
X173159330Y-101817787D01*
X173161652Y-101812807D01*
X173196110Y-101684209D01*
X173215999Y-101609980D01*
X173215999Y-101609978D01*
X173217423Y-101604665D01*
X173236204Y-101390000D01*
X173217423Y-101175335D01*
X173202065Y-101118016D01*
X173163075Y-100972503D01*
X173163074Y-100972501D01*
X173161652Y-100967193D01*
X173147676Y-100937221D01*
X173072910Y-100776885D01*
X173072907Y-100776880D01*
X173070584Y-100771898D01*
X172946987Y-100595383D01*
X172794617Y-100443013D01*
X172790109Y-100439856D01*
X172790106Y-100439854D01*
X172622611Y-100322573D01*
X172622609Y-100322572D01*
X172618102Y-100319416D01*
X172613120Y-100317093D01*
X172613115Y-100317090D01*
X172435346Y-100234195D01*
X172382061Y-100187277D01*
X172362600Y-100119000D01*
X172383142Y-100051040D01*
X172435346Y-100005805D01*
X172613115Y-99922910D01*
X172613120Y-99922907D01*
X172618102Y-99920584D01*
X172622611Y-99917427D01*
X172790106Y-99800146D01*
X172790109Y-99800144D01*
X172794617Y-99796987D01*
X172946987Y-99644617D01*
X172972751Y-99607823D01*
X173067427Y-99472611D01*
X173067428Y-99472609D01*
X173070584Y-99468102D01*
X173072907Y-99463120D01*
X173072910Y-99463115D01*
X173088701Y-99429250D01*
X173135618Y-99375965D01*
X173202896Y-99356500D01*
X173239157Y-99356500D01*
X173251221Y-99357848D01*
X173251260Y-99357358D01*
X173260206Y-99358078D01*
X173268962Y-99360059D01*
X173322432Y-99356742D01*
X173330233Y-99356500D01*
X173346366Y-99356500D01*
X173350807Y-99355864D01*
X173350809Y-99355864D01*
X173356677Y-99355024D01*
X173366726Y-99353995D01*
X173404806Y-99351632D01*
X173413768Y-99351076D01*
X173422215Y-99348026D01*
X173425317Y-99347384D01*
X173441702Y-99343299D01*
X173444735Y-99342412D01*
X173453619Y-99341140D01*
X173461786Y-99337426D01*
X173461788Y-99337426D01*
X173496533Y-99321628D01*
X173505902Y-99317815D01*
X173541792Y-99304859D01*
X173541793Y-99304858D01*
X173550232Y-99301812D01*
X173557475Y-99296521D01*
X173560232Y-99295055D01*
X173574882Y-99286494D01*
X173577524Y-99284804D01*
X173585693Y-99281090D01*
X173592493Y-99275231D01*
X173592496Y-99275229D01*
X173621407Y-99250318D01*
X173629312Y-99244040D01*
X173640250Y-99236049D01*
X173651169Y-99225130D01*
X173658016Y-99218772D01*
X173688802Y-99192245D01*
X173695604Y-99186384D01*
X173700486Y-99178852D01*
X173706085Y-99172434D01*
X173715489Y-99160810D01*
X174112896Y-98763404D01*
X174175208Y-98729379D01*
X174201991Y-98726500D01*
X176268011Y-98726500D01*
X176336132Y-98746502D01*
G37*
%TD.AperFunction*%
%TA.AperFunction,Conductor*%
G36*
X171834121Y-92841502D02*
G01*
X171880614Y-92895158D01*
X171892000Y-92947500D01*
X171892000Y-93352885D01*
X171896475Y-93368124D01*
X171897865Y-93369329D01*
X171905548Y-93371000D01*
X175918000Y-93371000D01*
X175986121Y-93391002D01*
X176032614Y-93444658D01*
X176044000Y-93497000D01*
X176044000Y-94943517D01*
X176048064Y-94957359D01*
X176061478Y-94959393D01*
X176068184Y-94958534D01*
X176078262Y-94956392D01*
X176282255Y-94895191D01*
X176291842Y-94891433D01*
X176483095Y-94797739D01*
X176491945Y-94792464D01*
X176665328Y-94668792D01*
X176673200Y-94662139D01*
X176824052Y-94511812D01*
X176830730Y-94503965D01*
X176955003Y-94331020D01*
X176960313Y-94322183D01*
X177016927Y-94207635D01*
X177065041Y-94155428D01*
X177133742Y-94137521D01*
X177201219Y-94159600D01*
X177244079Y-94210212D01*
X177257090Y-94238115D01*
X177257093Y-94238120D01*
X177259416Y-94243102D01*
X177262572Y-94247609D01*
X177262573Y-94247611D01*
X177349467Y-94371708D01*
X177383013Y-94419617D01*
X177509454Y-94546058D01*
X177543480Y-94608370D01*
X177538415Y-94679185D01*
X177509456Y-94724245D01*
X175777106Y-96456595D01*
X175714794Y-96490621D01*
X175688011Y-96493500D01*
X175350903Y-96493500D01*
X175282782Y-96473498D01*
X175261504Y-96456290D01*
X175192789Y-96387094D01*
X175186846Y-96383322D01*
X175186843Y-96383320D01*
X175062682Y-96304525D01*
X175044755Y-96293148D01*
X175017570Y-96283468D01*
X174886220Y-96236696D01*
X174886215Y-96236695D01*
X174879585Y-96234334D01*
X174872597Y-96233501D01*
X174872594Y-96233500D01*
X174752307Y-96219157D01*
X174705490Y-96213574D01*
X174698487Y-96214310D01*
X174698486Y-96214310D01*
X174538122Y-96231165D01*
X174538120Y-96231166D01*
X174531122Y-96231901D01*
X174365148Y-96288403D01*
X174321143Y-96315475D01*
X174221823Y-96376577D01*
X174221820Y-96376579D01*
X174215816Y-96380273D01*
X174210781Y-96385204D01*
X174210778Y-96385206D01*
X174100193Y-96493500D01*
X174090549Y-96502944D01*
X173995572Y-96650319D01*
X173935606Y-96815074D01*
X173913632Y-96989020D01*
X173923387Y-97088508D01*
X173925024Y-97105205D01*
X173911764Y-97174952D01*
X173862902Y-97226459D01*
X173799625Y-97243500D01*
X173701991Y-97243500D01*
X173633870Y-97223498D01*
X173612896Y-97206596D01*
X173432836Y-97026536D01*
X173208327Y-96802028D01*
X173174302Y-96739715D01*
X173175715Y-96680321D01*
X173181980Y-96656942D01*
X173217423Y-96524665D01*
X173236204Y-96310000D01*
X173217423Y-96095335D01*
X173161652Y-95887193D01*
X173157315Y-95877892D01*
X173072910Y-95696885D01*
X173072907Y-95696880D01*
X173070584Y-95691898D01*
X173063305Y-95681502D01*
X172950146Y-95519894D01*
X172950144Y-95519891D01*
X172946987Y-95515383D01*
X172794617Y-95363013D01*
X172790109Y-95359856D01*
X172790106Y-95359854D01*
X172622611Y-95242573D01*
X172622609Y-95242572D01*
X172618102Y-95239416D01*
X172613120Y-95237093D01*
X172613115Y-95237090D01*
X172583316Y-95223195D01*
X172530031Y-95176278D01*
X172510570Y-95108000D01*
X172531112Y-95040040D01*
X172585135Y-94993975D01*
X172636566Y-94983000D01*
X172977885Y-94983000D01*
X172993124Y-94978525D01*
X172994329Y-94977135D01*
X172996000Y-94969452D01*
X172996000Y-94964884D01*
X173504000Y-94964884D01*
X173508475Y-94980123D01*
X173509865Y-94981328D01*
X173517548Y-94982999D01*
X174144669Y-94982999D01*
X174151490Y-94982629D01*
X174202352Y-94977105D01*
X174217604Y-94973479D01*
X174338054Y-94928324D01*
X174353649Y-94919786D01*
X174455724Y-94843285D01*
X174468285Y-94830724D01*
X174544786Y-94728649D01*
X174553325Y-94713052D01*
X174594425Y-94603418D01*
X174637066Y-94546653D01*
X174703628Y-94521953D01*
X174772977Y-94537160D01*
X174807645Y-94565150D01*
X174833219Y-94594674D01*
X174840580Y-94601883D01*
X175004434Y-94737916D01*
X175012881Y-94743831D01*
X175196756Y-94851279D01*
X175206042Y-94855729D01*
X175405001Y-94931703D01*
X175414899Y-94934579D01*
X175518250Y-94955606D01*
X175532299Y-94954410D01*
X175536000Y-94944065D01*
X175536000Y-93897115D01*
X175531525Y-93881876D01*
X175530135Y-93880671D01*
X175522452Y-93879000D01*
X173522115Y-93879000D01*
X173506876Y-93883475D01*
X173505671Y-93884865D01*
X173504000Y-93892548D01*
X173504000Y-94964884D01*
X172996000Y-94964884D01*
X172996000Y-93897115D01*
X172991525Y-93881876D01*
X172990135Y-93880671D01*
X172982452Y-93879000D01*
X171910116Y-93879000D01*
X171894877Y-93883475D01*
X171893672Y-93884865D01*
X171892001Y-93892548D01*
X171892001Y-94519669D01*
X171892371Y-94526490D01*
X171897895Y-94577352D01*
X171901521Y-94592604D01*
X171946676Y-94713054D01*
X171955214Y-94728649D01*
X172031715Y-94830724D01*
X172044278Y-94843287D01*
X172051375Y-94848606D01*
X172093890Y-94905465D01*
X172098914Y-94976284D01*
X172064854Y-95038577D01*
X172002522Y-95072567D01*
X171986796Y-95074951D01*
X171785335Y-95092577D01*
X171780022Y-95094001D01*
X171780020Y-95094001D01*
X171582503Y-95146925D01*
X171582501Y-95146926D01*
X171577193Y-95148348D01*
X171572213Y-95150670D01*
X171572211Y-95150671D01*
X171386885Y-95237090D01*
X171386880Y-95237093D01*
X171381898Y-95239416D01*
X171377391Y-95242572D01*
X171377389Y-95242573D01*
X171209894Y-95359854D01*
X171209891Y-95359856D01*
X171205383Y-95363013D01*
X171053013Y-95515383D01*
X171049856Y-95519891D01*
X171049854Y-95519894D01*
X170936695Y-95681502D01*
X170929416Y-95691898D01*
X170927093Y-95696880D01*
X170927090Y-95696885D01*
X170842685Y-95877892D01*
X170838348Y-95887193D01*
X170782577Y-96095335D01*
X170763796Y-96310000D01*
X170782577Y-96524665D01*
X170784001Y-96529978D01*
X170784001Y-96529980D01*
X170824285Y-96680321D01*
X170838348Y-96732807D01*
X170840670Y-96737787D01*
X170840671Y-96737789D01*
X170927090Y-96923115D01*
X170927093Y-96923120D01*
X170929416Y-96928102D01*
X170932572Y-96932609D01*
X170932573Y-96932611D01*
X170976982Y-96996033D01*
X171053013Y-97104617D01*
X171205383Y-97256987D01*
X171209891Y-97260144D01*
X171209894Y-97260146D01*
X171361264Y-97366136D01*
X171381898Y-97380584D01*
X171386880Y-97382907D01*
X171386885Y-97382910D01*
X171564654Y-97465805D01*
X171617939Y-97512723D01*
X171637400Y-97581000D01*
X171616858Y-97648960D01*
X171564654Y-97694195D01*
X171386885Y-97777090D01*
X171386880Y-97777093D01*
X171381898Y-97779416D01*
X171377391Y-97782572D01*
X171377389Y-97782573D01*
X171209894Y-97899854D01*
X171209891Y-97899856D01*
X171205383Y-97903013D01*
X171053013Y-98055383D01*
X171049856Y-98059891D01*
X171049854Y-98059894D01*
X170935231Y-98223593D01*
X170929416Y-98231898D01*
X170927093Y-98236880D01*
X170927090Y-98236885D01*
X170845519Y-98411815D01*
X170838348Y-98427193D01*
X170836926Y-98432501D01*
X170836925Y-98432503D01*
X170784944Y-98626502D01*
X170782577Y-98635335D01*
X170763796Y-98850000D01*
X170782577Y-99064665D01*
X170784001Y-99069978D01*
X170784001Y-99069980D01*
X170833747Y-99255634D01*
X170838348Y-99272807D01*
X170840670Y-99277787D01*
X170840671Y-99277789D01*
X170927090Y-99463115D01*
X170927093Y-99463120D01*
X170929416Y-99468102D01*
X170932572Y-99472609D01*
X170932573Y-99472611D01*
X171027250Y-99607823D01*
X171053013Y-99644617D01*
X171205383Y-99796987D01*
X171209891Y-99800144D01*
X171209894Y-99800146D01*
X171377389Y-99917427D01*
X171381898Y-99920584D01*
X171386880Y-99922907D01*
X171386885Y-99922910D01*
X171564654Y-100005805D01*
X171617939Y-100052723D01*
X171637400Y-100121000D01*
X171616858Y-100188960D01*
X171564654Y-100234195D01*
X171386885Y-100317090D01*
X171386880Y-100317093D01*
X171381898Y-100319416D01*
X171377391Y-100322572D01*
X171377389Y-100322573D01*
X171209894Y-100439854D01*
X171209891Y-100439856D01*
X171205383Y-100443013D01*
X171053013Y-100595383D01*
X170929416Y-100771898D01*
X170927093Y-100776880D01*
X170927090Y-100776885D01*
X170852324Y-100937221D01*
X170838348Y-100967193D01*
X170836926Y-100972501D01*
X170836925Y-100972503D01*
X170797935Y-101118016D01*
X170782577Y-101175335D01*
X170763796Y-101390000D01*
X170782577Y-101604665D01*
X170784001Y-101609978D01*
X170784001Y-101609980D01*
X170803891Y-101684209D01*
X170838348Y-101812807D01*
X170840670Y-101817787D01*
X170840671Y-101817789D01*
X170924377Y-101997297D01*
X170935038Y-102067489D01*
X170906058Y-102132301D01*
X170862337Y-102165246D01*
X170833452Y-102178379D01*
X170824123Y-102182177D01*
X170779767Y-102198189D01*
X170772512Y-102203489D01*
X170769727Y-102204970D01*
X170755138Y-102213495D01*
X170752484Y-102215192D01*
X170744307Y-102218910D01*
X170737505Y-102224771D01*
X170708604Y-102249674D01*
X170700683Y-102255963D01*
X170693682Y-102261077D01*
X170693670Y-102261087D01*
X170689750Y-102263951D01*
X170678832Y-102274869D01*
X170671985Y-102281227D01*
X170634396Y-102313616D01*
X170629512Y-102321151D01*
X170623915Y-102327567D01*
X170614509Y-102339192D01*
X169596595Y-103357106D01*
X169534283Y-103391132D01*
X169463468Y-103386067D01*
X169406632Y-103343520D01*
X169381821Y-103277000D01*
X169381500Y-103268011D01*
X169381500Y-92947500D01*
X169401502Y-92879379D01*
X169455158Y-92832886D01*
X169507500Y-92821500D01*
X171766000Y-92821500D01*
X171834121Y-92841502D01*
G37*
%TD.AperFunction*%
%TD*%
M02*
