%TF.GenerationSoftware,KiCad,Pcbnew,6.0.11-2627ca5db0~126~ubuntu22.04.1*%
%TF.CreationDate,2024-01-17T11:10:24+01:00*%
%TF.ProjectId,barco-modchip,62617263-6f2d-46d6-9f64-636869702e6b,rev?*%
%TF.SameCoordinates,Original*%
%TF.FileFunction,Soldermask,Top*%
%TF.FilePolarity,Negative*%
%FSLAX46Y46*%
G04 Gerber Fmt 4.6, Leading zero omitted, Abs format (unit mm)*
G04 Created by KiCad (PCBNEW 6.0.11-2627ca5db0~126~ubuntu22.04.1) date 2024-01-17 11:10:24*
%MOMM*%
%LPD*%
G01*
G04 APERTURE LIST*
G04 Aperture macros list*
%AMRoundRect*
0 Rectangle with rounded corners*
0 $1 Rounding radius*
0 $2 $3 $4 $5 $6 $7 $8 $9 X,Y pos of 4 corners*
0 Add a 4 corners polygon primitive as box body*
4,1,4,$2,$3,$4,$5,$6,$7,$8,$9,$2,$3,0*
0 Add four circle primitives for the rounded corners*
1,1,$1+$1,$2,$3*
1,1,$1+$1,$4,$5*
1,1,$1+$1,$6,$7*
1,1,$1+$1,$8,$9*
0 Add four rect primitives between the rounded corners*
20,1,$1+$1,$2,$3,$4,$5,0*
20,1,$1+$1,$4,$5,$6,$7,0*
20,1,$1+$1,$6,$7,$8,$9,0*
20,1,$1+$1,$8,$9,$2,$3,0*%
%AMHorizOval*
0 Thick line with rounded ends*
0 $1 width*
0 $2 $3 position (X,Y) of the first rounded end (center of the circle)*
0 $4 $5 position (X,Y) of the second rounded end (center of the circle)*
0 Add line between two ends*
20,1,$1,$2,$3,$4,$5,0*
0 Add two circle primitives to create the rounded ends*
1,1,$1,$2,$3*
1,1,$1,$4,$5*%
%AMRotRect*
0 Rectangle, with rotation*
0 The origin of the aperture is its center*
0 $1 length*
0 $2 width*
0 $3 Rotation angle, in degrees counterclockwise*
0 Add horizontal line*
21,1,$1,$2,0,0,$3*%
G04 Aperture macros list end*
%ADD10RoundRect,0.150000X0.150000X-0.512500X0.150000X0.512500X-0.150000X0.512500X-0.150000X-0.512500X0*%
%ADD11R,1.700000X1.700000*%
%ADD12O,1.700000X1.700000*%
%ADD13C,2.000000*%
%ADD14RoundRect,0.200000X-0.200000X-0.275000X0.200000X-0.275000X0.200000X0.275000X-0.200000X0.275000X0*%
%ADD15RoundRect,0.200000X0.275000X-0.200000X0.275000X0.200000X-0.275000X0.200000X-0.275000X-0.200000X0*%
%ADD16RoundRect,0.200000X-0.275000X0.200000X-0.275000X-0.200000X0.275000X-0.200000X0.275000X0.200000X0*%
%ADD17RoundRect,0.225000X0.250000X-0.225000X0.250000X0.225000X-0.250000X0.225000X-0.250000X-0.225000X0*%
%ADD18RoundRect,0.218750X0.218750X0.256250X-0.218750X0.256250X-0.218750X-0.256250X0.218750X-0.256250X0*%
%ADD19RoundRect,0.250000X0.425000X-0.450000X0.425000X0.450000X-0.425000X0.450000X-0.425000X-0.450000X0*%
%ADD20R,1.900000X0.400000*%
%ADD21RoundRect,0.225000X-0.225000X-0.250000X0.225000X-0.250000X0.225000X0.250000X-0.225000X0.250000X0*%
%ADD22RoundRect,0.225000X-0.250000X0.225000X-0.250000X-0.225000X0.250000X-0.225000X0.250000X0.225000X0*%
%ADD23RoundRect,0.150000X0.512500X0.150000X-0.512500X0.150000X-0.512500X-0.150000X0.512500X-0.150000X0*%
%ADD24RoundRect,0.218750X0.256250X-0.218750X0.256250X0.218750X-0.256250X0.218750X-0.256250X-0.218750X0*%
%ADD25HorizOval,1.700000X0.000000X0.000000X0.000000X0.000000X0*%
%ADD26RotRect,1.600000X0.550000X315.000000*%
%ADD27RotRect,1.600000X0.550000X45.000000*%
%ADD28R,1.250000X1.000000*%
%ADD29HorizOval,1.700000X0.000000X0.000000X0.000000X0.000000X0*%
%ADD30RoundRect,0.200000X0.200000X0.275000X-0.200000X0.275000X-0.200000X-0.275000X0.200000X-0.275000X0*%
G04 APERTURE END LIST*
D10*
%TO.C,U40*%
X189800000Y-106637500D03*
X190750000Y-106637500D03*
X191700000Y-106637500D03*
X191700000Y-104362500D03*
X190750000Y-104362500D03*
X189800000Y-104362500D03*
%TD*%
D11*
%TO.C,J2*%
X173250000Y-93625000D03*
D12*
X175790000Y-93625000D03*
X178330000Y-93625000D03*
X180870000Y-93625000D03*
X183410000Y-93625000D03*
X185950000Y-93625000D03*
%TD*%
D13*
%TO.C,J30*%
X190750000Y-121685000D03*
%TD*%
D14*
%TO.C,R11*%
X176225000Y-120375000D03*
X177875000Y-120375000D03*
%TD*%
D15*
%TO.C,R20*%
X174075000Y-101050000D03*
X174075000Y-99400000D03*
%TD*%
D16*
%TO.C,R51*%
X169830000Y-114085000D03*
X169830000Y-115735000D03*
%TD*%
D12*
%TO.C,J12*%
X184750000Y-107600000D03*
X184750000Y-105060000D03*
%TD*%
D17*
%TO.C,C12*%
X183200000Y-118575000D03*
X183200000Y-117025000D03*
%TD*%
D18*
%TO.C,D20*%
X175937500Y-102525000D03*
X174362500Y-102525000D03*
%TD*%
D19*
%TO.C,C21*%
X175875000Y-100700000D03*
X175875000Y-98000000D03*
%TD*%
D15*
%TO.C,R10*%
X184800000Y-121925000D03*
X184800000Y-120275000D03*
%TD*%
D12*
%TO.C,J14*%
X182020000Y-102225000D03*
X179480000Y-102225000D03*
%TD*%
D14*
%TO.C,R31*%
X189625000Y-119270000D03*
X191275000Y-119270000D03*
%TD*%
D20*
%TO.C,Y1*%
X174725000Y-106950000D03*
X174725000Y-105750000D03*
X174725000Y-104550000D03*
%TD*%
D21*
%TO.C,C10*%
X176650000Y-104050000D03*
X178200000Y-104050000D03*
%TD*%
D16*
%TO.C,R42*%
X189220000Y-101075000D03*
X189220000Y-102725000D03*
%TD*%
D11*
%TO.C,J40*%
X191210000Y-115085000D03*
D12*
X191210000Y-112545000D03*
%TD*%
D22*
%TO.C,C13*%
X184310000Y-96205000D03*
X184310000Y-97755000D03*
%TD*%
D12*
%TO.C,J13*%
X184800000Y-118175000D03*
X184800000Y-115635000D03*
%TD*%
D23*
%TO.C,U20*%
X180162500Y-99950000D03*
X180162500Y-99000000D03*
X180162500Y-98050000D03*
X177887500Y-98050000D03*
X177887500Y-99950000D03*
%TD*%
D16*
%TO.C,R41*%
X191710000Y-108305000D03*
X191710000Y-109955000D03*
%TD*%
D24*
%TO.C,D10*%
X184800000Y-124887500D03*
X184800000Y-123312500D03*
%TD*%
D15*
%TO.C,R50*%
X169830000Y-111555000D03*
X169830000Y-109905000D03*
%TD*%
D16*
%TO.C,R43*%
X192280000Y-101075000D03*
X192280000Y-102725000D03*
%TD*%
D11*
%TO.C,J10*%
X172000000Y-124250000D03*
D12*
X172000000Y-121710000D03*
X172000000Y-119170000D03*
X172000000Y-116630000D03*
X172000000Y-114090000D03*
X172000000Y-111550000D03*
X172000000Y-109010000D03*
X172000000Y-106470000D03*
D25*
X172000000Y-103930000D03*
D12*
X172000000Y-101390000D03*
X172000000Y-98850000D03*
X172000000Y-96310000D03*
%TD*%
D16*
%TO.C,R40*%
X189790000Y-108295000D03*
X189790000Y-109945000D03*
%TD*%
D22*
%TO.C,C41*%
X190750000Y-101125000D03*
X190750000Y-102675000D03*
%TD*%
D26*
%TO.C,U1*%
X178574695Y-106614897D03*
X178009010Y-107180583D03*
X177443324Y-107746268D03*
X176877639Y-108311953D03*
X176311953Y-108877639D03*
X175746268Y-109443324D03*
X175180583Y-110009010D03*
X174614897Y-110574695D03*
D27*
X174614897Y-112625305D03*
X175180583Y-113190990D03*
X175746268Y-113756676D03*
X176311953Y-114322361D03*
X176877639Y-114888047D03*
X177443324Y-115453732D03*
X178009010Y-116019417D03*
X178574695Y-116585103D03*
D26*
X180625305Y-116585103D03*
X181190990Y-116019417D03*
X181756676Y-115453732D03*
X182322361Y-114888047D03*
X182888047Y-114322361D03*
X183453732Y-113756676D03*
X184019417Y-113190990D03*
X184585103Y-112625305D03*
D27*
X184585103Y-110574695D03*
X184019417Y-110009010D03*
X183453732Y-109443324D03*
X182888047Y-108877639D03*
X182322361Y-108311953D03*
X181756676Y-107746268D03*
X181190990Y-107180583D03*
X180625305Y-106614897D03*
%TD*%
D28*
%TO.C,SW1*%
X183025000Y-123300000D03*
X175275000Y-123300000D03*
%TD*%
D11*
%TO.C,J11*%
X187200000Y-124250000D03*
D12*
X187200000Y-121710000D03*
X187200000Y-119170000D03*
X187200000Y-116630000D03*
X187200000Y-114090000D03*
X187200000Y-111550000D03*
X187200000Y-109010000D03*
X187200000Y-106470000D03*
X187200000Y-103930000D03*
X187200000Y-101390000D03*
D29*
X187200000Y-98850000D03*
D12*
X187200000Y-96310000D03*
%TD*%
D30*
%TO.C,R30*%
X191275000Y-117720000D03*
X189625000Y-117720000D03*
%TD*%
D19*
%TO.C,C20*%
X182150000Y-100000000D03*
X182150000Y-97300000D03*
%TD*%
M02*
