%TF.GenerationSoftware,KiCad,Pcbnew,6.0.11-2627ca5db0~126~ubuntu22.04.1*%
%TF.CreationDate,2024-01-17T11:10:24+01:00*%
%TF.ProjectId,barco-modchip,62617263-6f2d-46d6-9f64-636869702e6b,rev?*%
%TF.SameCoordinates,Original*%
%TF.FileFunction,Copper,L1,Top*%
%TF.FilePolarity,Positive*%
%FSLAX46Y46*%
G04 Gerber Fmt 4.6, Leading zero omitted, Abs format (unit mm)*
G04 Created by KiCad (PCBNEW 6.0.11-2627ca5db0~126~ubuntu22.04.1) date 2024-01-17 11:10:24*
%MOMM*%
%LPD*%
G01*
G04 APERTURE LIST*
G04 Aperture macros list*
%AMRoundRect*
0 Rectangle with rounded corners*
0 $1 Rounding radius*
0 $2 $3 $4 $5 $6 $7 $8 $9 X,Y pos of 4 corners*
0 Add a 4 corners polygon primitive as box body*
4,1,4,$2,$3,$4,$5,$6,$7,$8,$9,$2,$3,0*
0 Add four circle primitives for the rounded corners*
1,1,$1+$1,$2,$3*
1,1,$1+$1,$4,$5*
1,1,$1+$1,$6,$7*
1,1,$1+$1,$8,$9*
0 Add four rect primitives between the rounded corners*
20,1,$1+$1,$2,$3,$4,$5,0*
20,1,$1+$1,$4,$5,$6,$7,0*
20,1,$1+$1,$6,$7,$8,$9,0*
20,1,$1+$1,$8,$9,$2,$3,0*%
%AMHorizOval*
0 Thick line with rounded ends*
0 $1 width*
0 $2 $3 position (X,Y) of the first rounded end (center of the circle)*
0 $4 $5 position (X,Y) of the second rounded end (center of the circle)*
0 Add line between two ends*
20,1,$1,$2,$3,$4,$5,0*
0 Add two circle primitives to create the rounded ends*
1,1,$1,$2,$3*
1,1,$1,$4,$5*%
%AMRotRect*
0 Rectangle, with rotation*
0 The origin of the aperture is its center*
0 $1 length*
0 $2 width*
0 $3 Rotation angle, in degrees counterclockwise*
0 Add horizontal line*
21,1,$1,$2,0,0,$3*%
G04 Aperture macros list end*
%TA.AperFunction,SMDPad,CuDef*%
%ADD10RoundRect,0.150000X0.150000X-0.512500X0.150000X0.512500X-0.150000X0.512500X-0.150000X-0.512500X0*%
%TD*%
%TA.AperFunction,ComponentPad*%
%ADD11R,1.700000X1.700000*%
%TD*%
%TA.AperFunction,ComponentPad*%
%ADD12O,1.700000X1.700000*%
%TD*%
%TA.AperFunction,ComponentPad*%
%ADD13C,2.000000*%
%TD*%
%TA.AperFunction,SMDPad,CuDef*%
%ADD14RoundRect,0.200000X-0.200000X-0.275000X0.200000X-0.275000X0.200000X0.275000X-0.200000X0.275000X0*%
%TD*%
%TA.AperFunction,SMDPad,CuDef*%
%ADD15RoundRect,0.200000X0.275000X-0.200000X0.275000X0.200000X-0.275000X0.200000X-0.275000X-0.200000X0*%
%TD*%
%TA.AperFunction,SMDPad,CuDef*%
%ADD16RoundRect,0.200000X-0.275000X0.200000X-0.275000X-0.200000X0.275000X-0.200000X0.275000X0.200000X0*%
%TD*%
%TA.AperFunction,SMDPad,CuDef*%
%ADD17RoundRect,0.225000X0.250000X-0.225000X0.250000X0.225000X-0.250000X0.225000X-0.250000X-0.225000X0*%
%TD*%
%TA.AperFunction,SMDPad,CuDef*%
%ADD18RoundRect,0.218750X0.218750X0.256250X-0.218750X0.256250X-0.218750X-0.256250X0.218750X-0.256250X0*%
%TD*%
%TA.AperFunction,SMDPad,CuDef*%
%ADD19RoundRect,0.250000X0.425000X-0.450000X0.425000X0.450000X-0.425000X0.450000X-0.425000X-0.450000X0*%
%TD*%
%TA.AperFunction,SMDPad,CuDef*%
%ADD20R,1.900000X0.400000*%
%TD*%
%TA.AperFunction,SMDPad,CuDef*%
%ADD21RoundRect,0.225000X-0.225000X-0.250000X0.225000X-0.250000X0.225000X0.250000X-0.225000X0.250000X0*%
%TD*%
%TA.AperFunction,SMDPad,CuDef*%
%ADD22RoundRect,0.225000X-0.250000X0.225000X-0.250000X-0.225000X0.250000X-0.225000X0.250000X0.225000X0*%
%TD*%
%TA.AperFunction,SMDPad,CuDef*%
%ADD23RoundRect,0.150000X0.512500X0.150000X-0.512500X0.150000X-0.512500X-0.150000X0.512500X-0.150000X0*%
%TD*%
%TA.AperFunction,SMDPad,CuDef*%
%ADD24RoundRect,0.218750X0.256250X-0.218750X0.256250X0.218750X-0.256250X0.218750X-0.256250X-0.218750X0*%
%TD*%
%TA.AperFunction,ComponentPad*%
%ADD25HorizOval,1.700000X0.000000X0.000000X0.000000X0.000000X0*%
%TD*%
%TA.AperFunction,SMDPad,CuDef*%
%ADD26RotRect,1.600000X0.550000X315.000000*%
%TD*%
%TA.AperFunction,SMDPad,CuDef*%
%ADD27RotRect,1.600000X0.550000X45.000000*%
%TD*%
%TA.AperFunction,SMDPad,CuDef*%
%ADD28R,1.250000X1.000000*%
%TD*%
%TA.AperFunction,ComponentPad*%
%ADD29HorizOval,1.700000X0.000000X0.000000X0.000000X0.000000X0*%
%TD*%
%TA.AperFunction,SMDPad,CuDef*%
%ADD30RoundRect,0.200000X0.200000X0.275000X-0.200000X0.275000X-0.200000X-0.275000X0.200000X-0.275000X0*%
%TD*%
%TA.AperFunction,ViaPad*%
%ADD31C,0.800000*%
%TD*%
%TA.AperFunction,Conductor*%
%ADD32C,0.250000*%
%TD*%
%TA.AperFunction,Conductor*%
%ADD33C,0.500000*%
%TD*%
G04 APERTURE END LIST*
D10*
%TO.P,U40,1*%
%TO.N,A4*%
X189800000Y-106637500D03*
%TO.P,U40,2,GND*%
%TO.N,GND*%
X190750000Y-106637500D03*
%TO.P,U40,3*%
%TO.N,A5*%
X191700000Y-106637500D03*
%TO.P,U40,4*%
%TO.N,Net-(R43-Pad2)*%
X191700000Y-104362500D03*
%TO.P,U40,5,VCC*%
%TO.N,+5VD*%
X190750000Y-104362500D03*
%TO.P,U40,6*%
%TO.N,Net-(R42-Pad2)*%
X189800000Y-104362500D03*
%TD*%
D11*
%TO.P,J2,1,Pin_1*%
%TO.N,GND*%
X173250000Y-93625000D03*
D12*
%TO.P,J2,2,Pin_2*%
X175790000Y-93625000D03*
%TO.P,J2,3,Pin_3*%
%TO.N,+5VD*%
X178330000Y-93625000D03*
%TO.P,J2,4,Pin_4*%
%TO.N,RXD*%
X180870000Y-93625000D03*
%TO.P,J2,5,Pin_5*%
%TO.N,TXD*%
X183410000Y-93625000D03*
%TO.P,J2,6,Pin_6*%
%TO.N,DTR*%
X185950000Y-93625000D03*
%TD*%
D13*
%TO.P,J30,1,Pin_1*%
%TO.N,Net-(J30-Pad1)*%
X190750000Y-121685000D03*
%TD*%
D14*
%TO.P,R11,1*%
%TO.N,~{RESET}*%
X176225000Y-120375000D03*
%TO.P,R11,2*%
%TO.N,+5VD*%
X177875000Y-120375000D03*
%TD*%
D15*
%TO.P,R20,1*%
%TO.N,Net-(D20-Pad2)*%
X174075000Y-101050000D03*
%TO.P,R20,2*%
%TO.N,+5VD*%
X174075000Y-99400000D03*
%TD*%
D16*
%TO.P,R51,1*%
%TO.N,D5*%
X169830000Y-114085000D03*
%TO.P,R51,2*%
%TO.N,+5VD*%
X169830000Y-115735000D03*
%TD*%
D12*
%TO.P,J12,1,Pin_1*%
%TO.N,A4*%
X184750000Y-107600000D03*
%TO.P,J12,2,Pin_2*%
%TO.N,A5*%
X184750000Y-105060000D03*
%TD*%
D17*
%TO.P,C12,1*%
%TO.N,GND*%
X183200000Y-118575000D03*
%TO.P,C12,2*%
%TO.N,Net-(C12-Pad2)*%
X183200000Y-117025000D03*
%TD*%
D18*
%TO.P,D20,1,K*%
%TO.N,GND*%
X175937500Y-102525000D03*
%TO.P,D20,2,A*%
%TO.N,Net-(D20-Pad2)*%
X174362500Y-102525000D03*
%TD*%
D19*
%TO.P,C21,1*%
%TO.N,+5VD*%
X175875000Y-100700000D03*
%TO.P,C21,2*%
%TO.N,GND*%
X175875000Y-98000000D03*
%TD*%
D15*
%TO.P,R10,1*%
%TO.N,Net-(D10-Pad2)*%
X184800000Y-121925000D03*
%TO.P,R10,2*%
%TO.N,SCK*%
X184800000Y-120275000D03*
%TD*%
D12*
%TO.P,J14,1,Pin_1*%
%TO.N,SDA1*%
X182020000Y-102225000D03*
%TO.P,J14,2,Pin_2*%
%TO.N,SCL1*%
X179480000Y-102225000D03*
%TD*%
D14*
%TO.P,R31,1*%
%TO.N,GND*%
X189625000Y-119270000D03*
%TO.P,R31,2*%
%TO.N,Net-(J30-Pad1)*%
X191275000Y-119270000D03*
%TD*%
D20*
%TO.P,Y1,1,1*%
%TO.N,Net-(U1-Pad7)*%
X174725000Y-106950000D03*
%TO.P,Y1,2,2*%
%TO.N,GND*%
X174725000Y-105750000D03*
%TO.P,Y1,3,3*%
%TO.N,Net-(U1-Pad8)*%
X174725000Y-104550000D03*
%TD*%
D21*
%TO.P,C10,1*%
%TO.N,GND*%
X176650000Y-104050000D03*
%TO.P,C10,2*%
%TO.N,+5VD*%
X178200000Y-104050000D03*
%TD*%
D16*
%TO.P,R42,1*%
%TO.N,SDA1*%
X189220000Y-101075000D03*
%TO.P,R42,2*%
%TO.N,Net-(R42-Pad2)*%
X189220000Y-102725000D03*
%TD*%
D11*
%TO.P,J40,1,Pin_1*%
%TO.N,/MON_SDA*%
X191210000Y-115085000D03*
D12*
%TO.P,J40,2,Pin_2*%
%TO.N,/MON_SCL*%
X191210000Y-112545000D03*
%TD*%
D22*
%TO.P,C13,1*%
%TO.N,DTR*%
X184310000Y-96205000D03*
%TO.P,C13,2*%
%TO.N,~{RESET}*%
X184310000Y-97755000D03*
%TD*%
D12*
%TO.P,J13,1,Pin_1*%
%TO.N,A6*%
X184800000Y-118175000D03*
%TO.P,J13,2,Pin_2*%
%TO.N,A7*%
X184800000Y-115635000D03*
%TD*%
D23*
%TO.P,U20,1,IN*%
%TO.N,RAW*%
X180162500Y-99950000D03*
%TO.P,U20,2,GND*%
%TO.N,GND*%
X180162500Y-99000000D03*
%TO.P,U20,3,EN*%
%TO.N,RAW*%
X180162500Y-98050000D03*
%TO.P,U20,4,BP*%
%TO.N,unconnected-(U20-Pad4)*%
X177887500Y-98050000D03*
%TO.P,U20,5,OUT*%
%TO.N,+5VD*%
X177887500Y-99950000D03*
%TD*%
D16*
%TO.P,R41,1*%
%TO.N,A5*%
X191710000Y-108305000D03*
%TO.P,R41,2*%
%TO.N,/MON_SCL*%
X191710000Y-109955000D03*
%TD*%
D24*
%TO.P,D10,1,K*%
%TO.N,GND*%
X184800000Y-124887500D03*
%TO.P,D10,2,A*%
%TO.N,Net-(D10-Pad2)*%
X184800000Y-123312500D03*
%TD*%
D15*
%TO.P,R50,1*%
%TO.N,D4*%
X169830000Y-111555000D03*
%TO.P,R50,2*%
%TO.N,+5VD*%
X169830000Y-109905000D03*
%TD*%
D16*
%TO.P,R43,1*%
%TO.N,SCL1*%
X192280000Y-101075000D03*
%TO.P,R43,2*%
%TO.N,Net-(R43-Pad2)*%
X192280000Y-102725000D03*
%TD*%
D11*
%TO.P,J10,1,Pin_1*%
%TO.N,D9*%
X172000000Y-124250000D03*
D12*
%TO.P,J10,2,Pin_2*%
%TO.N,D8*%
X172000000Y-121710000D03*
%TO.P,J10,3,Pin_3*%
%TO.N,D7*%
X172000000Y-119170000D03*
%TO.P,J10,4,Pin_4*%
%TO.N,D6*%
X172000000Y-116630000D03*
%TO.P,J10,5,Pin_5*%
%TO.N,D5*%
X172000000Y-114090000D03*
%TO.P,J10,6,Pin_6*%
%TO.N,D4*%
X172000000Y-111550000D03*
%TO.P,J10,7,Pin_7*%
%TO.N,D3*%
X172000000Y-109010000D03*
%TO.P,J10,8,Pin_8*%
%TO.N,D2*%
X172000000Y-106470000D03*
D25*
%TO.P,J10,9,Pin_9*%
%TO.N,GND*%
X172000000Y-103930000D03*
D12*
%TO.P,J10,10,Pin_10*%
%TO.N,~{RESET}*%
X172000000Y-101390000D03*
%TO.P,J10,11,Pin_11*%
%TO.N,RXD*%
X172000000Y-98850000D03*
%TO.P,J10,12,Pin_12*%
%TO.N,TXD*%
X172000000Y-96310000D03*
%TD*%
D16*
%TO.P,R40,1*%
%TO.N,A4*%
X189790000Y-108295000D03*
%TO.P,R40,2*%
%TO.N,/MON_SDA*%
X189790000Y-109945000D03*
%TD*%
D22*
%TO.P,C41,1*%
%TO.N,GND*%
X190750000Y-101125000D03*
%TO.P,C41,2*%
%TO.N,+5VD*%
X190750000Y-102675000D03*
%TD*%
D26*
%TO.P,U1,1,(OC2B/INT1/PTCXY)PD3*%
%TO.N,D3*%
X178574695Y-106614897D03*
%TO.P,U1,2,(XCK0/T0/PTCXY)PD4*%
%TO.N,D4*%
X178009010Y-107180583D03*
%TO.P,U1,3,PE0(PTCXY/SDA1/ICP4/ACO)*%
%TO.N,SDA1*%
X177443324Y-107746268D03*
%TO.P,U1,4,VCC*%
%TO.N,+5VD*%
X176877639Y-108311953D03*
%TO.P,U1,5,GND*%
%TO.N,GND*%
X176311953Y-108877639D03*
%TO.P,U1,6,PE1(PTCXY/SCL1/T4)*%
%TO.N,SCL1*%
X175746268Y-109443324D03*
%TO.P,U1,7,(XTAL1/TOSC1)PB6*%
%TO.N,Net-(U1-Pad7)*%
X175180583Y-110009010D03*
%TO.P,U1,8,(XTAL2/TOSC2)PB7*%
%TO.N,Net-(U1-Pad8)*%
X174614897Y-110574695D03*
D27*
%TO.P,U1,9,(OC0B/T1/PTCXY)PD5*%
%TO.N,D5*%
X174614897Y-112625305D03*
%TO.P,U1,10,(OC0A/AIN0/PTCXY)PD6*%
%TO.N,D6*%
X175180583Y-113190990D03*
%TO.P,U1,11,(AIN1/PTCXY)PD7*%
%TO.N,D7*%
X175746268Y-113756676D03*
%TO.P,U1,12,(CLKO/ICP1/PTCXY)PB0*%
%TO.N,D8*%
X176311953Y-114322361D03*
%TO.P,U1,13,(OC1A/PTCXY)PB1*%
%TO.N,D9*%
X176877639Y-114888047D03*
%TO.P,U1,14,(OC1B/~{SS0}/PTCXY)PB2*%
%TO.N,D10*%
X177443324Y-115453732D03*
%TO.P,U1,15,(MOSI0/TXD1/OC2A/PTCXY)PB3*%
%TO.N,MOSI*%
X178009010Y-116019417D03*
%TO.P,U1,16,(MISO0/RXD1/PTCXY)PB4*%
%TO.N,MISO*%
X178574695Y-116585103D03*
D26*
%TO.P,U1,17,(XCK0/SCK0/PTCXY)PB5*%
%TO.N,SCK*%
X180625305Y-116585103D03*
%TO.P,U1,18,AVCC*%
%TO.N,+5VD*%
X181190990Y-116019417D03*
%TO.P,U1,19,PE2(PTCY/ADC6/ICP3/~{SS1})*%
%TO.N,A6*%
X181756676Y-115453732D03*
%TO.P,U1,20,AREF*%
%TO.N,Net-(C12-Pad2)*%
X182322361Y-114888047D03*
%TO.P,U1,21,GND*%
%TO.N,GND*%
X182888047Y-114322361D03*
%TO.P,U1,22,PE3(PTCY/ADC7/T3/MOSI1)*%
%TO.N,A7*%
X183453732Y-113756676D03*
%TO.P,U1,23,(MISO1/ADC0/PTCY)PC0*%
%TO.N,A0*%
X184019417Y-113190990D03*
%TO.P,U1,24,(SCK1/ADC1/PTCY)PC1*%
%TO.N,A1*%
X184585103Y-112625305D03*
D27*
%TO.P,U1,25,(ADC2/PTCY)PC2*%
%TO.N,A2*%
X184585103Y-110574695D03*
%TO.P,U1,26,(ADC3/PTCY)PC3*%
%TO.N,A3*%
X184019417Y-110009010D03*
%TO.P,U1,27,(SDA0/ADC4/PTCY)PC4*%
%TO.N,A4*%
X183453732Y-109443324D03*
%TO.P,U1,28,(SCL0/ADC5/PTCY)PC5*%
%TO.N,A5*%
X182888047Y-108877639D03*
%TO.P,U1,29,(~{RESET})PC6*%
%TO.N,~{RESET}*%
X182322361Y-108311953D03*
%TO.P,U1,30,(RXD0/OC3A/PTCXY)PD0*%
%TO.N,RXD*%
X181756676Y-107746268D03*
%TO.P,U1,31,(TXD0/OC4A/PTCXY)PD1*%
%TO.N,TXD*%
X181190990Y-107180583D03*
%TO.P,U1,32,(OC3B/OC4B/INT0/PTCXY)PD2*%
%TO.N,D2*%
X180625305Y-106614897D03*
%TD*%
D28*
%TO.P,SW1,1,A*%
%TO.N,GND*%
X183025000Y-123300000D03*
%TO.P,SW1,2,B*%
%TO.N,~{RESET}*%
X175275000Y-123300000D03*
%TD*%
D11*
%TO.P,J11,1,Pin_1*%
%TO.N,D10*%
X187200000Y-124250000D03*
D12*
%TO.P,J11,2,Pin_2*%
%TO.N,MOSI*%
X187200000Y-121710000D03*
%TO.P,J11,3,Pin_3*%
%TO.N,MISO*%
X187200000Y-119170000D03*
%TO.P,J11,4,Pin_4*%
%TO.N,SCK*%
X187200000Y-116630000D03*
%TO.P,J11,5,Pin_5*%
%TO.N,A0*%
X187200000Y-114090000D03*
%TO.P,J11,6,Pin_6*%
%TO.N,A1*%
X187200000Y-111550000D03*
%TO.P,J11,7,Pin_7*%
%TO.N,A2*%
X187200000Y-109010000D03*
%TO.P,J11,8,Pin_8*%
%TO.N,A3*%
X187200000Y-106470000D03*
%TO.P,J11,9,Pin_9*%
%TO.N,+5VD*%
X187200000Y-103930000D03*
%TO.P,J11,10,Pin_10*%
%TO.N,~{RESET}*%
X187200000Y-101390000D03*
D29*
%TO.P,J11,11,Pin_11*%
%TO.N,GND*%
X187200000Y-98850000D03*
D12*
%TO.P,J11,12,Pin_12*%
%TO.N,RAW*%
X187200000Y-96310000D03*
%TD*%
D30*
%TO.P,R30,1*%
%TO.N,Net-(J30-Pad1)*%
X191275000Y-117720000D03*
%TO.P,R30,2*%
%TO.N,SCK*%
X189625000Y-117720000D03*
%TD*%
D19*
%TO.P,C20,1*%
%TO.N,RAW*%
X182150000Y-100000000D03*
%TO.P,C20,2*%
%TO.N,GND*%
X182150000Y-97300000D03*
%TD*%
D31*
%TO.N,GND*%
X182125000Y-98650000D03*
X175825000Y-98950000D03*
X177112500Y-109662500D03*
X190750000Y-105760000D03*
X182500000Y-118000000D03*
X190750000Y-100450000D03*
X182050000Y-113500000D03*
X183025000Y-124025000D03*
X176580000Y-102520000D03*
%TO.N,~{RESET}*%
X181500000Y-109150000D03*
X184310000Y-98470000D03*
X175275000Y-122375000D03*
%TO.N,+5VD*%
X175080000Y-101620000D03*
X190750000Y-103400000D03*
X177450000Y-119850000D03*
X169820000Y-109280000D03*
X174700000Y-97000000D03*
X169820000Y-115120000D03*
X178420000Y-99370000D03*
X180375000Y-115225000D03*
%TO.N,MISO*%
X178950000Y-116950000D03*
%TO.N,MOSI*%
X183550000Y-121000000D03*
%TO.N,TXD*%
X182570000Y-103680000D03*
%TO.N,RXD*%
X183570000Y-102950000D03*
X179725000Y-95525000D03*
%TO.N,D4*%
X176730000Y-106480000D03*
%TO.N,D3*%
X177430000Y-105750000D03*
%TO.N,D2*%
X178257500Y-105132500D03*
%TO.N,D10*%
X182900000Y-121800000D03*
%TO.N,A4*%
X189230000Y-107860000D03*
%TO.N,A5*%
X191020000Y-108310000D03*
%TO.N,SDA1*%
X178425000Y-108700000D03*
X180530000Y-105460000D03*
%TO.N,SCL1*%
X179530000Y-105250000D03*
X174900000Y-108600000D03*
%TD*%
D32*
%TO.N,GND*%
X182888047Y-114322361D02*
X182872361Y-114322361D01*
D33*
X175675000Y-103700000D02*
X176025000Y-104050000D01*
X190360000Y-105490000D02*
X188820000Y-105490000D01*
X176850000Y-97025000D02*
X180900000Y-97025000D01*
X173550000Y-103700000D02*
X175675000Y-103700000D01*
X182125000Y-97325000D02*
X182150000Y-97300000D01*
D32*
X182500000Y-118000000D02*
X182975000Y-118475000D01*
X182872361Y-114322361D02*
X182050000Y-113500000D01*
X175630000Y-105750000D02*
X176650000Y-104730000D01*
D33*
X181440000Y-98650000D02*
X181090000Y-99000000D01*
X182125000Y-98650000D02*
X181440000Y-98650000D01*
X180900000Y-97025000D02*
X181175000Y-97300000D01*
D32*
X176650000Y-104730000D02*
X176650000Y-104050000D01*
X176575000Y-102525000D02*
X176580000Y-102520000D01*
X190750000Y-106637500D02*
X190750000Y-105760000D01*
X190750000Y-101125000D02*
X190750000Y-100450000D01*
X176327639Y-108877639D02*
X176311953Y-108877639D01*
X177112500Y-109662500D02*
X176327639Y-108877639D01*
D33*
X190750000Y-105760000D02*
X190630000Y-105760000D01*
D32*
X174725000Y-105750000D02*
X175630000Y-105750000D01*
D33*
X176025000Y-104050000D02*
X176650000Y-104050000D01*
X182125000Y-98650000D02*
X182125000Y-97325000D01*
D32*
X183025000Y-124025000D02*
X183025000Y-123300000D01*
D33*
X190630000Y-105760000D02*
X190360000Y-105490000D01*
D32*
X182975000Y-118475000D02*
X183200000Y-118475000D01*
D33*
X175875000Y-98000000D02*
X176850000Y-97025000D01*
X181175000Y-97300000D02*
X182150000Y-97300000D01*
D32*
X175937500Y-102525000D02*
X176575000Y-102525000D01*
D33*
X181090000Y-99000000D02*
X180162500Y-99000000D01*
X173320000Y-103930000D02*
X173550000Y-103700000D01*
X172000000Y-103930000D02*
X173320000Y-103930000D01*
D32*
%TO.N,Net-(C12-Pad2)*%
X183200000Y-115750000D02*
X183200000Y-116925000D01*
X182338047Y-114888047D02*
X183200000Y-115750000D01*
X182322361Y-114888047D02*
X182338047Y-114888047D01*
%TO.N,DTR*%
X184850000Y-96150000D02*
X185950000Y-95050000D01*
X185950000Y-95050000D02*
X185950000Y-93625000D01*
X184850000Y-96175000D02*
X184850000Y-96150000D01*
%TO.N,~{RESET}*%
X182322361Y-108307639D02*
X182322361Y-108311953D01*
X175275000Y-122375000D02*
X175275000Y-120575000D01*
X180650000Y-96275000D02*
X180850000Y-96075000D01*
X184310000Y-98470000D02*
X184310000Y-97755000D01*
X183480000Y-96920000D02*
X183480000Y-96390000D01*
X173250000Y-100175000D02*
X173250000Y-98900000D01*
X173250000Y-98900000D02*
X173925000Y-98225000D01*
X173925000Y-96700000D02*
X174350000Y-96275000D01*
X180850000Y-96075000D02*
X183165000Y-96075000D01*
X182322361Y-108311953D02*
X182322361Y-108327639D01*
X186720000Y-101390000D02*
X183520000Y-104590000D01*
X175275000Y-122375000D02*
X175275000Y-123300000D01*
X183090000Y-107540000D02*
X182322361Y-108307639D01*
X172035000Y-101390000D02*
X173250000Y-100175000D01*
X182322361Y-108327639D02*
X181500000Y-109150000D01*
X173925000Y-98225000D02*
X173925000Y-96700000D01*
X184310000Y-97755000D02*
X184310000Y-97750000D01*
X183480000Y-96390000D02*
X183165000Y-96075000D01*
X172000000Y-101390000D02*
X172035000Y-101390000D01*
X175275000Y-120575000D02*
X175475000Y-120375000D01*
X174350000Y-96275000D02*
X180650000Y-96275000D01*
X175475000Y-120375000D02*
X176225000Y-120375000D01*
X183520000Y-106510000D02*
X183090000Y-106940000D01*
X183090000Y-106940000D02*
X183090000Y-107540000D01*
X183520000Y-104590000D02*
X183520000Y-106510000D01*
X184310000Y-97750000D02*
X183480000Y-96920000D01*
X187200000Y-101390000D02*
X186720000Y-101390000D01*
%TO.N,RAW*%
X179160000Y-98240000D02*
X179160000Y-99710000D01*
D33*
X187200000Y-96310000D02*
X186290000Y-96310000D01*
X185400000Y-97200000D02*
X185400000Y-98800000D01*
D32*
X180162500Y-98050000D02*
X179350000Y-98050000D01*
D33*
X182100000Y-99950000D02*
X182150000Y-100000000D01*
X186290000Y-96310000D02*
X185400000Y-97200000D01*
X184200000Y-100000000D02*
X182150000Y-100000000D01*
D32*
X179400000Y-99950000D02*
X180162500Y-99950000D01*
D33*
X185400000Y-98800000D02*
X184200000Y-100000000D01*
D32*
X179160000Y-99710000D02*
X179400000Y-99950000D01*
X179350000Y-98050000D02*
X179160000Y-98240000D01*
D33*
X180162500Y-99950000D02*
X182100000Y-99950000D01*
D32*
%TO.N,+5VD*%
X176877639Y-108311953D02*
X176861953Y-108311953D01*
D33*
X177887500Y-99950000D02*
X176625000Y-99950000D01*
D32*
X169830000Y-115130000D02*
X169820000Y-115120000D01*
X179050000Y-113900000D02*
X179050000Y-110500000D01*
X174650000Y-98825000D02*
X174650000Y-97050000D01*
X176760000Y-101620000D02*
X177330000Y-102190000D01*
X179050000Y-110500000D02*
X176877639Y-108327639D01*
X175875000Y-100700000D02*
X175875000Y-100735000D01*
X174600000Y-99925000D02*
X174075000Y-99400000D01*
X177875000Y-120275000D02*
X177450000Y-119850000D01*
X177490000Y-104770000D02*
X177490000Y-104760000D01*
X177330000Y-103180000D02*
X178200000Y-104050000D01*
X178420000Y-99370000D02*
X178420000Y-99417500D01*
X175080000Y-101620000D02*
X175875000Y-100825000D01*
X181169417Y-116019417D02*
X181190990Y-116019417D01*
X177330000Y-102190000D02*
X177330000Y-103180000D01*
X178420000Y-99417500D02*
X177887500Y-99950000D01*
X174650000Y-97050000D02*
X174700000Y-97000000D01*
X190750000Y-103400000D02*
X190750000Y-104362500D01*
X175100000Y-99925000D02*
X174600000Y-99925000D01*
X176877639Y-108327639D02*
X176877639Y-108311953D01*
X176000000Y-106020000D02*
X177170000Y-104850000D01*
X176000000Y-107450000D02*
X176000000Y-106020000D01*
X176861953Y-108311953D02*
X176000000Y-107450000D01*
X175875000Y-100735000D02*
X176760000Y-101620000D01*
X177410000Y-104850000D02*
X177490000Y-104770000D01*
X177170000Y-104850000D02*
X177410000Y-104850000D01*
X175875000Y-100825000D02*
X175875000Y-100700000D01*
X177490000Y-104760000D02*
X178200000Y-104050000D01*
X169820000Y-109280000D02*
X169820000Y-109895000D01*
X169830000Y-115735000D02*
X169830000Y-115130000D01*
X177875000Y-120375000D02*
X177875000Y-120275000D01*
D33*
X176625000Y-99950000D02*
X175875000Y-100700000D01*
D32*
X175875000Y-100700000D02*
X175100000Y-99925000D01*
X190750000Y-102675000D02*
X190750000Y-103400000D01*
X180375000Y-115225000D02*
X181169417Y-116019417D01*
X174075000Y-99400000D02*
X174650000Y-98825000D01*
X169820000Y-109895000D02*
X169830000Y-109905000D01*
X180375000Y-115225000D02*
X179050000Y-113900000D01*
%TO.N,Net-(D10-Pad2)*%
X184800000Y-123312500D02*
X184800000Y-121925000D01*
%TO.N,Net-(D20-Pad2)*%
X174075000Y-101625000D02*
X174075000Y-101050000D01*
X174362500Y-101912500D02*
X174075000Y-101625000D01*
X174362500Y-102525000D02*
X174362500Y-101912500D01*
%TO.N,MISO*%
X178585103Y-116585103D02*
X178950000Y-116950000D01*
X178574695Y-116585103D02*
X178585103Y-116585103D01*
%TO.N,SCK*%
X186000000Y-119175000D02*
X186000000Y-117750000D01*
X184800000Y-120275000D02*
X184925000Y-120275000D01*
X184925000Y-120275000D02*
X184925000Y-120250000D01*
X181625000Y-120275000D02*
X184850000Y-120275000D01*
X180250000Y-116960408D02*
X180250000Y-118900000D01*
X187120000Y-116630000D02*
X187200000Y-116630000D01*
X187710000Y-116630000D02*
X188800000Y-117720000D01*
X180250000Y-118900000D02*
X181625000Y-120275000D01*
X188800000Y-117720000D02*
X189625000Y-117720000D01*
X184925000Y-120250000D02*
X186000000Y-119175000D01*
X184850000Y-120275000D02*
X184925000Y-120275000D01*
X187200000Y-116630000D02*
X187710000Y-116630000D01*
X180625305Y-116585103D02*
X180250000Y-116960408D01*
X186000000Y-117750000D02*
X187120000Y-116630000D01*
%TO.N,MOSI*%
X180850000Y-121000000D02*
X177200000Y-117350000D01*
X177200000Y-117350000D02*
X177200000Y-116850000D01*
X183550000Y-121000000D02*
X180850000Y-121000000D01*
X178009010Y-116040990D02*
X178009010Y-116019417D01*
X177200000Y-116850000D02*
X178009010Y-116040990D01*
%TO.N,TXD*%
X182370000Y-103850000D02*
X182370000Y-106010000D01*
X172000000Y-96310000D02*
X173510000Y-94800000D01*
X182570000Y-103680000D02*
X182400000Y-103850000D01*
X182235000Y-94800000D02*
X183410000Y-93625000D01*
X182400000Y-103850000D02*
X182370000Y-103850000D01*
X182370000Y-106010000D02*
X181199417Y-107180583D01*
X173510000Y-94800000D02*
X182235000Y-94800000D01*
%TO.N,RXD*%
X173275000Y-97575000D02*
X172000000Y-98850000D01*
X179725000Y-95525000D02*
X174125000Y-95525000D01*
X182540000Y-106962944D02*
X181756676Y-107746268D01*
X183570000Y-103740000D02*
X182870000Y-104440000D01*
X183570000Y-102950000D02*
X183570000Y-103740000D01*
X174125000Y-95525000D02*
X173275000Y-96375000D01*
X173275000Y-96375000D02*
X173275000Y-97575000D01*
X182870000Y-106510000D02*
X182540000Y-106840000D01*
X182870000Y-104440000D02*
X182870000Y-106510000D01*
X182540000Y-106840000D02*
X182540000Y-106962944D01*
%TO.N,D9*%
X176861953Y-114888047D02*
X176877639Y-114888047D01*
X173600000Y-123700000D02*
X173600000Y-121150000D01*
X175400000Y-119350000D02*
X175400000Y-116350000D01*
X175400000Y-116350000D02*
X176861953Y-114888047D01*
X173050000Y-124250000D02*
X173600000Y-123700000D01*
X173600000Y-121150000D02*
X175400000Y-119350000D01*
X172000000Y-124250000D02*
X173050000Y-124250000D01*
%TO.N,D8*%
X174650000Y-119060000D02*
X172000000Y-121710000D01*
X176311953Y-114322361D02*
X176311953Y-114338047D01*
X176311953Y-114338047D02*
X174650000Y-116000000D01*
X174650000Y-116000000D02*
X174650000Y-119060000D01*
%TO.N,D7*%
X174050000Y-115450000D02*
X174050000Y-117120000D01*
X175743324Y-113756676D02*
X174050000Y-115450000D01*
X175746268Y-113756676D02*
X175743324Y-113756676D01*
X174050000Y-117120000D02*
X172000000Y-119170000D01*
%TO.N,D6*%
X173450000Y-115150000D02*
X173450000Y-114921573D01*
X173450000Y-114921573D02*
X175180583Y-113190990D01*
X172000000Y-116600000D02*
X173450000Y-115150000D01*
X172000000Y-116630000D02*
X172000000Y-116600000D01*
%TO.N,D5*%
X169830000Y-114085000D02*
X171995000Y-114085000D01*
X171995000Y-114085000D02*
X172000000Y-114090000D01*
X172000000Y-114090000D02*
X173150202Y-114090000D01*
X173150202Y-114090000D02*
X174614897Y-112625305D01*
%TO.N,D4*%
X169830000Y-111555000D02*
X171995000Y-111555000D01*
X177980583Y-107180583D02*
X178009010Y-107180583D01*
X176730000Y-106480000D02*
X177280000Y-106480000D01*
X171995000Y-111555000D02*
X172000000Y-111550000D01*
X177280000Y-106480000D02*
X177980583Y-107180583D01*
%TO.N,D3*%
X178564897Y-106614897D02*
X178574695Y-106614897D01*
X177430000Y-105750000D02*
X177700000Y-105750000D01*
X177700000Y-105750000D02*
X178564897Y-106614897D01*
%TO.N,D2*%
X180340408Y-106330000D02*
X180625305Y-106614897D01*
X179455000Y-106330000D02*
X180340408Y-106330000D01*
X178257500Y-105132500D02*
X179455000Y-106330000D01*
%TO.N,D10*%
X180825000Y-121800000D02*
X176650000Y-117625000D01*
X176650000Y-116250000D02*
X177443324Y-115456676D01*
X176650000Y-117625000D02*
X176650000Y-116250000D01*
X177443324Y-115456676D02*
X177443324Y-115453732D01*
X182900000Y-121800000D02*
X180825000Y-121800000D01*
%TO.N,A0*%
X184019417Y-113219417D02*
X184890000Y-114090000D01*
X184019417Y-113190990D02*
X184019417Y-113219417D01*
X184890000Y-114090000D02*
X187200000Y-114090000D01*
%TO.N,A1*%
X185650000Y-111550000D02*
X187200000Y-111550000D01*
X184585103Y-112625305D02*
X184585103Y-112614897D01*
X184585103Y-112614897D02*
X185650000Y-111550000D01*
%TO.N,A2*%
X184585103Y-110564897D02*
X185300000Y-109850000D01*
X185300000Y-109850000D02*
X186360000Y-109850000D01*
X184585103Y-110574695D02*
X184585103Y-110564897D01*
X186360000Y-109850000D02*
X187200000Y-109010000D01*
%TO.N,A3*%
X184019417Y-110009010D02*
X184040990Y-110009010D01*
X185100000Y-108950000D02*
X185600000Y-108950000D01*
X185950000Y-108600000D02*
X185950000Y-107720000D01*
X184040990Y-110009010D02*
X185100000Y-108950000D01*
X185950000Y-107720000D02*
X187200000Y-106470000D01*
X185600000Y-108950000D02*
X185950000Y-108600000D01*
%TO.N,A4*%
X189665000Y-108295000D02*
X189790000Y-108295000D01*
X189790000Y-106647500D02*
X189800000Y-106637500D01*
X183453732Y-109443324D02*
X183456676Y-109443324D01*
X189790000Y-108295000D02*
X189790000Y-107790000D01*
X189230000Y-107860000D02*
X189665000Y-108295000D01*
X184750000Y-108150000D02*
X184750000Y-107600000D01*
X189790000Y-107790000D02*
X189790000Y-106647500D01*
X183456676Y-109443324D02*
X184750000Y-108150000D01*
%TO.N,A5*%
X182888047Y-108877639D02*
X182888047Y-108861953D01*
X191025000Y-108305000D02*
X191710000Y-108305000D01*
X191710000Y-108305000D02*
X191710000Y-106647500D01*
X182888047Y-108861953D02*
X183550000Y-108200000D01*
X183970000Y-106700000D02*
X183970000Y-105840000D01*
X183550000Y-108200000D02*
X183550000Y-107120000D01*
X191020000Y-108310000D02*
X191025000Y-108305000D01*
X183970000Y-105840000D02*
X184750000Y-105060000D01*
X183550000Y-107120000D02*
X183970000Y-106700000D01*
X191710000Y-106647500D02*
X191700000Y-106637500D01*
%TO.N,A6*%
X182400000Y-116097056D02*
X182400000Y-116750000D01*
X184800000Y-118500000D02*
X184800000Y-118175000D01*
X182675000Y-119425000D02*
X183875000Y-119425000D01*
X182400000Y-116750000D02*
X181750000Y-117400000D01*
X181750000Y-118500000D02*
X182675000Y-119425000D01*
X183875000Y-119425000D02*
X184800000Y-118500000D01*
X181750000Y-117400000D02*
X181750000Y-118500000D01*
X181756676Y-115453732D02*
X182400000Y-116097056D01*
%TO.N,A7*%
X184650000Y-114550000D02*
X184800000Y-114700000D01*
X184250000Y-114550000D02*
X184650000Y-114550000D01*
X183453732Y-113756676D02*
X183456676Y-113756676D01*
X184800000Y-114700000D02*
X184800000Y-115635000D01*
X183456676Y-113756676D02*
X184250000Y-114550000D01*
%TO.N,SDA1*%
X180530000Y-105460000D02*
X180530000Y-103700000D01*
X182020000Y-102225000D02*
X183895000Y-102225000D01*
X188265000Y-100120000D02*
X189220000Y-101075000D01*
X178425000Y-108700000D02*
X177471268Y-107746268D01*
X180530000Y-103700000D02*
X182005000Y-102225000D01*
X177443324Y-107746268D02*
X177496268Y-107746268D01*
X177471268Y-107746268D02*
X177443324Y-107746268D01*
X183895000Y-102225000D02*
X186000000Y-100120000D01*
X182005000Y-102225000D02*
X182020000Y-102225000D01*
X186000000Y-100120000D02*
X188265000Y-100120000D01*
%TO.N,SCL1*%
X179530000Y-105250000D02*
X179530000Y-103370000D01*
X179480000Y-102225000D02*
X179480000Y-101900000D01*
X179480000Y-103320000D02*
X179480000Y-101700000D01*
X189480000Y-97600000D02*
X192280000Y-100400000D01*
X186650000Y-97600000D02*
X189480000Y-97600000D01*
X184110000Y-101040000D02*
X185980000Y-99170000D01*
X179480000Y-101900000D02*
X180340000Y-101040000D01*
X192280000Y-100400000D02*
X192280000Y-101075000D01*
X179530000Y-103370000D02*
X179480000Y-103320000D01*
X175746268Y-109443324D02*
X175743324Y-109443324D01*
X180340000Y-101040000D02*
X184110000Y-101040000D01*
X175743324Y-109443324D02*
X174900000Y-108600000D01*
X185980000Y-99170000D02*
X185980000Y-98270000D01*
X185980000Y-98270000D02*
X186650000Y-97600000D01*
%TO.N,Net-(U1-Pad7)*%
X174000000Y-108850000D02*
X174000000Y-108100000D01*
X174000000Y-108100000D02*
X174725000Y-107375000D01*
X174725000Y-107375000D02*
X174725000Y-106950000D01*
X175159010Y-110009010D02*
X174000000Y-108850000D01*
X175180583Y-110009010D02*
X175159010Y-110009010D01*
%TO.N,Net-(U1-Pad8)*%
X174600000Y-104550000D02*
X173850000Y-104550000D01*
X173450000Y-109409798D02*
X174614897Y-110574695D01*
X173450000Y-104950000D02*
X173450000Y-109409798D01*
X173850000Y-104550000D02*
X173450000Y-104950000D01*
%TO.N,Net-(J30-Pad1)*%
X190750000Y-120390000D02*
X190750000Y-121685000D01*
X191275000Y-119865000D02*
X190750000Y-120390000D01*
X191275000Y-119270000D02*
X191275000Y-119865000D01*
X191275000Y-117720000D02*
X191275000Y-119270000D01*
%TO.N,/MON_SDA*%
X189790000Y-109945000D02*
X189790000Y-114125000D01*
X189790000Y-114125000D02*
X190760000Y-115095000D01*
%TO.N,/MON_SCL*%
X191210000Y-111520000D02*
X191210000Y-112545000D01*
X191710000Y-111020000D02*
X191210000Y-111520000D01*
X191710000Y-109955000D02*
X191710000Y-111020000D01*
%TO.N,Net-(R42-Pad2)*%
X189250000Y-102725000D02*
X189800000Y-103275000D01*
X189800000Y-103275000D02*
X189800000Y-104362500D01*
X189220000Y-102725000D02*
X189250000Y-102725000D01*
%TO.N,Net-(R43-Pad2)*%
X192280000Y-102725000D02*
X192225000Y-102725000D01*
X192225000Y-102725000D02*
X191700000Y-103250000D01*
X191700000Y-103250000D02*
X191700000Y-104362500D01*
%TD*%
%TA.AperFunction,Conductor*%
%TO.N,GND*%
G36*
X188522250Y-103340191D02*
G01*
X188553988Y-103357932D01*
X188645186Y-103427910D01*
X188645190Y-103427912D01*
X188651741Y-103432939D01*
X188659367Y-103436098D01*
X188659369Y-103436099D01*
X188706673Y-103455693D01*
X188793198Y-103491533D01*
X188801382Y-103492610D01*
X188801384Y-103492611D01*
X188881339Y-103503137D01*
X188906884Y-103506500D01*
X189028919Y-103506500D01*
X189097040Y-103526502D01*
X189143533Y-103580158D01*
X189153637Y-103650432D01*
X189146071Y-103678883D01*
X189128989Y-103722028D01*
X189118500Y-103808706D01*
X189118500Y-104916294D01*
X189128989Y-105002972D01*
X189131969Y-105010498D01*
X189178030Y-105126835D01*
X189182596Y-105138368D01*
X189270639Y-105254361D01*
X189386632Y-105342404D01*
X189394613Y-105345564D01*
X189394615Y-105345565D01*
X189488782Y-105382848D01*
X189544755Y-105426522D01*
X189568232Y-105493525D01*
X189551756Y-105562584D01*
X189500561Y-105611773D01*
X189488782Y-105617152D01*
X189394615Y-105654435D01*
X189394613Y-105654436D01*
X189386632Y-105657596D01*
X189270639Y-105745639D01*
X189182596Y-105861632D01*
X189179436Y-105869613D01*
X189179435Y-105869615D01*
X189166572Y-105902104D01*
X189128989Y-105997028D01*
X189128016Y-106005066D01*
X189128016Y-106005067D01*
X189124271Y-106036014D01*
X189118500Y-106083706D01*
X189118500Y-106982161D01*
X189098498Y-107050282D01*
X189044842Y-107096775D01*
X189033110Y-107101437D01*
X188895148Y-107148403D01*
X188889144Y-107152097D01*
X188751823Y-107236577D01*
X188751820Y-107236579D01*
X188745816Y-107240273D01*
X188740781Y-107245204D01*
X188740778Y-107245206D01*
X188625581Y-107358016D01*
X188620549Y-107362944D01*
X188525572Y-107510319D01*
X188523163Y-107516939D01*
X188523161Y-107516942D01*
X188470122Y-107662667D01*
X188465606Y-107675074D01*
X188464723Y-107682062D01*
X188464723Y-107682063D01*
X188462214Y-107701928D01*
X188443632Y-107849020D01*
X188460741Y-108023511D01*
X188516083Y-108189876D01*
X188519730Y-108195898D01*
X188519731Y-108195900D01*
X188574475Y-108286292D01*
X188606908Y-108339846D01*
X188611797Y-108344909D01*
X188611798Y-108344910D01*
X188632971Y-108366835D01*
X188728701Y-108465966D01*
X188734593Y-108469821D01*
X188734597Y-108469825D01*
X188830774Y-108532761D01*
X188875410Y-108561970D01*
X188882006Y-108564423D01*
X188884326Y-108565595D01*
X188936110Y-108614163D01*
X188947862Y-108642206D01*
X188948467Y-108646802D01*
X189007061Y-108788259D01*
X189100269Y-108909731D01*
X189221741Y-109002939D01*
X189229370Y-109006099D01*
X189236523Y-109010229D01*
X189234944Y-109012963D01*
X189278596Y-109048141D01*
X189301016Y-109115505D01*
X189283457Y-109184296D01*
X189235855Y-109228613D01*
X189236523Y-109229771D01*
X189229370Y-109233901D01*
X189221741Y-109237061D01*
X189100269Y-109330269D01*
X189007061Y-109451741D01*
X189003902Y-109459367D01*
X189003901Y-109459369D01*
X188969181Y-109543191D01*
X188948467Y-109593198D01*
X188947390Y-109601382D01*
X188947389Y-109601384D01*
X188936787Y-109681913D01*
X188933500Y-109706884D01*
X188933500Y-110183116D01*
X188934038Y-110187202D01*
X188934038Y-110187203D01*
X188946387Y-110281000D01*
X188948467Y-110296802D01*
X188951626Y-110304428D01*
X188989653Y-110396232D01*
X189007061Y-110438259D01*
X189100269Y-110559731D01*
X189221741Y-110652939D01*
X189222779Y-110653369D01*
X189269491Y-110702357D01*
X189283500Y-110760097D01*
X189283500Y-114054157D01*
X189282152Y-114066221D01*
X189282642Y-114066260D01*
X189281922Y-114075206D01*
X189279941Y-114083962D01*
X189280497Y-114092922D01*
X189283258Y-114137432D01*
X189283500Y-114145233D01*
X189283500Y-114161366D01*
X189284136Y-114165807D01*
X189284136Y-114165809D01*
X189284976Y-114171677D01*
X189286005Y-114181726D01*
X189287067Y-114198842D01*
X189288924Y-114228768D01*
X189291974Y-114237215D01*
X189292616Y-114240317D01*
X189296701Y-114256702D01*
X189297588Y-114259735D01*
X189298860Y-114268619D01*
X189302574Y-114276786D01*
X189302574Y-114276788D01*
X189318372Y-114311533D01*
X189322185Y-114320902D01*
X189334639Y-114355400D01*
X189338188Y-114365232D01*
X189343479Y-114372475D01*
X189344945Y-114375232D01*
X189353506Y-114389882D01*
X189355196Y-114392524D01*
X189358910Y-114400693D01*
X189364769Y-114407493D01*
X189364771Y-114407496D01*
X189389682Y-114436407D01*
X189395960Y-114444312D01*
X189403951Y-114455250D01*
X189414869Y-114466168D01*
X189421227Y-114473015D01*
X189453616Y-114510604D01*
X189461151Y-114515488D01*
X189467567Y-114521085D01*
X189479192Y-114530491D01*
X189941595Y-114992894D01*
X189975621Y-115055206D01*
X189978500Y-115081989D01*
X189978500Y-115971158D01*
X189979170Y-115975706D01*
X189979170Y-115975713D01*
X189988112Y-116036459D01*
X189989538Y-116046144D01*
X189993853Y-116054932D01*
X189993853Y-116054933D01*
X190011306Y-116090479D01*
X190045513Y-116160151D01*
X190135399Y-116249880D01*
X190249503Y-116305655D01*
X190282284Y-116310437D01*
X190319316Y-116315840D01*
X190319320Y-116315840D01*
X190323842Y-116316500D01*
X192096158Y-116316500D01*
X192100706Y-116315830D01*
X192100713Y-116315830D01*
X192161459Y-116306888D01*
X192161461Y-116306887D01*
X192171144Y-116305462D01*
X192179933Y-116301147D01*
X192275803Y-116254077D01*
X192275804Y-116254076D01*
X192285151Y-116249487D01*
X192374880Y-116159601D01*
X192430655Y-116045497D01*
X192436214Y-116007389D01*
X192440840Y-115975684D01*
X192440840Y-115975680D01*
X192441500Y-115971158D01*
X192441500Y-114198842D01*
X192438093Y-114175693D01*
X192431888Y-114133541D01*
X192431887Y-114133539D01*
X192430462Y-114123856D01*
X192414395Y-114091132D01*
X192379077Y-114019197D01*
X192379076Y-114019196D01*
X192374487Y-114009849D01*
X192316211Y-113951675D01*
X192291972Y-113927478D01*
X192284601Y-113920120D01*
X192170497Y-113864345D01*
X192133598Y-113858962D01*
X192100684Y-113854160D01*
X192100680Y-113854160D01*
X192096158Y-113853500D01*
X191885299Y-113853500D01*
X191817178Y-113833498D01*
X191770685Y-113779842D01*
X191760581Y-113709568D01*
X191790075Y-113644988D01*
X191822299Y-113618381D01*
X191823118Y-113617908D01*
X191828102Y-113615584D01*
X191977821Y-113510750D01*
X192000106Y-113495146D01*
X192000109Y-113495144D01*
X192004617Y-113491987D01*
X192156987Y-113339617D01*
X192169585Y-113321626D01*
X192277427Y-113167611D01*
X192277428Y-113167609D01*
X192280584Y-113163102D01*
X192282907Y-113158120D01*
X192282910Y-113158115D01*
X192369329Y-112972789D01*
X192369330Y-112972787D01*
X192371652Y-112967807D01*
X192380881Y-112933366D01*
X192425999Y-112764980D01*
X192425999Y-112764978D01*
X192427423Y-112759665D01*
X192446204Y-112545000D01*
X192427423Y-112330335D01*
X192425999Y-112325020D01*
X192373075Y-112127503D01*
X192373074Y-112127501D01*
X192371652Y-112122193D01*
X192356931Y-112090624D01*
X192282910Y-111931885D01*
X192282907Y-111931880D01*
X192280584Y-111926898D01*
X192170709Y-111769980D01*
X192160146Y-111754894D01*
X192160144Y-111754891D01*
X192156987Y-111750383D01*
X192015547Y-111608943D01*
X191981521Y-111546631D01*
X191986586Y-111475816D01*
X192015529Y-111430770D01*
X192018039Y-111428260D01*
X192027540Y-111420667D01*
X192027221Y-111420292D01*
X192034054Y-111414477D01*
X192041648Y-111409685D01*
X192077124Y-111369515D01*
X192082470Y-111363829D01*
X192093864Y-111352435D01*
X192100105Y-111344108D01*
X192106482Y-111336275D01*
X192131747Y-111307668D01*
X192131749Y-111307665D01*
X192137689Y-111300939D01*
X192141505Y-111292811D01*
X192143243Y-111290165D01*
X192151950Y-111275675D01*
X192153460Y-111272916D01*
X192158843Y-111265734D01*
X192175396Y-111221578D01*
X192179309Y-111212292D01*
X192199349Y-111169609D01*
X192200731Y-111160736D01*
X192201656Y-111157709D01*
X192205944Y-111141365D01*
X192206622Y-111138283D01*
X192209771Y-111129882D01*
X192213264Y-111082875D01*
X192214418Y-111072827D01*
X192216500Y-111059456D01*
X192216500Y-111044014D01*
X192216846Y-111034676D01*
X192219858Y-110994144D01*
X192220523Y-110985196D01*
X192218650Y-110976422D01*
X192218072Y-110967941D01*
X192216500Y-110953050D01*
X192216500Y-110770097D01*
X192236502Y-110701976D01*
X192276818Y-110663536D01*
X192278259Y-110662939D01*
X192399731Y-110569731D01*
X192419467Y-110544011D01*
X192492537Y-110448783D01*
X192549875Y-110406916D01*
X192620746Y-110402694D01*
X192682649Y-110437458D01*
X192715930Y-110500170D01*
X192718500Y-110525487D01*
X192718500Y-125252500D01*
X192698498Y-125320621D01*
X192644842Y-125367114D01*
X192592500Y-125378500D01*
X188537975Y-125378500D01*
X188469854Y-125358498D01*
X188423361Y-125304842D01*
X188413257Y-125234568D01*
X188416982Y-125218012D01*
X188420655Y-125210497D01*
X188422067Y-125200820D01*
X188430840Y-125140684D01*
X188430840Y-125140680D01*
X188431500Y-125136158D01*
X188431500Y-123363842D01*
X188421983Y-123299183D01*
X188421888Y-123298541D01*
X188421887Y-123298539D01*
X188420462Y-123288856D01*
X188364487Y-123174849D01*
X188274601Y-123085120D01*
X188160497Y-123029345D01*
X188127716Y-123024563D01*
X188090684Y-123019160D01*
X188090680Y-123019160D01*
X188086158Y-123018500D01*
X187875299Y-123018500D01*
X187807178Y-122998498D01*
X187760685Y-122944842D01*
X187750581Y-122874568D01*
X187780075Y-122809988D01*
X187812299Y-122783381D01*
X187813118Y-122782908D01*
X187818102Y-122780584D01*
X187936546Y-122697649D01*
X187990106Y-122660146D01*
X187990109Y-122660144D01*
X187994617Y-122656987D01*
X188146987Y-122504617D01*
X188155204Y-122492883D01*
X188267427Y-122332611D01*
X188267428Y-122332609D01*
X188270584Y-122328102D01*
X188272907Y-122323120D01*
X188272910Y-122323115D01*
X188359329Y-122137789D01*
X188359330Y-122137787D01*
X188361652Y-122132807D01*
X188363996Y-122124061D01*
X188415999Y-121929980D01*
X188415999Y-121929978D01*
X188417423Y-121924665D01*
X188436204Y-121710000D01*
X188417423Y-121495335D01*
X188398628Y-121425190D01*
X188363075Y-121292503D01*
X188363074Y-121292501D01*
X188361652Y-121287193D01*
X188331293Y-121222088D01*
X188272910Y-121096885D01*
X188272907Y-121096880D01*
X188270584Y-121091898D01*
X188255078Y-121069753D01*
X188150146Y-120919894D01*
X188150144Y-120919891D01*
X188146987Y-120915383D01*
X187994617Y-120763013D01*
X187990109Y-120759856D01*
X187990106Y-120759854D01*
X187822611Y-120642573D01*
X187822609Y-120642572D01*
X187818102Y-120639416D01*
X187813120Y-120637093D01*
X187813115Y-120637090D01*
X187635346Y-120554195D01*
X187582061Y-120507277D01*
X187562600Y-120439000D01*
X187583142Y-120371040D01*
X187635346Y-120325805D01*
X187813115Y-120242910D01*
X187813120Y-120242907D01*
X187818102Y-120240584D01*
X187822611Y-120237427D01*
X187990106Y-120120146D01*
X187990109Y-120120144D01*
X187994617Y-120116987D01*
X188146987Y-119964617D01*
X188150409Y-119959731D01*
X188267427Y-119792611D01*
X188267428Y-119792609D01*
X188270584Y-119788102D01*
X188272907Y-119783120D01*
X188272910Y-119783115D01*
X188358902Y-119598705D01*
X188717001Y-119598705D01*
X188717264Y-119604454D01*
X188723132Y-119668315D01*
X188725743Y-119681351D01*
X188772715Y-119831243D01*
X188778921Y-119844988D01*
X188859824Y-119978574D01*
X188869131Y-119990443D01*
X188979557Y-120100869D01*
X188991426Y-120110176D01*
X189125012Y-120191079D01*
X189138757Y-120197285D01*
X189288644Y-120244256D01*
X189301694Y-120246869D01*
X189356586Y-120251913D01*
X189368124Y-120248525D01*
X189369329Y-120247135D01*
X189371000Y-120239452D01*
X189371000Y-119542115D01*
X189366525Y-119526876D01*
X189365135Y-119525671D01*
X189357452Y-119524000D01*
X188735116Y-119524000D01*
X188719877Y-119528475D01*
X188718672Y-119529865D01*
X188717001Y-119537548D01*
X188717001Y-119598705D01*
X188358902Y-119598705D01*
X188359329Y-119597789D01*
X188359330Y-119597787D01*
X188361652Y-119592807D01*
X188363179Y-119587110D01*
X188415999Y-119389980D01*
X188415999Y-119389978D01*
X188417423Y-119384665D01*
X188436204Y-119170000D01*
X188417423Y-118955335D01*
X188373953Y-118793102D01*
X188363075Y-118752503D01*
X188363074Y-118752501D01*
X188361652Y-118747193D01*
X188354482Y-118731817D01*
X188272910Y-118556885D01*
X188272907Y-118556880D01*
X188270584Y-118551898D01*
X188266928Y-118546677D01*
X188150146Y-118379894D01*
X188150144Y-118379891D01*
X188146987Y-118375383D01*
X187994617Y-118223013D01*
X187990109Y-118219856D01*
X187990106Y-118219854D01*
X187822611Y-118102573D01*
X187822609Y-118102572D01*
X187818102Y-118099416D01*
X187813120Y-118097093D01*
X187813115Y-118097090D01*
X187635346Y-118014195D01*
X187582061Y-117967277D01*
X187562600Y-117899000D01*
X187583142Y-117831040D01*
X187635346Y-117785805D01*
X187813115Y-117702910D01*
X187813120Y-117702907D01*
X187818102Y-117700584D01*
X187876292Y-117659839D01*
X187943566Y-117637151D01*
X188012427Y-117654436D01*
X188037658Y-117673957D01*
X188391753Y-118028052D01*
X188399334Y-118037539D01*
X188399708Y-118037221D01*
X188405523Y-118044054D01*
X188410315Y-118051648D01*
X188450484Y-118087124D01*
X188456171Y-118092470D01*
X188467565Y-118103864D01*
X188475887Y-118110101D01*
X188483725Y-118116482D01*
X188512332Y-118141747D01*
X188512335Y-118141749D01*
X188519061Y-118147689D01*
X188527189Y-118151505D01*
X188529835Y-118153243D01*
X188544325Y-118161950D01*
X188547084Y-118163460D01*
X188554266Y-118168843D01*
X188598422Y-118185396D01*
X188607708Y-118189309D01*
X188650391Y-118209349D01*
X188659264Y-118210731D01*
X188662291Y-118211656D01*
X188678635Y-118215944D01*
X188681717Y-118216622D01*
X188690118Y-118219771D01*
X188699064Y-118220436D01*
X188699065Y-118220436D01*
X188737124Y-118223264D01*
X188747173Y-118224418D01*
X188760544Y-118226500D01*
X188775986Y-118226500D01*
X188785322Y-118226846D01*
X188797689Y-118227765D01*
X188820760Y-118229479D01*
X188887211Y-118254474D01*
X188917016Y-118288149D01*
X188917061Y-118288259D01*
X188922087Y-118294808D01*
X188922088Y-118294811D01*
X188942432Y-118321323D01*
X188968033Y-118387544D01*
X188953769Y-118457092D01*
X188931565Y-118487123D01*
X188869131Y-118549557D01*
X188859824Y-118561426D01*
X188778921Y-118695012D01*
X188772715Y-118708757D01*
X188725744Y-118858644D01*
X188723131Y-118871694D01*
X188717266Y-118935521D01*
X188717000Y-118941309D01*
X188717000Y-118997885D01*
X188721475Y-119013124D01*
X188722865Y-119014329D01*
X188730548Y-119016000D01*
X189753000Y-119016000D01*
X189821121Y-119036002D01*
X189867614Y-119089658D01*
X189879000Y-119142000D01*
X189879000Y-120234884D01*
X189883475Y-120250123D01*
X189884865Y-120251328D01*
X189889294Y-120252291D01*
X189948315Y-120246868D01*
X189961351Y-120244257D01*
X190018437Y-120226368D01*
X190089422Y-120225084D01*
X190149833Y-120262381D01*
X190180489Y-120326418D01*
X190171657Y-120396863D01*
X190126142Y-120451351D01*
X190114296Y-120458365D01*
X190017104Y-120508960D01*
X190011308Y-120511977D01*
X190007175Y-120515080D01*
X190007172Y-120515082D01*
X189833777Y-120645271D01*
X189829642Y-120648376D01*
X189672693Y-120812614D01*
X189669779Y-120816886D01*
X189669778Y-120816887D01*
X189622357Y-120886404D01*
X189544676Y-121000280D01*
X189449028Y-121206336D01*
X189447646Y-121211318D01*
X189447646Y-121211319D01*
X189438784Y-121243276D01*
X189388319Y-121425245D01*
X189364179Y-121651131D01*
X189364476Y-121656283D01*
X189364476Y-121656287D01*
X189369843Y-121749365D01*
X189377256Y-121877927D01*
X189378393Y-121882973D01*
X189378394Y-121882979D01*
X189405255Y-122002167D01*
X189427199Y-122099541D01*
X189429141Y-122104323D01*
X189429142Y-122104327D01*
X189509922Y-122303264D01*
X189512666Y-122310022D01*
X189631363Y-122503718D01*
X189780102Y-122675427D01*
X189954888Y-122820537D01*
X190151028Y-122935152D01*
X190155853Y-122936994D01*
X190155854Y-122936995D01*
X190177448Y-122945241D01*
X190363253Y-123016193D01*
X190368321Y-123017224D01*
X190368324Y-123017225D01*
X190428845Y-123029538D01*
X190585864Y-123061484D01*
X190591037Y-123061674D01*
X190591040Y-123061674D01*
X190807720Y-123069619D01*
X190807724Y-123069619D01*
X190812884Y-123069808D01*
X190818004Y-123069152D01*
X190818006Y-123069152D01*
X190890183Y-123059906D01*
X191038214Y-123040942D01*
X191043163Y-123039457D01*
X191043169Y-123039456D01*
X191250855Y-122977147D01*
X191250854Y-122977147D01*
X191255805Y-122975662D01*
X191459812Y-122875720D01*
X191464017Y-122872720D01*
X191464023Y-122872717D01*
X191640552Y-122746800D01*
X191640554Y-122746798D01*
X191644756Y-122743801D01*
X191805671Y-122583446D01*
X191938235Y-122398964D01*
X191997545Y-122278959D01*
X192036595Y-122199949D01*
X192036596Y-122199947D01*
X192038889Y-122195307D01*
X192090535Y-122025319D01*
X192103426Y-121982890D01*
X192103426Y-121982889D01*
X192104928Y-121977946D01*
X192118743Y-121873013D01*
X192134143Y-121756039D01*
X192134144Y-121756033D01*
X192134580Y-121752717D01*
X192135283Y-121723967D01*
X192136153Y-121688365D01*
X192136153Y-121688360D01*
X192136235Y-121685000D01*
X192117621Y-121458592D01*
X192062278Y-121238264D01*
X191986824Y-121064731D01*
X191973754Y-121034671D01*
X191973752Y-121034668D01*
X191971694Y-121029934D01*
X191848300Y-120839195D01*
X191828002Y-120816887D01*
X191698888Y-120674994D01*
X191698886Y-120674993D01*
X191695410Y-120671172D01*
X191691359Y-120667973D01*
X191691355Y-120667969D01*
X191521474Y-120533805D01*
X191480411Y-120475888D01*
X191477179Y-120404965D01*
X191510471Y-120345828D01*
X191583052Y-120273247D01*
X191592539Y-120265666D01*
X191592221Y-120265292D01*
X191599054Y-120259477D01*
X191606648Y-120254685D01*
X191642124Y-120214515D01*
X191647470Y-120208829D01*
X191658864Y-120197435D01*
X191665103Y-120189110D01*
X191671487Y-120181268D01*
X191696747Y-120152667D01*
X191702689Y-120145939D01*
X191706503Y-120137815D01*
X191708237Y-120135176D01*
X191716936Y-120120700D01*
X191718460Y-120117916D01*
X191723842Y-120110735D01*
X191726993Y-120102331D01*
X191731304Y-120094456D01*
X191734595Y-120096258D01*
X191766614Y-120053643D01*
X191766707Y-120053582D01*
X191768259Y-120052939D01*
X191889731Y-119959731D01*
X191982939Y-119838259D01*
X192011835Y-119768500D01*
X192038374Y-119704428D01*
X192041533Y-119696802D01*
X192045284Y-119668315D01*
X192055962Y-119587203D01*
X192055962Y-119587202D01*
X192056500Y-119583116D01*
X192056500Y-118956884D01*
X192051447Y-118918500D01*
X192042611Y-118851384D01*
X192042610Y-118851382D01*
X192041533Y-118843198D01*
X192001766Y-118747193D01*
X191986099Y-118709369D01*
X191986098Y-118709367D01*
X191982939Y-118701741D01*
X191889731Y-118580269D01*
X191889882Y-118580153D01*
X191858008Y-118521783D01*
X191863073Y-118450968D01*
X191889423Y-118409967D01*
X191889731Y-118409731D01*
X191982939Y-118288259D01*
X191988786Y-118274145D01*
X192023923Y-118189316D01*
X192041533Y-118146802D01*
X192047604Y-118100693D01*
X192055962Y-118037203D01*
X192055962Y-118037202D01*
X192056500Y-118033116D01*
X192056500Y-117406884D01*
X192055962Y-117402797D01*
X192042611Y-117301384D01*
X192042610Y-117301382D01*
X192041533Y-117293198D01*
X191989062Y-117166523D01*
X191986099Y-117159369D01*
X191986098Y-117159367D01*
X191982939Y-117151741D01*
X191889731Y-117030269D01*
X191768259Y-116937061D01*
X191760633Y-116933902D01*
X191760631Y-116933901D01*
X191634428Y-116881626D01*
X191634429Y-116881626D01*
X191626802Y-116878467D01*
X191618618Y-116877390D01*
X191618616Y-116877389D01*
X191517203Y-116864038D01*
X191517202Y-116864038D01*
X191513116Y-116863500D01*
X191036884Y-116863500D01*
X191032798Y-116864038D01*
X191032797Y-116864038D01*
X190931384Y-116877389D01*
X190931382Y-116877390D01*
X190923198Y-116878467D01*
X190915571Y-116881626D01*
X190915572Y-116881626D01*
X190789369Y-116933901D01*
X190789367Y-116933902D01*
X190781741Y-116937061D01*
X190660269Y-117030269D01*
X190567061Y-117151741D01*
X190563901Y-117159369D01*
X190559771Y-117166523D01*
X190557037Y-117164944D01*
X190521859Y-117208596D01*
X190454495Y-117231016D01*
X190385704Y-117213457D01*
X190341387Y-117165855D01*
X190340229Y-117166523D01*
X190336099Y-117159369D01*
X190332939Y-117151741D01*
X190239731Y-117030269D01*
X190118259Y-116937061D01*
X190110633Y-116933902D01*
X190110631Y-116933901D01*
X189984428Y-116881626D01*
X189984429Y-116881626D01*
X189976802Y-116878467D01*
X189968618Y-116877390D01*
X189968616Y-116877389D01*
X189867203Y-116864038D01*
X189867202Y-116864038D01*
X189863116Y-116863500D01*
X189386884Y-116863500D01*
X189382798Y-116864038D01*
X189382797Y-116864038D01*
X189281384Y-116877389D01*
X189281382Y-116877390D01*
X189273198Y-116878467D01*
X189265571Y-116881626D01*
X189265572Y-116881626D01*
X189139369Y-116933901D01*
X189139367Y-116933902D01*
X189131741Y-116937061D01*
X189010269Y-117030269D01*
X189007062Y-117034448D01*
X188945963Y-117067812D01*
X188875148Y-117062747D01*
X188830085Y-117033786D01*
X188469583Y-116673284D01*
X188435557Y-116610972D01*
X188433157Y-116595171D01*
X188424178Y-116492545D01*
X188417423Y-116415335D01*
X188415999Y-116410020D01*
X188363075Y-116212503D01*
X188363074Y-116212501D01*
X188361652Y-116207193D01*
X188359329Y-116202211D01*
X188272910Y-116016885D01*
X188272907Y-116016880D01*
X188270584Y-116011898D01*
X188238856Y-115966585D01*
X188150146Y-115839894D01*
X188150144Y-115839891D01*
X188146987Y-115835383D01*
X187994617Y-115683013D01*
X187990109Y-115679856D01*
X187990106Y-115679854D01*
X187822611Y-115562573D01*
X187822609Y-115562572D01*
X187818102Y-115559416D01*
X187813120Y-115557093D01*
X187813115Y-115557090D01*
X187635346Y-115474195D01*
X187582061Y-115427277D01*
X187562600Y-115359000D01*
X187583142Y-115291040D01*
X187635346Y-115245805D01*
X187813115Y-115162910D01*
X187813120Y-115162907D01*
X187818102Y-115160584D01*
X187822611Y-115157427D01*
X187990106Y-115040146D01*
X187990109Y-115040144D01*
X187994617Y-115036987D01*
X188146987Y-114884617D01*
X188166071Y-114857363D01*
X188267427Y-114712611D01*
X188267428Y-114712609D01*
X188270584Y-114708102D01*
X188272907Y-114703120D01*
X188272910Y-114703115D01*
X188359329Y-114517789D01*
X188359330Y-114517787D01*
X188361652Y-114512807D01*
X188367873Y-114489592D01*
X188415999Y-114309980D01*
X188415999Y-114309978D01*
X188417423Y-114304665D01*
X188436204Y-114090000D01*
X188417423Y-113875335D01*
X188415999Y-113870020D01*
X188363075Y-113672503D01*
X188363074Y-113672501D01*
X188361652Y-113667193D01*
X188342431Y-113625974D01*
X188272910Y-113476885D01*
X188272907Y-113476880D01*
X188270584Y-113471898D01*
X188254748Y-113449282D01*
X188150146Y-113299894D01*
X188150144Y-113299891D01*
X188146987Y-113295383D01*
X187994617Y-113143013D01*
X187990109Y-113139856D01*
X187990106Y-113139854D01*
X187822611Y-113022573D01*
X187822609Y-113022572D01*
X187818102Y-113019416D01*
X187813120Y-113017093D01*
X187813115Y-113017090D01*
X187635346Y-112934195D01*
X187582061Y-112887277D01*
X187562600Y-112819000D01*
X187583142Y-112751040D01*
X187635346Y-112705805D01*
X187813115Y-112622910D01*
X187813120Y-112622907D01*
X187818102Y-112620584D01*
X187882396Y-112575565D01*
X187990106Y-112500146D01*
X187990109Y-112500144D01*
X187994617Y-112496987D01*
X188146987Y-112344617D01*
X188152913Y-112336155D01*
X188267427Y-112172611D01*
X188267428Y-112172609D01*
X188270584Y-112168102D01*
X188272907Y-112163120D01*
X188272910Y-112163115D01*
X188359329Y-111977789D01*
X188359330Y-111977787D01*
X188361652Y-111972807D01*
X188375162Y-111922389D01*
X188415999Y-111769980D01*
X188415999Y-111769978D01*
X188417423Y-111764665D01*
X188436204Y-111550000D01*
X188417423Y-111335335D01*
X188403311Y-111282669D01*
X188363075Y-111132503D01*
X188363074Y-111132501D01*
X188361652Y-111127193D01*
X188354452Y-111111753D01*
X188272910Y-110936885D01*
X188272907Y-110936880D01*
X188270584Y-110931898D01*
X188216577Y-110854768D01*
X188150146Y-110759894D01*
X188150144Y-110759891D01*
X188146987Y-110755383D01*
X187994617Y-110603013D01*
X187990109Y-110599856D01*
X187990106Y-110599854D01*
X187822611Y-110482573D01*
X187822609Y-110482572D01*
X187818102Y-110479416D01*
X187813120Y-110477093D01*
X187813115Y-110477090D01*
X187635346Y-110394195D01*
X187582061Y-110347277D01*
X187562600Y-110279000D01*
X187583142Y-110211040D01*
X187635346Y-110165805D01*
X187813115Y-110082910D01*
X187813120Y-110082907D01*
X187818102Y-110080584D01*
X187828338Y-110073417D01*
X187990106Y-109960146D01*
X187990109Y-109960144D01*
X187994617Y-109956987D01*
X188146987Y-109804617D01*
X188153440Y-109795402D01*
X188267427Y-109632611D01*
X188267428Y-109632609D01*
X188270584Y-109628102D01*
X188272907Y-109623120D01*
X188272910Y-109623115D01*
X188359329Y-109437789D01*
X188359330Y-109437787D01*
X188361652Y-109432807D01*
X188390473Y-109325247D01*
X188415999Y-109229980D01*
X188415999Y-109229978D01*
X188417423Y-109224665D01*
X188436204Y-109010000D01*
X188417423Y-108795335D01*
X188415527Y-108788259D01*
X188363075Y-108592503D01*
X188363074Y-108592501D01*
X188361652Y-108587193D01*
X188348093Y-108558115D01*
X188272910Y-108396885D01*
X188272907Y-108396880D01*
X188270584Y-108391898D01*
X188251695Y-108364922D01*
X188150146Y-108219894D01*
X188150144Y-108219891D01*
X188146987Y-108215383D01*
X187994617Y-108063013D01*
X187990109Y-108059856D01*
X187990106Y-108059854D01*
X187822611Y-107942573D01*
X187822609Y-107942572D01*
X187818102Y-107939416D01*
X187813120Y-107937093D01*
X187813115Y-107937090D01*
X187635346Y-107854195D01*
X187582061Y-107807277D01*
X187562600Y-107739000D01*
X187583142Y-107671040D01*
X187635346Y-107625805D01*
X187813115Y-107542910D01*
X187813120Y-107542907D01*
X187818102Y-107540584D01*
X187830637Y-107531807D01*
X187990106Y-107420146D01*
X187990109Y-107420144D01*
X187994617Y-107416987D01*
X188146987Y-107264617D01*
X188195692Y-107195060D01*
X188267427Y-107092611D01*
X188267428Y-107092609D01*
X188270584Y-107088102D01*
X188272907Y-107083120D01*
X188272910Y-107083115D01*
X188359329Y-106897789D01*
X188359330Y-106897787D01*
X188361652Y-106892807D01*
X188417423Y-106684665D01*
X188436204Y-106470000D01*
X188417423Y-106255335D01*
X188384620Y-106132910D01*
X188363075Y-106052503D01*
X188363074Y-106052501D01*
X188361652Y-106047193D01*
X188342008Y-106005067D01*
X188272910Y-105856885D01*
X188272907Y-105856880D01*
X188270584Y-105851898D01*
X188260226Y-105837105D01*
X188150146Y-105679894D01*
X188150144Y-105679891D01*
X188146987Y-105675383D01*
X187994617Y-105523013D01*
X187990109Y-105519856D01*
X187990106Y-105519854D01*
X187822611Y-105402573D01*
X187822609Y-105402572D01*
X187818102Y-105399416D01*
X187813120Y-105397093D01*
X187813115Y-105397090D01*
X187635346Y-105314195D01*
X187582061Y-105267277D01*
X187562600Y-105199000D01*
X187583142Y-105131040D01*
X187635346Y-105085805D01*
X187813115Y-105002910D01*
X187813120Y-105002907D01*
X187818102Y-105000584D01*
X187822611Y-104997427D01*
X187990106Y-104880146D01*
X187990109Y-104880144D01*
X187994617Y-104876987D01*
X188146987Y-104724617D01*
X188150150Y-104720101D01*
X188267427Y-104552611D01*
X188267428Y-104552609D01*
X188270584Y-104548102D01*
X188272907Y-104543120D01*
X188272910Y-104543115D01*
X188359329Y-104357789D01*
X188359330Y-104357787D01*
X188361652Y-104352807D01*
X188363559Y-104345692D01*
X188415999Y-104149980D01*
X188415999Y-104149978D01*
X188417423Y-104144665D01*
X188436204Y-103930000D01*
X188417423Y-103715335D01*
X188361652Y-103507193D01*
X188359328Y-103502209D01*
X188358885Y-103500992D01*
X188354380Y-103430139D01*
X188388897Y-103368098D01*
X188451477Y-103334566D01*
X188522250Y-103340191D01*
G37*
%TD.AperFunction*%
%TA.AperFunction,Conductor*%
G36*
X178865012Y-120556765D02*
G01*
X178871595Y-120562894D01*
X180416753Y-122108052D01*
X180424334Y-122117539D01*
X180424708Y-122117221D01*
X180430523Y-122124054D01*
X180435315Y-122131648D01*
X180466831Y-122159482D01*
X180475484Y-122167124D01*
X180481171Y-122172470D01*
X180492565Y-122183864D01*
X180500851Y-122190074D01*
X180500887Y-122190101D01*
X180508725Y-122196482D01*
X180537332Y-122221747D01*
X180537335Y-122221749D01*
X180544061Y-122227689D01*
X180552189Y-122231505D01*
X180554835Y-122233243D01*
X180569325Y-122241950D01*
X180572084Y-122243460D01*
X180579266Y-122248843D01*
X180623422Y-122265396D01*
X180632708Y-122269309D01*
X180675391Y-122289349D01*
X180684264Y-122290731D01*
X180687291Y-122291656D01*
X180703635Y-122295944D01*
X180706717Y-122296622D01*
X180715118Y-122299771D01*
X180724064Y-122300436D01*
X180724065Y-122300436D01*
X180762124Y-122303264D01*
X180772173Y-122304418D01*
X180785544Y-122306500D01*
X180800986Y-122306500D01*
X180810324Y-122306846D01*
X180859804Y-122310523D01*
X180868578Y-122308650D01*
X180877059Y-122308072D01*
X180891950Y-122306500D01*
X181883082Y-122306500D01*
X181951203Y-122326502D01*
X181997696Y-122380158D01*
X182007800Y-122450432D01*
X181983908Y-122508065D01*
X181955214Y-122546351D01*
X181946676Y-122561946D01*
X181901522Y-122682394D01*
X181897895Y-122697649D01*
X181892369Y-122748514D01*
X181892000Y-122755328D01*
X181892000Y-123027885D01*
X181896475Y-123043124D01*
X181897865Y-123044329D01*
X181905548Y-123046000D01*
X183153000Y-123046000D01*
X183221121Y-123066002D01*
X183267614Y-123119658D01*
X183279000Y-123172000D01*
X183279000Y-124289884D01*
X183283475Y-124305123D01*
X183284865Y-124306328D01*
X183292548Y-124307999D01*
X183694669Y-124307999D01*
X183701488Y-124307630D01*
X183710230Y-124306680D01*
X183780112Y-124319209D01*
X183832127Y-124367530D01*
X183849761Y-124436302D01*
X183843429Y-124471610D01*
X183829421Y-124513843D01*
X183826555Y-124527210D01*
X183817386Y-124616700D01*
X183821475Y-124630624D01*
X183822865Y-124631829D01*
X183830548Y-124633500D01*
X184928000Y-124633500D01*
X184996121Y-124653502D01*
X185042614Y-124707158D01*
X185054000Y-124759500D01*
X185054000Y-125015500D01*
X185033998Y-125083621D01*
X184980342Y-125130114D01*
X184928000Y-125141500D01*
X183835115Y-125141500D01*
X183819876Y-125145975D01*
X183818671Y-125147365D01*
X183817158Y-125154321D01*
X183817337Y-125157782D01*
X183825816Y-125239496D01*
X183812951Y-125309317D01*
X183764381Y-125361099D01*
X183700489Y-125378500D01*
X173337975Y-125378500D01*
X173269854Y-125358498D01*
X173223361Y-125304842D01*
X173213257Y-125234568D01*
X173216982Y-125218012D01*
X173220655Y-125210497D01*
X173222067Y-125200820D01*
X173230840Y-125140684D01*
X173230840Y-125140680D01*
X173231500Y-125136158D01*
X173231500Y-124807308D01*
X173251502Y-124739187D01*
X173290987Y-124702832D01*
X173290238Y-124701807D01*
X173296485Y-124697244D01*
X173298048Y-124696331D01*
X173298344Y-124696058D01*
X173300239Y-124695050D01*
X173314882Y-124686494D01*
X173317524Y-124684804D01*
X173325693Y-124681090D01*
X173332493Y-124675231D01*
X173332496Y-124675229D01*
X173361407Y-124650318D01*
X173369312Y-124644040D01*
X173380250Y-124636049D01*
X173391168Y-124625131D01*
X173398015Y-124618773D01*
X173428802Y-124592245D01*
X173435604Y-124586384D01*
X173440488Y-124578849D01*
X173446085Y-124572433D01*
X173455491Y-124560808D01*
X173908052Y-124108247D01*
X173917539Y-124100666D01*
X173917221Y-124100292D01*
X173924054Y-124094477D01*
X173931648Y-124089685D01*
X173967124Y-124049515D01*
X173972470Y-124043829D01*
X173983864Y-124032435D01*
X173990103Y-124024110D01*
X173996487Y-124016268D01*
X174021747Y-123987667D01*
X174027689Y-123980939D01*
X174031503Y-123972815D01*
X174033237Y-123970176D01*
X174041936Y-123955700D01*
X174043460Y-123952917D01*
X174048842Y-123945735D01*
X174053623Y-123932982D01*
X174096263Y-123876216D01*
X174162824Y-123851514D01*
X174232173Y-123866720D01*
X174284709Y-123921676D01*
X174335513Y-124025151D01*
X174425399Y-124114880D01*
X174539503Y-124170655D01*
X174572284Y-124175437D01*
X174609316Y-124180840D01*
X174609320Y-124180840D01*
X174613842Y-124181500D01*
X175936158Y-124181500D01*
X175940706Y-124180830D01*
X175940713Y-124180830D01*
X176001459Y-124171888D01*
X176001461Y-124171887D01*
X176011144Y-124170462D01*
X176090502Y-124131499D01*
X176115803Y-124119077D01*
X176115804Y-124119076D01*
X176125151Y-124114487D01*
X176195686Y-124043829D01*
X176207522Y-124031972D01*
X176214880Y-124024601D01*
X176270655Y-123910497D01*
X176275656Y-123876216D01*
X176280259Y-123844669D01*
X181892001Y-123844669D01*
X181892371Y-123851490D01*
X181897895Y-123902352D01*
X181901521Y-123917604D01*
X181946676Y-124038054D01*
X181955214Y-124053649D01*
X182031715Y-124155724D01*
X182044276Y-124168285D01*
X182146351Y-124244786D01*
X182161946Y-124253324D01*
X182282394Y-124298478D01*
X182297649Y-124302105D01*
X182348514Y-124307631D01*
X182355328Y-124308000D01*
X182752885Y-124308000D01*
X182768124Y-124303525D01*
X182769329Y-124302135D01*
X182771000Y-124294452D01*
X182771000Y-123572115D01*
X182766525Y-123556876D01*
X182765135Y-123555671D01*
X182757452Y-123554000D01*
X181910116Y-123554000D01*
X181894877Y-123558475D01*
X181893672Y-123559865D01*
X181892001Y-123567548D01*
X181892001Y-123844669D01*
X176280259Y-123844669D01*
X176280840Y-123840684D01*
X176280840Y-123840680D01*
X176281500Y-123836158D01*
X176281500Y-122763842D01*
X176278992Y-122746800D01*
X176271888Y-122698541D01*
X176271887Y-122698539D01*
X176270462Y-122688856D01*
X176263869Y-122675427D01*
X176219077Y-122584197D01*
X176219076Y-122584196D01*
X176214487Y-122574849D01*
X176143232Y-122503718D01*
X176131972Y-122492478D01*
X176124601Y-122485120D01*
X176115244Y-122480546D01*
X176114258Y-122479843D01*
X176070415Y-122424002D01*
X176062798Y-122382857D01*
X176061583Y-122382916D01*
X176061390Y-122378963D01*
X176061445Y-122375000D01*
X176041901Y-122200764D01*
X176038179Y-122190074D01*
X175986557Y-122041835D01*
X175986556Y-122041833D01*
X175984242Y-122035188D01*
X175959493Y-121995581D01*
X175895065Y-121892474D01*
X175895062Y-121892470D01*
X175891332Y-121886501D01*
X175882835Y-121877944D01*
X175818095Y-121812752D01*
X175784287Y-121750321D01*
X175781500Y-121723967D01*
X175781500Y-121348136D01*
X175801502Y-121280015D01*
X175855158Y-121233522D01*
X175923946Y-121223214D01*
X175986884Y-121231500D01*
X176463116Y-121231500D01*
X176467203Y-121230962D01*
X176568616Y-121217611D01*
X176568618Y-121217610D01*
X176576802Y-121216533D01*
X176657262Y-121183205D01*
X176710631Y-121161099D01*
X176710633Y-121161098D01*
X176718259Y-121157939D01*
X176839731Y-121064731D01*
X176932939Y-120943259D01*
X176936099Y-120935630D01*
X176940229Y-120928477D01*
X176942963Y-120930056D01*
X176978141Y-120886404D01*
X177045505Y-120863984D01*
X177114296Y-120881543D01*
X177158613Y-120929145D01*
X177159771Y-120928477D01*
X177163901Y-120935630D01*
X177167061Y-120943259D01*
X177260269Y-121064731D01*
X177381741Y-121157939D01*
X177389367Y-121161098D01*
X177389369Y-121161099D01*
X177442738Y-121183205D01*
X177523198Y-121216533D01*
X177531382Y-121217610D01*
X177531384Y-121217611D01*
X177632797Y-121230962D01*
X177636884Y-121231500D01*
X178113116Y-121231500D01*
X178117203Y-121230962D01*
X178218616Y-121217611D01*
X178218618Y-121217610D01*
X178226802Y-121216533D01*
X178307262Y-121183205D01*
X178360631Y-121161099D01*
X178360633Y-121161098D01*
X178368259Y-121157939D01*
X178489731Y-121064731D01*
X178582939Y-120943259D01*
X178588786Y-120929145D01*
X178627629Y-120835369D01*
X178641533Y-120801802D01*
X178656500Y-120688116D01*
X178656500Y-120651989D01*
X178676502Y-120583868D01*
X178730158Y-120537375D01*
X178800432Y-120527271D01*
X178865012Y-120556765D01*
G37*
%TD.AperFunction*%
%TA.AperFunction,Conductor*%
G36*
X175801778Y-108179045D02*
G01*
X175844267Y-108207013D01*
X177004676Y-109367422D01*
X177008371Y-109370169D01*
X177008376Y-109370173D01*
X177027667Y-109384513D01*
X177065505Y-109412640D01*
X177074767Y-109415802D01*
X177074769Y-109415803D01*
X177124577Y-109432807D01*
X177185700Y-109453674D01*
X177196111Y-109453665D01*
X177206388Y-109455366D01*
X177206125Y-109456954D01*
X177263028Y-109473609D01*
X177284095Y-109490571D01*
X177403641Y-109610117D01*
X177440291Y-109630130D01*
X177461149Y-109634667D01*
X177489862Y-109656161D01*
X178506595Y-110672894D01*
X178540621Y-110735206D01*
X178543500Y-110761989D01*
X178543500Y-113829157D01*
X178542152Y-113841221D01*
X178542642Y-113841260D01*
X178541922Y-113850206D01*
X178539941Y-113858962D01*
X178540627Y-113870020D01*
X178543258Y-113912432D01*
X178543500Y-113920233D01*
X178543500Y-113936366D01*
X178544136Y-113940807D01*
X178544136Y-113940809D01*
X178544976Y-113946677D01*
X178546005Y-113956726D01*
X178548924Y-114003768D01*
X178551974Y-114012215D01*
X178552616Y-114015317D01*
X178556701Y-114031702D01*
X178557588Y-114034735D01*
X178558860Y-114043619D01*
X178562574Y-114051786D01*
X178562574Y-114051788D01*
X178578372Y-114086533D01*
X178582185Y-114095901D01*
X178598188Y-114140232D01*
X178603479Y-114147475D01*
X178604945Y-114150232D01*
X178613506Y-114164882D01*
X178615196Y-114167524D01*
X178618910Y-114175693D01*
X178624769Y-114182493D01*
X178624771Y-114182496D01*
X178649682Y-114211407D01*
X178655960Y-114219312D01*
X178663951Y-114230250D01*
X178674869Y-114241168D01*
X178681227Y-114248015D01*
X178713616Y-114285604D01*
X178721151Y-114290488D01*
X178727567Y-114296085D01*
X178739192Y-114305491D01*
X179552584Y-115118883D01*
X179586610Y-115181195D01*
X179589342Y-115208397D01*
X179588632Y-115214020D01*
X179589319Y-115221027D01*
X179589319Y-115221030D01*
X179592322Y-115251652D01*
X179605741Y-115388511D01*
X179661083Y-115554876D01*
X179664730Y-115560898D01*
X179664731Y-115560900D01*
X179731945Y-115671884D01*
X179750124Y-115740514D01*
X179728313Y-115808077D01*
X179713264Y-115826250D01*
X179689095Y-115850419D01*
X179626783Y-115884445D01*
X179555968Y-115879380D01*
X179510905Y-115850419D01*
X179190120Y-115529634D01*
X179186430Y-115526891D01*
X179186422Y-115526884D01*
X179133196Y-115487318D01*
X179107342Y-115461497D01*
X179067209Y-115407654D01*
X179067206Y-115407650D01*
X179064479Y-115403992D01*
X178624435Y-114963948D01*
X178620745Y-114961205D01*
X178620737Y-114961198D01*
X178567507Y-114921629D01*
X178541653Y-114895808D01*
X178501523Y-114841969D01*
X178501520Y-114841965D01*
X178498793Y-114838307D01*
X178058749Y-114398263D01*
X178055054Y-114395517D01*
X178055048Y-114395511D01*
X178001823Y-114355944D01*
X177975971Y-114330125D01*
X177935841Y-114276287D01*
X177935832Y-114276277D01*
X177933108Y-114272622D01*
X177493064Y-113832578D01*
X177489374Y-113829835D01*
X177489366Y-113829828D01*
X177436138Y-113790260D01*
X177410284Y-113764440D01*
X177394338Y-113743046D01*
X177367422Y-113706936D01*
X176927378Y-113266892D01*
X176923683Y-113264146D01*
X176923677Y-113264140D01*
X176870452Y-113224573D01*
X176844600Y-113198754D01*
X176804470Y-113144916D01*
X176804461Y-113144906D01*
X176801737Y-113141251D01*
X176361693Y-112701207D01*
X176358003Y-112698464D01*
X176357995Y-112698457D01*
X176304769Y-112658891D01*
X176278915Y-112633070D01*
X176238782Y-112579227D01*
X176238779Y-112579223D01*
X176236052Y-112575565D01*
X175796008Y-112135521D01*
X175792318Y-112132778D01*
X175792310Y-112132771D01*
X175739080Y-112093202D01*
X175713226Y-112067381D01*
X175673096Y-112013542D01*
X175673093Y-112013538D01*
X175670366Y-112009880D01*
X175349581Y-111689095D01*
X175315555Y-111626783D01*
X175320620Y-111555968D01*
X175349581Y-111510905D01*
X175670366Y-111190120D01*
X175673109Y-111186430D01*
X175673116Y-111186422D01*
X175712682Y-111133196D01*
X175738503Y-111107342D01*
X175792346Y-111067209D01*
X175792350Y-111067206D01*
X175796008Y-111064479D01*
X176236052Y-110624435D01*
X176238795Y-110620745D01*
X176238802Y-110620737D01*
X176278371Y-110567507D01*
X176304192Y-110541653D01*
X176358031Y-110501523D01*
X176358035Y-110501520D01*
X176361693Y-110498793D01*
X176684198Y-110176288D01*
X176746510Y-110142262D01*
X176755430Y-110140656D01*
X176818340Y-110131646D01*
X176835403Y-110126656D01*
X176952500Y-110073417D01*
X176965854Y-110065194D01*
X177005735Y-110033128D01*
X177010798Y-110028585D01*
X177044433Y-109994950D01*
X177052045Y-109981008D01*
X177051914Y-109979173D01*
X177047663Y-109972559D01*
X176924792Y-109849688D01*
X176890766Y-109787376D01*
X176888016Y-109761904D01*
X176887887Y-109761134D01*
X176887878Y-109750718D01*
X176846634Y-109630596D01*
X176840793Y-109622759D01*
X176840791Y-109622756D01*
X176813077Y-109585575D01*
X176801737Y-109570361D01*
X175692524Y-108461148D01*
X175662628Y-108413490D01*
X175636181Y-108337545D01*
X175632667Y-108266636D01*
X175668048Y-108205083D01*
X175731091Y-108172431D01*
X175801778Y-108179045D01*
G37*
%TD.AperFunction*%
%TA.AperFunction,Conductor*%
G36*
X179644032Y-107320620D02*
G01*
X179689095Y-107349581D01*
X180009880Y-107670366D01*
X180013570Y-107673109D01*
X180013578Y-107673116D01*
X180066804Y-107712682D01*
X180092658Y-107738503D01*
X180132765Y-107792310D01*
X180135521Y-107796008D01*
X180575565Y-108236052D01*
X180579255Y-108238795D01*
X180579263Y-108238802D01*
X180632493Y-108278371D01*
X180658347Y-108304192D01*
X180695635Y-108354217D01*
X180701207Y-108361693D01*
X180858596Y-108519082D01*
X180892622Y-108581394D01*
X180887557Y-108652209D01*
X180875412Y-108676432D01*
X180795572Y-108800319D01*
X180793163Y-108806939D01*
X180793161Y-108806942D01*
X180738015Y-108958455D01*
X180735606Y-108965074D01*
X180713632Y-109139020D01*
X180730741Y-109313511D01*
X180786083Y-109479876D01*
X180789730Y-109485898D01*
X180789731Y-109485900D01*
X180872832Y-109623115D01*
X180876908Y-109629846D01*
X180881797Y-109634909D01*
X180881798Y-109634910D01*
X180947356Y-109702797D01*
X180998701Y-109755966D01*
X181004593Y-109759821D01*
X181004597Y-109759825D01*
X181073047Y-109804617D01*
X181145410Y-109851970D01*
X181152014Y-109854426D01*
X181303140Y-109910629D01*
X181303142Y-109910629D01*
X181309742Y-109913084D01*
X181316725Y-109914016D01*
X181316726Y-109914016D01*
X181476549Y-109935342D01*
X181476553Y-109935342D01*
X181483530Y-109936273D01*
X181490541Y-109935635D01*
X181490545Y-109935635D01*
X181628105Y-109923115D01*
X181658137Y-109920382D01*
X181664839Y-109918204D01*
X181664841Y-109918204D01*
X181818185Y-109868380D01*
X181818188Y-109868379D01*
X181824884Y-109866203D01*
X181975484Y-109776427D01*
X181976526Y-109778175D01*
X182033556Y-109756461D01*
X182103031Y-109771080D01*
X182132495Y-109792981D01*
X182272622Y-109933108D01*
X182276317Y-109935854D01*
X182276323Y-109935860D01*
X182329548Y-109975427D01*
X182355400Y-110001246D01*
X182395530Y-110055084D01*
X182395539Y-110055094D01*
X182398263Y-110058749D01*
X182838307Y-110498793D01*
X182841997Y-110501536D01*
X182842005Y-110501543D01*
X182895231Y-110541109D01*
X182921085Y-110566930D01*
X182961192Y-110620737D01*
X182963948Y-110624435D01*
X183403992Y-111064479D01*
X183407682Y-111067222D01*
X183407690Y-111067229D01*
X183460920Y-111106798D01*
X183486774Y-111132619D01*
X183526878Y-111186422D01*
X183529634Y-111190120D01*
X183850419Y-111510905D01*
X183884445Y-111573217D01*
X183879380Y-111644032D01*
X183850419Y-111689095D01*
X183529634Y-112009880D01*
X183526891Y-112013570D01*
X183526884Y-112013578D01*
X183487318Y-112066804D01*
X183461497Y-112092658D01*
X183407654Y-112132791D01*
X183407650Y-112132794D01*
X183403992Y-112135521D01*
X182963948Y-112575565D01*
X182961205Y-112579255D01*
X182961198Y-112579263D01*
X182921629Y-112632493D01*
X182895808Y-112658347D01*
X182841969Y-112698477D01*
X182841965Y-112698480D01*
X182838307Y-112701207D01*
X182515802Y-113023712D01*
X182453490Y-113057738D01*
X182444570Y-113059344D01*
X182381660Y-113068354D01*
X182364597Y-113073344D01*
X182247500Y-113126583D01*
X182234146Y-113134806D01*
X182194265Y-113166872D01*
X182189202Y-113171415D01*
X182155567Y-113205050D01*
X182147955Y-113218992D01*
X182148086Y-113220827D01*
X182152337Y-113227441D01*
X182275208Y-113350312D01*
X182309234Y-113412624D01*
X182311984Y-113438096D01*
X182312113Y-113438866D01*
X182312122Y-113449282D01*
X182315504Y-113459132D01*
X182321577Y-113476818D01*
X182353366Y-113569404D01*
X182359207Y-113577241D01*
X182359209Y-113577244D01*
X182366221Y-113586651D01*
X182398263Y-113629639D01*
X183080026Y-114311402D01*
X183114052Y-114373714D01*
X183108987Y-114444529D01*
X183080026Y-114489592D01*
X183055277Y-114514341D01*
X182992965Y-114548367D01*
X182922150Y-114543302D01*
X182877087Y-114514341D01*
X182195324Y-113832578D01*
X182191625Y-113829828D01*
X182191624Y-113829827D01*
X182142353Y-113793201D01*
X182142351Y-113793200D01*
X182134495Y-113787360D01*
X182125233Y-113784198D01*
X182125231Y-113784197D01*
X182024151Y-113749689D01*
X182014300Y-113746326D01*
X182003889Y-113746335D01*
X181993612Y-113744634D01*
X181993875Y-113743046D01*
X181936972Y-113726391D01*
X181915905Y-113709429D01*
X181796359Y-113589883D01*
X181782415Y-113582269D01*
X181780582Y-113582400D01*
X181773967Y-113586651D01*
X181737114Y-113623504D01*
X181732552Y-113628588D01*
X181700491Y-113668461D01*
X181692270Y-113681812D01*
X181639030Y-113798911D01*
X181634040Y-113815974D01*
X181625030Y-113878884D01*
X181595573Y-113943481D01*
X181589398Y-113950116D01*
X181266892Y-114272622D01*
X181264146Y-114276317D01*
X181264140Y-114276323D01*
X181224573Y-114329548D01*
X181198754Y-114355400D01*
X181144916Y-114395530D01*
X181144906Y-114395539D01*
X181141251Y-114398263D01*
X180975648Y-114563866D01*
X180913336Y-114597892D01*
X180842521Y-114592827D01*
X180819042Y-114581158D01*
X180719755Y-114518148D01*
X180689843Y-114507497D01*
X180561220Y-114461696D01*
X180561215Y-114461695D01*
X180554585Y-114459334D01*
X180547597Y-114458501D01*
X180547594Y-114458500D01*
X180427307Y-114444157D01*
X180380490Y-114438574D01*
X180373487Y-114439310D01*
X180373481Y-114439310D01*
X180371837Y-114439483D01*
X180370789Y-114439291D01*
X180366440Y-114439261D01*
X180366445Y-114438497D01*
X180301998Y-114426713D01*
X180269568Y-114403269D01*
X179593405Y-113727106D01*
X179559379Y-113664794D01*
X179556500Y-113638011D01*
X179556500Y-110570843D01*
X179557848Y-110558779D01*
X179557358Y-110558740D01*
X179558078Y-110549794D01*
X179560059Y-110541038D01*
X179556742Y-110487573D01*
X179556500Y-110479772D01*
X179556500Y-110463634D01*
X179555022Y-110453314D01*
X179553992Y-110443259D01*
X179551631Y-110405190D01*
X179551631Y-110405188D01*
X179551075Y-110396232D01*
X179548027Y-110387789D01*
X179547388Y-110384703D01*
X179543294Y-110368282D01*
X179542413Y-110365269D01*
X179541140Y-110356381D01*
X179521621Y-110313452D01*
X179517823Y-110304123D01*
X179501811Y-110259767D01*
X179496511Y-110252512D01*
X179495030Y-110249727D01*
X179486505Y-110235138D01*
X179484808Y-110232484D01*
X179481090Y-110224307D01*
X179475229Y-110217505D01*
X179450326Y-110188604D01*
X179444037Y-110180683D01*
X179438923Y-110173682D01*
X179438913Y-110173670D01*
X179436049Y-110169750D01*
X179425131Y-110158832D01*
X179418773Y-110151985D01*
X179392245Y-110121198D01*
X179386384Y-110114396D01*
X179378849Y-110109512D01*
X179372433Y-110103915D01*
X179360808Y-110094509D01*
X178822116Y-109555817D01*
X178788090Y-109493505D01*
X178793155Y-109422690D01*
X178835702Y-109365854D01*
X178846693Y-109358493D01*
X178884343Y-109336049D01*
X178900484Y-109326427D01*
X178905578Y-109321576D01*
X178905582Y-109321573D01*
X178978548Y-109252088D01*
X179027452Y-109205517D01*
X179101419Y-109094187D01*
X179120576Y-109065354D01*
X179120577Y-109065352D01*
X179124477Y-109059482D01*
X179186737Y-108895581D01*
X179195981Y-108829806D01*
X179210587Y-108725883D01*
X179210588Y-108725875D01*
X179211138Y-108721959D01*
X179211445Y-108700000D01*
X179191901Y-108525764D01*
X179189575Y-108519082D01*
X179136557Y-108366835D01*
X179136556Y-108366833D01*
X179134242Y-108360188D01*
X179041332Y-108211501D01*
X178934317Y-108103737D01*
X178900510Y-108041308D01*
X178905822Y-107970510D01*
X178934628Y-107925859D01*
X179064479Y-107796008D01*
X179067222Y-107792318D01*
X179067229Y-107792310D01*
X179106798Y-107739080D01*
X179132619Y-107713226D01*
X179186458Y-107673096D01*
X179186462Y-107673093D01*
X179190120Y-107670366D01*
X179510905Y-107349581D01*
X179573217Y-107315555D01*
X179644032Y-107320620D01*
G37*
%TD.AperFunction*%
%TA.AperFunction,Conductor*%
G36*
X171834121Y-92841502D02*
G01*
X171880614Y-92895158D01*
X171892000Y-92947500D01*
X171892000Y-93352885D01*
X171896475Y-93368124D01*
X171897865Y-93369329D01*
X171905548Y-93371000D01*
X175918000Y-93371000D01*
X175986121Y-93391002D01*
X176032614Y-93444658D01*
X176044000Y-93497000D01*
X176044000Y-93753000D01*
X176023998Y-93821121D01*
X175970342Y-93867614D01*
X175918000Y-93879000D01*
X171910116Y-93879000D01*
X171894877Y-93883475D01*
X171893672Y-93884865D01*
X171892001Y-93892548D01*
X171892001Y-94519669D01*
X171892371Y-94526490D01*
X171897895Y-94577352D01*
X171901521Y-94592604D01*
X171946676Y-94713054D01*
X171955214Y-94728649D01*
X172031715Y-94830724D01*
X172044278Y-94843287D01*
X172051375Y-94848606D01*
X172093890Y-94905465D01*
X172098914Y-94976284D01*
X172064854Y-95038577D01*
X172002522Y-95072567D01*
X171986796Y-95074951D01*
X171785335Y-95092577D01*
X171780022Y-95094001D01*
X171780020Y-95094001D01*
X171582503Y-95146925D01*
X171582501Y-95146926D01*
X171577193Y-95148348D01*
X171572213Y-95150670D01*
X171572211Y-95150671D01*
X171386885Y-95237090D01*
X171386880Y-95237093D01*
X171381898Y-95239416D01*
X171377391Y-95242572D01*
X171377389Y-95242573D01*
X171209894Y-95359854D01*
X171209891Y-95359856D01*
X171205383Y-95363013D01*
X171053013Y-95515383D01*
X171049856Y-95519891D01*
X171049854Y-95519894D01*
X170960636Y-95647311D01*
X170929416Y-95691898D01*
X170927093Y-95696880D01*
X170927090Y-95696885D01*
X170882046Y-95793482D01*
X170838348Y-95887193D01*
X170782577Y-96095335D01*
X170763796Y-96310000D01*
X170782577Y-96524665D01*
X170784001Y-96529978D01*
X170784001Y-96529980D01*
X170836742Y-96726812D01*
X170838348Y-96732807D01*
X170840670Y-96737787D01*
X170840671Y-96737789D01*
X170927090Y-96923115D01*
X170927093Y-96923120D01*
X170929416Y-96928102D01*
X170932572Y-96932609D01*
X170932573Y-96932611D01*
X171049475Y-97099564D01*
X171053013Y-97104617D01*
X171205383Y-97256987D01*
X171209891Y-97260144D01*
X171209894Y-97260146D01*
X171377389Y-97377427D01*
X171381898Y-97380584D01*
X171386880Y-97382907D01*
X171386885Y-97382910D01*
X171564654Y-97465805D01*
X171617939Y-97512723D01*
X171637400Y-97581000D01*
X171616858Y-97648960D01*
X171564654Y-97694195D01*
X171386885Y-97777090D01*
X171386880Y-97777093D01*
X171381898Y-97779416D01*
X171377391Y-97782572D01*
X171377389Y-97782573D01*
X171209894Y-97899854D01*
X171209891Y-97899856D01*
X171205383Y-97903013D01*
X171053013Y-98055383D01*
X171049856Y-98059891D01*
X171049854Y-98059894D01*
X170943142Y-98212295D01*
X170929416Y-98231898D01*
X170927093Y-98236880D01*
X170927090Y-98236885D01*
X170843626Y-98415875D01*
X170838348Y-98427193D01*
X170836926Y-98432501D01*
X170836925Y-98432503D01*
X170816784Y-98507672D01*
X170782577Y-98635335D01*
X170763796Y-98850000D01*
X170782577Y-99064665D01*
X170784001Y-99069978D01*
X170784001Y-99069980D01*
X170835308Y-99261460D01*
X170838348Y-99272807D01*
X170840670Y-99277787D01*
X170840671Y-99277789D01*
X170927090Y-99463115D01*
X170927093Y-99463120D01*
X170929416Y-99468102D01*
X170932572Y-99472609D01*
X170932573Y-99472611D01*
X171034726Y-99618500D01*
X171053013Y-99644617D01*
X171205383Y-99796987D01*
X171209891Y-99800144D01*
X171209894Y-99800146D01*
X171377389Y-99917427D01*
X171381898Y-99920584D01*
X171386880Y-99922907D01*
X171386885Y-99922910D01*
X171564654Y-100005805D01*
X171617939Y-100052723D01*
X171637400Y-100121000D01*
X171616858Y-100188960D01*
X171564654Y-100234195D01*
X171386885Y-100317090D01*
X171386880Y-100317093D01*
X171381898Y-100319416D01*
X171377391Y-100322572D01*
X171377389Y-100322573D01*
X171209894Y-100439854D01*
X171209891Y-100439856D01*
X171205383Y-100443013D01*
X171053013Y-100595383D01*
X171049856Y-100599891D01*
X171049854Y-100599894D01*
X170976148Y-100705158D01*
X170929416Y-100771898D01*
X170927093Y-100776880D01*
X170927090Y-100776885D01*
X170840671Y-100962211D01*
X170838348Y-100967193D01*
X170836926Y-100972501D01*
X170836925Y-100972503D01*
X170808003Y-101080443D01*
X170782577Y-101175335D01*
X170763796Y-101390000D01*
X170782577Y-101604665D01*
X170784001Y-101609978D01*
X170784001Y-101609980D01*
X170836925Y-101807495D01*
X170838348Y-101812807D01*
X170840670Y-101817787D01*
X170840671Y-101817789D01*
X170927090Y-102003115D01*
X170927093Y-102003120D01*
X170929416Y-102008102D01*
X170932572Y-102012609D01*
X170932573Y-102012611D01*
X171045117Y-102173340D01*
X171053013Y-102184617D01*
X171205383Y-102336987D01*
X171209891Y-102340144D01*
X171209894Y-102340146D01*
X171359613Y-102444980D01*
X171381898Y-102460584D01*
X171386880Y-102462907D01*
X171386885Y-102462910D01*
X171413907Y-102475510D01*
X171467192Y-102522427D01*
X171486653Y-102590704D01*
X171466111Y-102658664D01*
X171418837Y-102701468D01*
X171278466Y-102774540D01*
X171269734Y-102780039D01*
X171249677Y-102795099D01*
X171241223Y-102806427D01*
X171247968Y-102818758D01*
X171987188Y-103557978D01*
X172001132Y-103565592D01*
X172002965Y-103565461D01*
X172009580Y-103561210D01*
X172753389Y-102817401D01*
X172760410Y-102804544D01*
X172753611Y-102795213D01*
X172749563Y-102792524D01*
X172580364Y-102699121D01*
X172530394Y-102648688D01*
X172515622Y-102579245D01*
X172540738Y-102512840D01*
X172588008Y-102474617D01*
X172613115Y-102462910D01*
X172613120Y-102462907D01*
X172618102Y-102460584D01*
X172640387Y-102444980D01*
X172790106Y-102340146D01*
X172790109Y-102340144D01*
X172794617Y-102336987D01*
X172946987Y-102184617D01*
X172954884Y-102173340D01*
X173067427Y-102012611D01*
X173067428Y-102012609D01*
X173070584Y-102008102D01*
X173072907Y-102003120D01*
X173072910Y-102003115D01*
X173159329Y-101817789D01*
X173159330Y-101817787D01*
X173161652Y-101812807D01*
X173163075Y-101807497D01*
X173163076Y-101807495D01*
X173184037Y-101729263D01*
X173220988Y-101668640D01*
X173284848Y-101637618D01*
X173355343Y-101646046D01*
X173384476Y-101665764D01*
X173385269Y-101664731D01*
X173506741Y-101757939D01*
X173514367Y-101761098D01*
X173514376Y-101761103D01*
X173546717Y-101774499D01*
X173601998Y-101819047D01*
X173617011Y-101848121D01*
X173620979Y-101859111D01*
X173623188Y-101865231D01*
X173620660Y-101866144D01*
X173632168Y-101922002D01*
X173618519Y-101965657D01*
X173619432Y-101966035D01*
X173558950Y-102112053D01*
X173543500Y-102229405D01*
X173543501Y-102820594D01*
X173544039Y-102824678D01*
X173544039Y-102824683D01*
X173557872Y-102929759D01*
X173558950Y-102937947D01*
X173619432Y-103083965D01*
X173715646Y-103209354D01*
X173722192Y-103214377D01*
X173727251Y-103218259D01*
X173841035Y-103305568D01*
X173987053Y-103366050D01*
X174104405Y-103381500D01*
X174362437Y-103381500D01*
X174620594Y-103381499D01*
X174624678Y-103380961D01*
X174624683Y-103380961D01*
X174729759Y-103367128D01*
X174729760Y-103367128D01*
X174737947Y-103366050D01*
X174883965Y-103305568D01*
X174890516Y-103300541D01*
X174890520Y-103300539D01*
X174983699Y-103229041D01*
X175049919Y-103203441D01*
X175119468Y-103217706D01*
X175149420Y-103239831D01*
X175260080Y-103350298D01*
X175271491Y-103359310D01*
X175403291Y-103440553D01*
X175416468Y-103446697D01*
X175563843Y-103495579D01*
X175577211Y-103498445D01*
X175592447Y-103500006D01*
X175658174Y-103526848D01*
X175698956Y-103584963D01*
X175702805Y-103651758D01*
X175701643Y-103657181D01*
X175692328Y-103748097D01*
X175692000Y-103754514D01*
X175692000Y-103842500D01*
X175671998Y-103910621D01*
X175618342Y-103957114D01*
X175566000Y-103968500D01*
X173738842Y-103968500D01*
X173734294Y-103969170D01*
X173734287Y-103969170D01*
X173673541Y-103978112D01*
X173673539Y-103978113D01*
X173663856Y-103979538D01*
X173549849Y-104035513D01*
X173548896Y-104033572D01*
X173494739Y-104052467D01*
X173425702Y-104035901D01*
X173376581Y-103984641D01*
X173362482Y-103930250D01*
X173362378Y-103926646D01*
X173344781Y-103712604D01*
X173343096Y-103702424D01*
X173291214Y-103495875D01*
X173287894Y-103486124D01*
X173202972Y-103290814D01*
X173198105Y-103281739D01*
X173133063Y-103181197D01*
X173122377Y-103171995D01*
X173112812Y-103176398D01*
X171246737Y-105042473D01*
X171239977Y-105054853D01*
X171245258Y-105061907D01*
X171406753Y-105156277D01*
X171411283Y-105158448D01*
X171464072Y-105205922D01*
X171482815Y-105274400D01*
X171461560Y-105342140D01*
X171410085Y-105386272D01*
X171386889Y-105397088D01*
X171386886Y-105397090D01*
X171381898Y-105399416D01*
X171377391Y-105402572D01*
X171377389Y-105402573D01*
X171209894Y-105519854D01*
X171209891Y-105519856D01*
X171205383Y-105523013D01*
X171053013Y-105675383D01*
X171049856Y-105679891D01*
X171049854Y-105679894D01*
X170939774Y-105837105D01*
X170929416Y-105851898D01*
X170927093Y-105856880D01*
X170927090Y-105856885D01*
X170857992Y-106005067D01*
X170838348Y-106047193D01*
X170836926Y-106052501D01*
X170836925Y-106052503D01*
X170815380Y-106132910D01*
X170782577Y-106255335D01*
X170763796Y-106470000D01*
X170782577Y-106684665D01*
X170838348Y-106892807D01*
X170840670Y-106897787D01*
X170840671Y-106897789D01*
X170927090Y-107083115D01*
X170927093Y-107083120D01*
X170929416Y-107088102D01*
X170932572Y-107092609D01*
X170932573Y-107092611D01*
X171004309Y-107195060D01*
X171053013Y-107264617D01*
X171205383Y-107416987D01*
X171209891Y-107420144D01*
X171209894Y-107420146D01*
X171369363Y-107531807D01*
X171381898Y-107540584D01*
X171386880Y-107542907D01*
X171386885Y-107542910D01*
X171564654Y-107625805D01*
X171617939Y-107672723D01*
X171637400Y-107741000D01*
X171616858Y-107808960D01*
X171564654Y-107854195D01*
X171386885Y-107937090D01*
X171386880Y-107937093D01*
X171381898Y-107939416D01*
X171377391Y-107942572D01*
X171377389Y-107942573D01*
X171209894Y-108059854D01*
X171209891Y-108059856D01*
X171205383Y-108063013D01*
X171053013Y-108215383D01*
X171049856Y-108219891D01*
X171049854Y-108219894D01*
X170948305Y-108364922D01*
X170929416Y-108391898D01*
X170927093Y-108396880D01*
X170927090Y-108396885D01*
X170851907Y-108558115D01*
X170838348Y-108587193D01*
X170836926Y-108592501D01*
X170836925Y-108592503D01*
X170784473Y-108788259D01*
X170782577Y-108795335D01*
X170782098Y-108800811D01*
X170782097Y-108800816D01*
X170777779Y-108850170D01*
X170773231Y-108902167D01*
X170772752Y-108907638D01*
X170746889Y-108973757D01*
X170689385Y-109015396D01*
X170618498Y-109019337D01*
X170556733Y-108984328D01*
X170533602Y-108951103D01*
X170531556Y-108946832D01*
X170529242Y-108940188D01*
X170519598Y-108924753D01*
X170440064Y-108797473D01*
X170440063Y-108797471D01*
X170436332Y-108791501D01*
X170425538Y-108780631D01*
X170317754Y-108672094D01*
X170312789Y-108667094D01*
X170306846Y-108663322D01*
X170306843Y-108663320D01*
X170186886Y-108587193D01*
X170164755Y-108573148D01*
X170099717Y-108549989D01*
X170006220Y-108516696D01*
X170006215Y-108516695D01*
X169999585Y-108514334D01*
X169992597Y-108513501D01*
X169992594Y-108513500D01*
X169872307Y-108499157D01*
X169825490Y-108493574D01*
X169818487Y-108494310D01*
X169818486Y-108494310D01*
X169658122Y-108511165D01*
X169658120Y-108511166D01*
X169651122Y-108511901D01*
X169548104Y-108546971D01*
X169477173Y-108549989D01*
X169415869Y-108514179D01*
X169383658Y-108450910D01*
X169381500Y-108427693D01*
X169381500Y-103901863D01*
X170638050Y-103901863D01*
X170650309Y-104114477D01*
X170651745Y-104124697D01*
X170698565Y-104332446D01*
X170701645Y-104342275D01*
X170781770Y-104539603D01*
X170786413Y-104548794D01*
X170866460Y-104679420D01*
X170876916Y-104688880D01*
X170885694Y-104685096D01*
X171627978Y-103942812D01*
X171635592Y-103928868D01*
X171635461Y-103927035D01*
X171631210Y-103920420D01*
X170889849Y-103179059D01*
X170878313Y-103172759D01*
X170866031Y-103182382D01*
X170818089Y-103252662D01*
X170813004Y-103261613D01*
X170723338Y-103454783D01*
X170719775Y-103464470D01*
X170662864Y-103669681D01*
X170660933Y-103679800D01*
X170638302Y-103891574D01*
X170638050Y-103901863D01*
X169381500Y-103901863D01*
X169381500Y-92947500D01*
X169401502Y-92879379D01*
X169455158Y-92832886D01*
X169507500Y-92821500D01*
X171766000Y-92821500D01*
X171834121Y-92841502D01*
G37*
%TD.AperFunction*%
%TA.AperFunction,Conductor*%
G36*
X189286132Y-98126502D02*
G01*
X189307106Y-98143405D01*
X191115606Y-99951905D01*
X191149632Y-100014217D01*
X191144567Y-100085032D01*
X191102020Y-100141868D01*
X191035500Y-100166679D01*
X191026511Y-100167000D01*
X191022115Y-100167000D01*
X191006876Y-100171475D01*
X191005671Y-100172865D01*
X191004000Y-100180548D01*
X191004000Y-101253000D01*
X190983998Y-101321121D01*
X190930342Y-101367614D01*
X190878000Y-101379000D01*
X190622000Y-101379000D01*
X190553879Y-101358998D01*
X190507386Y-101305342D01*
X190496000Y-101253000D01*
X190496000Y-100185115D01*
X190491525Y-100169876D01*
X190490135Y-100168671D01*
X190482452Y-100167000D01*
X190454562Y-100167000D01*
X190448047Y-100167337D01*
X190355943Y-100176894D01*
X190342544Y-100179788D01*
X190193893Y-100229381D01*
X190180714Y-100235555D01*
X190047827Y-100317788D01*
X190036426Y-100326824D01*
X189984175Y-100379166D01*
X189921892Y-100413245D01*
X189851072Y-100408242D01*
X189818298Y-100390110D01*
X189794815Y-100372091D01*
X189794812Y-100372089D01*
X189788259Y-100367061D01*
X189780633Y-100363902D01*
X189780631Y-100363901D01*
X189691119Y-100326824D01*
X189646802Y-100308467D01*
X189638618Y-100307390D01*
X189638616Y-100307389D01*
X189537203Y-100294038D01*
X189537202Y-100294038D01*
X189533116Y-100293500D01*
X189206989Y-100293500D01*
X189138868Y-100273498D01*
X189117894Y-100256595D01*
X188673247Y-99811948D01*
X188665666Y-99802461D01*
X188665292Y-99802779D01*
X188659477Y-99795946D01*
X188654685Y-99788352D01*
X188614515Y-99752876D01*
X188608829Y-99747530D01*
X188597435Y-99736136D01*
X188589100Y-99729889D01*
X188581272Y-99723516D01*
X188552666Y-99698252D01*
X188545939Y-99692311D01*
X188537812Y-99688495D01*
X188535178Y-99686765D01*
X188520681Y-99678054D01*
X188517915Y-99676540D01*
X188510734Y-99671158D01*
X188471026Y-99656272D01*
X188414262Y-99613629D01*
X188389563Y-99547068D01*
X188402300Y-99482463D01*
X188464670Y-99356267D01*
X188468469Y-99346672D01*
X188530376Y-99142915D01*
X188532555Y-99132834D01*
X188560590Y-98919887D01*
X188561109Y-98913212D01*
X188562572Y-98853364D01*
X188562378Y-98846646D01*
X188544781Y-98632604D01*
X188543096Y-98622424D01*
X188491214Y-98415875D01*
X188487894Y-98406124D01*
X188434247Y-98282742D01*
X188425428Y-98212295D01*
X188456094Y-98148263D01*
X188516511Y-98110976D01*
X188549797Y-98106500D01*
X189218011Y-98106500D01*
X189286132Y-98126502D01*
G37*
%TD.AperFunction*%
%TA.AperFunction,Conductor*%
G36*
X176071121Y-97766002D02*
G01*
X176117614Y-97819658D01*
X176129000Y-97872000D01*
X176129000Y-99189884D01*
X176133475Y-99205123D01*
X176134865Y-99206328D01*
X176142548Y-99207999D01*
X176178509Y-99207999D01*
X176246630Y-99228001D01*
X176293123Y-99281657D01*
X176303227Y-99351931D01*
X176273733Y-99416511D01*
X176247898Y-99438071D01*
X176247963Y-99438154D01*
X176245627Y-99439966D01*
X176242647Y-99442453D01*
X176241696Y-99443015D01*
X176241691Y-99443019D01*
X176234873Y-99447051D01*
X176220617Y-99461307D01*
X176205583Y-99474148D01*
X176189273Y-99485998D01*
X176163959Y-99516597D01*
X176161191Y-99519943D01*
X176153202Y-99528722D01*
X176100329Y-99581595D01*
X176038017Y-99615621D01*
X176011234Y-99618500D01*
X175565834Y-99618500D01*
X175497713Y-99598498D01*
X175482427Y-99586942D01*
X175449518Y-99557878D01*
X175443830Y-99552531D01*
X175432435Y-99541136D01*
X175424100Y-99534889D01*
X175416272Y-99528516D01*
X175387666Y-99503252D01*
X175380939Y-99497311D01*
X175372812Y-99493495D01*
X175370178Y-99491765D01*
X175355681Y-99483054D01*
X175352915Y-99481540D01*
X175345734Y-99476158D01*
X175310942Y-99463115D01*
X175301601Y-99459613D01*
X175292281Y-99455685D01*
X175258269Y-99439716D01*
X175205108Y-99392660D01*
X175185826Y-99324331D01*
X175206546Y-99256426D01*
X175260690Y-99210502D01*
X175324662Y-99200318D01*
X175396440Y-99207672D01*
X175402854Y-99208000D01*
X175602885Y-99208000D01*
X175618124Y-99203525D01*
X175619329Y-99202135D01*
X175621000Y-99194452D01*
X175621000Y-97872000D01*
X175641002Y-97803879D01*
X175694658Y-97757386D01*
X175747000Y-97746000D01*
X176003000Y-97746000D01*
X176071121Y-97766002D01*
G37*
%TD.AperFunction*%
%TA.AperFunction,Conductor*%
G36*
X180876635Y-96761380D02*
G01*
X180936317Y-96799831D01*
X180965738Y-96864445D01*
X180967000Y-96882236D01*
X180967000Y-97027885D01*
X180971475Y-97043124D01*
X180972865Y-97044329D01*
X180980548Y-97046000D01*
X182278000Y-97046000D01*
X182346121Y-97066002D01*
X182392614Y-97119658D01*
X182404000Y-97172000D01*
X182404000Y-98489884D01*
X182408475Y-98505123D01*
X182409865Y-98506328D01*
X182417548Y-98507999D01*
X182622095Y-98507999D01*
X182628614Y-98507662D01*
X182724206Y-98497743D01*
X182737600Y-98494851D01*
X182891784Y-98443412D01*
X182904962Y-98437239D01*
X183042807Y-98351937D01*
X183054208Y-98342901D01*
X183168739Y-98228171D01*
X183177753Y-98216757D01*
X183242923Y-98111031D01*
X183295695Y-98063537D01*
X183365766Y-98052113D01*
X183430890Y-98080387D01*
X183468173Y-98138717D01*
X183469111Y-98138328D01*
X183472270Y-98145955D01*
X183472271Y-98145958D01*
X183529150Y-98283275D01*
X183537748Y-98347283D01*
X183523632Y-98459020D01*
X183540741Y-98633511D01*
X183596083Y-98799876D01*
X183599730Y-98805898D01*
X183599731Y-98805900D01*
X183672319Y-98925756D01*
X183686908Y-98949846D01*
X183691797Y-98954909D01*
X183691798Y-98954910D01*
X183706242Y-98969867D01*
X183808701Y-99075966D01*
X183814597Y-99079825D01*
X183814598Y-99079825D01*
X183902074Y-99137068D01*
X183948123Y-99191105D01*
X183957646Y-99261460D01*
X183927621Y-99325796D01*
X183867580Y-99363685D01*
X183833081Y-99368500D01*
X183271703Y-99368500D01*
X183203582Y-99348498D01*
X183159742Y-99296869D01*
X183159168Y-99297208D01*
X183157191Y-99293865D01*
X183121567Y-99233628D01*
X183081983Y-99166694D01*
X183081983Y-99166693D01*
X183077949Y-99159873D01*
X182965127Y-99047051D01*
X182827792Y-98965832D01*
X182820181Y-98963621D01*
X182820179Y-98963620D01*
X182680751Y-98923112D01*
X182680746Y-98923111D01*
X182674574Y-98921318D01*
X182668169Y-98920814D01*
X182668164Y-98920813D01*
X182641226Y-98918693D01*
X182641218Y-98918693D01*
X182638770Y-98918500D01*
X181661230Y-98918500D01*
X181658782Y-98918693D01*
X181658774Y-98918693D01*
X181631836Y-98920813D01*
X181631831Y-98920814D01*
X181625426Y-98921318D01*
X181619254Y-98923111D01*
X181619249Y-98923112D01*
X181547963Y-98943823D01*
X181494151Y-98959457D01*
X181423156Y-98959254D01*
X181363540Y-98920700D01*
X181334231Y-98856036D01*
X181332999Y-98838460D01*
X181332999Y-98786017D01*
X181332805Y-98781080D01*
X181330570Y-98752664D01*
X181328269Y-98740066D01*
X181291300Y-98612819D01*
X181291503Y-98541823D01*
X181330056Y-98482207D01*
X181394721Y-98452898D01*
X181451965Y-98458073D01*
X181563710Y-98495138D01*
X181577086Y-98498005D01*
X181671438Y-98507672D01*
X181677854Y-98508000D01*
X181877885Y-98508000D01*
X181893124Y-98503525D01*
X181894329Y-98502135D01*
X181896000Y-98494452D01*
X181896000Y-97572115D01*
X181891525Y-97556876D01*
X181890135Y-97555671D01*
X181882452Y-97554000D01*
X181138264Y-97554000D01*
X181070143Y-97533998D01*
X181055613Y-97522288D01*
X181054361Y-97520639D01*
X180938368Y-97432596D01*
X180930387Y-97429436D01*
X180930385Y-97429435D01*
X180810501Y-97381970D01*
X180802972Y-97378989D01*
X180794934Y-97378016D01*
X180794933Y-97378016D01*
X180763986Y-97374271D01*
X180716294Y-97368500D01*
X179608706Y-97368500D01*
X179561014Y-97374271D01*
X179530067Y-97378016D01*
X179530066Y-97378016D01*
X179522028Y-97378989D01*
X179514499Y-97381970D01*
X179394615Y-97429435D01*
X179394613Y-97429436D01*
X179386632Y-97432596D01*
X179270639Y-97520639D01*
X179265998Y-97526753D01*
X179213548Y-97557834D01*
X179206381Y-97558860D01*
X179163467Y-97578372D01*
X179154099Y-97582185D01*
X179109768Y-97598188D01*
X179102525Y-97603479D01*
X179099768Y-97604945D01*
X179085118Y-97613506D01*
X179082476Y-97615196D01*
X179074307Y-97618910D01*
X179067509Y-97624767D01*
X179067508Y-97624768D01*
X179042642Y-97646194D01*
X178977980Y-97675507D01*
X178907734Y-97665208D01*
X178860032Y-97626920D01*
X178853952Y-97618910D01*
X178779361Y-97520639D01*
X178663368Y-97432596D01*
X178655387Y-97429436D01*
X178655385Y-97429435D01*
X178535501Y-97381970D01*
X178527972Y-97378989D01*
X178519934Y-97378016D01*
X178519933Y-97378016D01*
X178488986Y-97374271D01*
X178441294Y-97368500D01*
X177333706Y-97368500D01*
X177286014Y-97374271D01*
X177255067Y-97378016D01*
X177255066Y-97378016D01*
X177247028Y-97378989D01*
X177239499Y-97381970D01*
X177189738Y-97401671D01*
X177119038Y-97408150D01*
X177056058Y-97375377D01*
X177023831Y-97324394D01*
X176993413Y-97233218D01*
X176987239Y-97220038D01*
X176901937Y-97082193D01*
X176892901Y-97070792D01*
X176818653Y-96996673D01*
X176784574Y-96934390D01*
X176789577Y-96863570D01*
X176832074Y-96806697D01*
X176898573Y-96781829D01*
X176907671Y-96781500D01*
X180579157Y-96781500D01*
X180591221Y-96782848D01*
X180591260Y-96782358D01*
X180600206Y-96783078D01*
X180608962Y-96785059D01*
X180662432Y-96781742D01*
X180670233Y-96781500D01*
X180686366Y-96781500D01*
X180690807Y-96780864D01*
X180690809Y-96780864D01*
X180696677Y-96780024D01*
X180706726Y-96778995D01*
X180744806Y-96776632D01*
X180753768Y-96776076D01*
X180762215Y-96773026D01*
X180765317Y-96772384D01*
X180781702Y-96768299D01*
X180784735Y-96767412D01*
X180793619Y-96766140D01*
X180801788Y-96762426D01*
X180805638Y-96761300D01*
X180876635Y-96761380D01*
G37*
%TD.AperFunction*%
%TD*%
M02*
